<?xml version='1.0' encoding='UTF-8' standalone='no'?>
<!-- Created with Fritzing (http://www.fritzing.org/) -->
<svg xmlns:svg='http://www.w3.org/2000/svg' xmlns='http://www.w3.org/2000/svg' version='1.2' baseProfile='tiny' x='0in' y='0in' width='3.63004in' height='1.65315in' viewBox='0 0 261.363 119.027' >
<g partID='58400'><g transform='translate(87.5995,116.352)' ><g transform='matrix(1,0,0,-1,0,0)'  ><g xmlns="http://www.w3.org/2000/svg" id="schematic">
<rect y="0.45" stroke-linecap="round" x="14.85" stroke-width="0.9" height="78.3" fill="#FFFFFF" xmlns="http://www.w3.org/2000/svg" class="interior rect" width="63.9" stroke="#000000"/>
<g font-family="'Droid Sans'" stroke-linecap="round" stroke-width="0" xmlns="http://www.w3.org/2000/svg" stroke="none">
<g font-size="3.49999" fill="none" xmlns="http://www.w3.org/2000/svg" id="pins">
<g text-anchor="start" xmlns="http://www.w3.org/2000/svg" id="pins-left">
<line x2="14.75" x1="0.349999" stroke-width="0.699999" y1="14.4" y2="14.4" xmlns="http://www.w3.org/2000/svg" stroke="#787878" id="connector0pin"/>
<text y="15.0999" x="16.15" fill="#8c8c8c" xmlns="http://www.w3.org/2000/svg">RST</text>
<g y="14.0499" x="-0.349999" height="0.699999" xmlns="http://www.w3.org/2000/svg" width="0.699999" id="connector0terminal"/>
<line x2="14.75" x1="0.349999" stroke-width="0.699999" y1="21.6" y2="21.6" xmlns="http://www.w3.org/2000/svg" stroke="#787878" id="connector1pin"/>
<text y="22.2999" x="16.15" fill="#8c8c8c" xmlns="http://www.w3.org/2000/svg">A0</text>
<g y="21.2499" x="-0.349999" height="0.699999" xmlns="http://www.w3.org/2000/svg" width="0.699999" id="connector1terminal"/>
<line x2="14.75" x1="0.349999" stroke-width="0.699999" y1="28.8" y2="28.8" xmlns="http://www.w3.org/2000/svg" stroke="#787878" id="connector2pin"/>
<text y="29.4999" x="16.15" fill="#8c8c8c" xmlns="http://www.w3.org/2000/svg">D0</text>
<g y="28.4499" x="-0.349999" height="0.699999" xmlns="http://www.w3.org/2000/svg" width="0.699999" id="connector2terminal"/>
<line x2="14.75" x1="0.349999" stroke-width="0.699999" y1="36" y2="36" xmlns="http://www.w3.org/2000/svg" stroke="#787878" id="connector3pin"/>
<text y="36.6999" x="16.15" fill="#8c8c8c" xmlns="http://www.w3.org/2000/svg">D5</text>
<g y="35.6499" x="-0.349999" height="0.699999" xmlns="http://www.w3.org/2000/svg" width="0.699999" id="connector3terminal"/>
<line x2="14.75" x1="0.349999" stroke-width="0.699999" y1="43.2" y2="43.2" xmlns="http://www.w3.org/2000/svg" stroke="#787878" id="connector4pin"/>
<text y="43.8999" x="16.15" fill="#8c8c8c" xmlns="http://www.w3.org/2000/svg">D6</text>
<g y="42.8499" x="-0.349999" height="0.699999" xmlns="http://www.w3.org/2000/svg" width="0.699999" id="connector4terminal"/>
<line x2="14.75" x1="0.349999" stroke-width="0.699999" y1="50.4" y2="50.4" xmlns="http://www.w3.org/2000/svg" stroke="#787878" id="connector5pin"/>
<text y="51.0999" x="16.15" fill="#8c8c8c" xmlns="http://www.w3.org/2000/svg">D7</text>
<g y="50.0499" x="-0.349999" height="0.699999" xmlns="http://www.w3.org/2000/svg" width="0.699999" id="connector5terminal"/>
<line x2="14.75" x1="0.349999" stroke-width="0.699999" y1="57.6" y2="57.6" xmlns="http://www.w3.org/2000/svg" stroke="#787878" id="connector6pin"/>
<text y="58.2999" x="16.15" fill="#8c8c8c" xmlns="http://www.w3.org/2000/svg">D8</text>
<g y="57.2499" x="-0.349999" height="0.699999" xmlns="http://www.w3.org/2000/svg" width="0.699999" id="connector6terminal"/>
<line x2="14.75" x1="0.349999" stroke-width="0.699999" y1="64.8" y2="64.8" xmlns="http://www.w3.org/2000/svg" stroke="#787878" id="connector7pin"/>
<text y="65.4999" x="16.15" fill="#8c8c8c" xmlns="http://www.w3.org/2000/svg">3V3</text>
<g y="64.4499" x="-0.349999" height="0.699999" xmlns="http://www.w3.org/2000/svg" width="0.699999" id="connector7terminal"/>
</g>
<g text-anchor="end" xmlns="http://www.w3.org/2000/svg" id="right">
<line x2="93.2499" x1="78.8499" stroke-width="0.699999" y1="64.8" y2="64.8" xmlns="http://www.w3.org/2000/svg" stroke="#787878" id="connector8pin"/>
<text y="65.4999" x="77.4499" fill="#8c8c8c" xmlns="http://www.w3.org/2000/svg">5V</text>
<g y="64.4499" x="93.2499" height="0.699999" xmlns="http://www.w3.org/2000/svg" width="0.699999" id="connector8terminal"/>
<line x2="93.2499" x1="78.8499" stroke-width="0.699999" y1="57.6" y2="57.6" xmlns="http://www.w3.org/2000/svg" stroke="#787878" id="connector9pin"/>
<text y="58.2999" x="77.4499" fill="#8c8c8c" xmlns="http://www.w3.org/2000/svg">G</text>
<g y="57.2499" x="93.2499" height="0.699999" xmlns="http://www.w3.org/2000/svg" width="0.699999" id="connector9terminal"/>
<line x2="93.2499" x1="78.8499" stroke-width="0.699999" y1="50.4" y2="50.4" xmlns="http://www.w3.org/2000/svg" stroke="#787878" id="connector10pin"/>
<text y="51.0999" x="77.4499" fill="#8c8c8c" xmlns="http://www.w3.org/2000/svg">D4</text>
<g y="50.0499" x="93.2499" height="0.699999" xmlns="http://www.w3.org/2000/svg" width="0.699999" id="connector10terminal"/>
<line x2="93.2499" x1="78.8499" stroke-width="0.699999" y1="43.2" y2="43.2" xmlns="http://www.w3.org/2000/svg" stroke="#787878" id="connector11pin"/>
<text y="43.8999" x="77.4499" fill="#8c8c8c" xmlns="http://www.w3.org/2000/svg">D3</text>
<g y="42.8499" x="93.2499" height="0.699999" xmlns="http://www.w3.org/2000/svg" width="0.699999" id="connector11terminal"/>
<line x2="93.2499" x1="78.8499" stroke-width="0.699999" y1="36" y2="36" xmlns="http://www.w3.org/2000/svg" stroke="#787878" id="connector12pin"/>
<text y="36.6999" x="77.4499" fill="#8c8c8c" xmlns="http://www.w3.org/2000/svg">D2</text>
<g y="35.6499" x="93.2499" height="0.699999" xmlns="http://www.w3.org/2000/svg" width="0.699999" id="connector12terminal"/>
<line x2="93.2499" x1="78.8499" stroke-width="0.699999" y1="28.8" y2="28.8" xmlns="http://www.w3.org/2000/svg" stroke="#787878" id="connector13pin"/>
<text y="29.4999" x="77.4499" fill="#8c8c8c" xmlns="http://www.w3.org/2000/svg">D1</text>
<g y="28.4499" x="93.2499" height="0.699999" xmlns="http://www.w3.org/2000/svg" width="0.699999" id="connector13terminal"/>
<line x2="93.2499" x1="78.8499" stroke-width="0.699999" y1="21.6" y2="21.6" xmlns="http://www.w3.org/2000/svg" stroke="#787878" id="connector14pin"/>
<text y="22.2999" x="77.4499" fill="#8c8c8c" xmlns="http://www.w3.org/2000/svg">RX</text>
<g y="21.2499" x="93.2499" height="0.699999" xmlns="http://www.w3.org/2000/svg" width="0.699999" id="connector14terminal"/>
<line x2="93.2499" x1="78.8499" stroke-width="0.699999" y1="14.4" y2="14.4" xmlns="http://www.w3.org/2000/svg" stroke="#787878" id="connector15pin"/>
<text y="15.0999" x="77.4499" fill="#8c8c8c" xmlns="http://www.w3.org/2000/svg">TX</text>
<g y="14.0499" x="93.2499" height="0.699999" xmlns="http://www.w3.org/2000/svg" width="0.699999" id="connector15terminal"/>
</g>
</g>
<text font-size="4.25001" y="39.685" x="46.8283" text-anchor="middle" fill="#000000" xmlns="http://www.w3.org/2000/svg" id="label">WeMos D1 mini</text>
</g>
</g>
</g></g></g><g partID='58780'><g transform='translate(0,61.7718)' ><g transform='matrix(0,1,1,0,0,0)'  ><g xmlns="http://www.w3.org/2000/svg" id="schematic">
<path d="M18.565,15.1c-0.193,0,-0.35,-0.157,-0.35,-0.35l0,-7.2c0,-0.193,0.157,-0.35,0.35,-0.35s0.35,0.157,0.35,0.35l0,7.2C18.916,14.943,18.758,15.1,18.565,15.1z" xmlns="http://www.w3.org/2000/svg"/>
<path d="M18.565,7.55L18.565,7.55L18.565,7.55z" fill="none" xmlns="http://www.w3.org/2000/svg"/>
<path d="M32.963,15.1c-0.192,0,-0.351,-0.157,-0.351,-0.35L32.612,7.9L4.515,7.9l0,6.85c0,0.193,-0.157,0.35,-0.35,0.35s-0.35,-0.157,-0.35,-0.35L3.815,7.2l29.499,0l0,7.55C33.313,14.943,33.155,15.1,32.963,15.1z" xmlns="http://www.w3.org/2000/svg"/>
<path d="M36.563,15.1l-3.603,0c-0.192,0,-0.351,-0.157,-0.351,-0.35s0.156,-0.35,0.351,-0.35l3.603,0c0.192,0,0.352,0.157,0.352,0.35S36.758,15.1,36.563,15.1z" xmlns="http://www.w3.org/2000/svg"/>
<path d="M32.963,15.1l-3.598,0c-0.193,0,-0.351,-0.157,-0.351,-0.35s0.154,-0.35,0.351,-0.35l3.598,0c0.192,0,0.351,0.157,0.351,0.35S33.155,15.1,32.963,15.1z" xmlns="http://www.w3.org/2000/svg"/>
<polygon points="36.563,21.951,32.963,21.951,29.365,21.951,32.963,14.75" fill="#FFFFFF" xmlns="http://www.w3.org/2000/svg"/>
<path d="M37.131,22.3l-8.332,0l4.164,-8.333L37.131,22.3zM29.933,21.599l6.065,0l-3.035,-6.066L29.933,21.599z" xmlns="http://www.w3.org/2000/svg"/>
<path d="M32.963,22.175c-0.124,0,-0.226,-0.103,-0.226,-0.225L32.737,14.75c0,-0.124,0.102,-0.225,0.226,-0.225s0.226,0.101,0.226,0.225l0,7.201C33.188,22.074,33.087,22.175,32.963,22.175z" xmlns="http://www.w3.org/2000/svg"/>
<path d="M37.582,16.414c-0.06,0,-0.115,-0.021,-0.159,-0.063c-0.088,-0.088,-0.088,-0.229,0,-0.316l2.34,-2.341c0.088,-0.088,0.229,-0.088,0.318,0c0.088,0.088,0.088,0.23,0,0.318L37.74,16.35C37.696,16.392,37.64,16.414,37.582,16.414z" xmlns="http://www.w3.org/2000/svg"/>
<path d="M37.224,13.176c-0.059,0,-0.115,-0.022,-0.158,-0.066c-0.09,-0.088,-0.09,-0.23,0,-0.318l2.341,-2.34c0.088,-0.088,0.229,-0.088,0.315,0c0.088,0.088,0.088,0.23,0,0.318l-2.34,2.34C37.338,13.154,37.278,13.176,37.224,13.176z" xmlns="http://www.w3.org/2000/svg"/>
<path d="M41.542,12.231l-1.08,2.52l-1.438,-1.439L41.542,12.231z" xmlns="http://www.w3.org/2000/svg"/>
<path d="M41.183,8.991l-1.078,2.52l-1.438,-1.438L41.183,8.991z" xmlns="http://www.w3.org/2000/svg"/>
<path d="M22.165,15.1l-3.599,0c-0.193,0,-0.35,-0.157,-0.35,-0.35s0.157,-0.35,0.35,-0.35l3.599,0c0.193,0,0.35,0.157,0.35,0.35S22.358,15.1,22.165,15.1z" xmlns="http://www.w3.org/2000/svg"/>
<path d="M18.565,15.1l-3.601,0c-0.193,0,-0.35,-0.157,-0.35,-0.35s0.157,-0.35,0.35,-0.35l3.601,0c0.193,0,0.35,0.157,0.35,0.35S18.758,15.1,18.565,15.1z" xmlns="http://www.w3.org/2000/svg"/>
<polygon points="22.165,21.951,18.565,21.951,14.964,21.951,18.565,14.75" fill="#FFFFFF" xmlns="http://www.w3.org/2000/svg"/>
<path d="M22.731,22.3l-8.333,0l4.167,-8.333L22.731,22.3zM15.53,21.599l6.067,0l-3.033,-6.066L15.53,21.599z" xmlns="http://www.w3.org/2000/svg"/>
<path d="M18.565,22.175c-0.124,0,-0.225,-0.103,-0.225,-0.225L18.34,14.75c0,-0.124,0.101,-0.225,0.225,-0.225s0.225,0.101,0.225,0.225l0,7.201C18.791,22.074,18.689,22.175,18.565,22.175z" xmlns="http://www.w3.org/2000/svg"/>
<path d="M23.183,16.414c-0.058,0,-0.113,-0.021,-0.158,-0.063c-0.088,-0.088,-0.088,-0.229,0,-0.316l2.343,-2.341c0.088,-0.088,0.229,-0.088,0.315,0c0.09,0.088,0.09,0.23,0,0.318l-2.341,2.339C23.298,16.392,23.24,16.414,23.183,16.414z" xmlns="http://www.w3.org/2000/svg"/>
<path d="M22.821,13.176c-0.057,0,-0.114,-0.022,-0.159,-0.066c-0.088,-0.088,-0.088,-0.23,0,-0.318l2.34,-2.34c0.088,-0.088,0.229,-0.088,0.317,0c0.088,0.088,0.088,0.23,0,0.318l-2.34,2.34C22.938,13.154,22.88,13.176,22.821,13.176z" xmlns="http://www.w3.org/2000/svg"/>
<path d="M27.144,12.231l-1.08,2.52l-1.438,-1.439L27.144,12.231z" xmlns="http://www.w3.org/2000/svg"/>
<path d="M26.783,8.991l-1.08,2.52l-1.438,-1.438L26.783,8.991z" xmlns="http://www.w3.org/2000/svg"/>
<path d="M7.766,15.1L4.165,15.1c-0.193,0,-0.35,-0.157,-0.35,-0.35s0.157,-0.35,0.35,-0.35l3.601,0c0.193,0,0.35,0.157,0.35,0.35S7.959,15.1,7.766,15.1z" xmlns="http://www.w3.org/2000/svg"/>
<path d="M4.165,15.1L0.566,15.1c-0.193,0,-0.35,-0.157,-0.35,-0.35s0.157,-0.35,0.35,-0.35l3.599,0c0.193,0,0.35,0.157,0.35,0.35S4.359,15.1,4.165,15.1z" xmlns="http://www.w3.org/2000/svg"/>
<polygon points="7.766,21.951,4.165,21.951,0.566,21.951,4.165,14.75" fill="#FFFFFF" xmlns="http://www.w3.org/2000/svg"/>
<path d="M8.332,22.3L0,22.3l4.166,-8.333L8.332,22.3zM1.133,21.599L7.2,21.599l-3.034,-6.066L1.133,21.599z" xmlns="http://www.w3.org/2000/svg"/>
<path d="M4.165,22.175c-0.124,0,-0.225,-0.103,-0.225,-0.225L3.94,14.75c0,-0.124,0.101,-0.225,0.225,-0.225S4.39,14.626,4.39,14.75l0,7.201C4.39,22.074,4.289,22.175,4.165,22.175z" xmlns="http://www.w3.org/2000/svg"/>
<path d="M8.783,16.414c-0.058,0,-0.115,-0.021,-0.159,-0.063c-0.088,-0.088,-0.088,-0.229,0,-0.316l2.339,-2.341c0.088,-0.088,0.23,-0.088,0.318,0c0.088,0.088,0.088,0.23,0,0.318L8.942,16.35C8.898,16.392,8.841,16.414,8.783,16.414z" xmlns="http://www.w3.org/2000/svg"/>
<path d="M8.422,13.176c-0.058,0,-0.115,-0.022,-0.159,-0.066c-0.087,-0.088,-0.087,-0.23,0,-0.318l2.341,-2.34c0.088,-0.088,0.23,-0.088,0.318,0c0.088,0.088,0.088,0.23,0,0.318l-2.341,2.34C8.537,13.154,8.48,13.176,8.422,13.176z" xmlns="http://www.w3.org/2000/svg"/>
<path d="M12.743,12.231l-1.08,2.52l-1.439,-1.439L12.743,12.231z" xmlns="http://www.w3.org/2000/svg"/>
<path d="M12.382,8.991l-1.08,2.52l-1.438,-1.438L12.382,8.991z" xmlns="http://www.w3.org/2000/svg"/>
<g xmlns="http://www.w3.org/2000/svg">
<path d="M32.964,29.5c-0.193,0,-0.35,-0.155,-0.35,-0.35l0,-7.199c0,-0.193,0.156,-0.352,0.35,-0.352c0.194,0,0.35,0.156,0.35,0.352l0,7.199C33.313,29.343,33.157,29.5,32.964,29.5z" fill="#787878" xmlns="http://www.w3.org/2000/svg" id="connector2pin"/>
<g y="27.167" x="32.663" height="2.396" fill="none" xmlns="http://www.w3.org/2000/svg" width="0.75" id="connector2terminal"/>
<path d="M18.567,7.9c-0.193,0,-0.35,-0.157,-0.35,-0.35l0,-7.2c0,-0.193,0.157,-0.35,0.35,-0.35s0.35,0.157,0.35,0.35l0,7.2C18.917,7.744,18.76,7.9,18.567,7.9z" fill="#787878" xmlns="http://www.w3.org/2000/svg" id="connector1pin"/>
<g x="18.205" height="2.399" fill="none" xmlns="http://www.w3.org/2000/svg" width="0.75" id="connector1terminal"/>
<path d="M18.566,29.5c-0.193,0,-0.35,-0.155,-0.35,-0.35l0,-7.199c0,-0.193,0.157,-0.352,0.35,-0.352s0.35,0.156,0.35,0.352l0,7.199C18.916,29.343,18.759,29.5,18.566,29.5z" fill="#787878" xmlns="http://www.w3.org/2000/svg" id="connector3pin"/>
<g y="27.167" x="18.163" height="2.396" fill="none" xmlns="http://www.w3.org/2000/svg" width="0.75" id="connector3terminal"/>
<path d="M4.165,29.5c-0.193,0,-0.35,-0.155,-0.35,-0.35l0,-7.199c0,-0.193,0.157,-0.352,0.35,-0.352s0.35,0.156,0.35,0.352l0,7.199C4.515,29.343,4.359,29.5,4.165,29.5z" fill="#787878" xmlns="http://www.w3.org/2000/svg" id="connector0pin"/>
<g y="27.167" x="3.726" height="2.396" fill="none" xmlns="http://www.w3.org/2000/svg" width="0.75" id="connector0terminal"/>
</g>
</g>
</g></g></g><g partID='62550'><g transform='translate(224.733,82.8107)' ><g transform='matrix(0,1,-1,0,0,0)'  ><g xmlns="http://www.w3.org/2000/svg" id="schematic">
<line x2="4.741" stroke-linecap="round" x1="4.741" stroke-width="0.7" y1="9.333" y2="7.534" fill="none" xmlns="http://www.w3.org/2000/svg" stroke="#000000"/>
<line x2="1.142" stroke-linecap="round" x1="4.741" stroke-width="0.7" y1="21.934" y2="9.333" fill="none" xmlns="http://www.w3.org/2000/svg" stroke="#000000"/>
<circle cy="21.934" stroke-width="0.7" fill="none" r="0.36" xmlns="http://www.w3.org/2000/svg" cx="4.741" stroke="#000000"/>
<circle cy="7.534" stroke-width="0.7" fill="none" r="0.36" xmlns="http://www.w3.org/2000/svg" cx="4.741" stroke="#000000"/>
<line x2="4.741" stroke-linecap="round" x1="4.741" stroke-width="0.7" y1="29.135" y2="21.934" fill="none" xmlns="http://www.w3.org/2000/svg" stroke="#555555" id="connector0pin"/>
<g y="29.134" x="4.74" height="0.001" fill="none" xmlns="http://www.w3.org/2000/svg" width="0.002" id="connector0terminal"/>
<line x2="4.741" stroke-linecap="round" x1="4.741" stroke-width="0.7" y1="0.333" y2="7.534" fill="none" xmlns="http://www.w3.org/2000/svg" stroke="#555555" id="connector1pin"/>
<g y="0.333" x="4.741" height="0.001" fill="none" xmlns="http://www.w3.org/2000/svg" width="0" id="connector1terminal"/>
</g>
</g></g></g><g partID='62530'><g transform='translate(231.933,75.6107)' ><g transform='matrix(0,1,-1,0,0,0)'  ><g xmlns="http://www.w3.org/2000/svg" id="schematic">
<line x2="4.741" stroke-linecap="round" x1="4.741" stroke-width="0.7" y1="9.333" y2="7.534" fill="none" xmlns="http://www.w3.org/2000/svg" stroke="#000000"/>
<line x2="1.142" stroke-linecap="round" x1="4.741" stroke-width="0.7" y1="21.934" y2="9.333" fill="none" xmlns="http://www.w3.org/2000/svg" stroke="#000000"/>
<circle cy="21.934" stroke-width="0.7" fill="none" r="0.36" xmlns="http://www.w3.org/2000/svg" cx="4.741" stroke="#000000"/>
<circle cy="7.534" stroke-width="0.7" fill="none" r="0.36" xmlns="http://www.w3.org/2000/svg" cx="4.741" stroke="#000000"/>
<line x2="4.741" stroke-linecap="round" x1="4.741" stroke-width="0.7" y1="29.135" y2="21.934" fill="none" xmlns="http://www.w3.org/2000/svg" stroke="#555555" id="connector0pin"/>
<g y="29.134" x="4.74" height="0.001" fill="none" xmlns="http://www.w3.org/2000/svg" width="0.002" id="connector0terminal"/>
<line x2="4.741" stroke-linecap="round" x1="4.741" stroke-width="0.7" y1="0.333" y2="7.534" fill="none" xmlns="http://www.w3.org/2000/svg" stroke="#555555" id="connector1pin"/>
<g y="0.333" x="4.741" height="0.001" fill="none" xmlns="http://www.w3.org/2000/svg" width="0" id="connector1terminal"/>
</g>
</g></g></g><g partID='62510'><g transform='translate(239.133,68.4107)' ><g transform='matrix(0,1,-1,0,0,0)'  ><g xmlns="http://www.w3.org/2000/svg" id="schematic">
<line x2="4.741" stroke-linecap="round" x1="4.741" stroke-width="0.7" y1="9.333" y2="7.534" fill="none" xmlns="http://www.w3.org/2000/svg" stroke="#000000"/>
<line x2="1.142" stroke-linecap="round" x1="4.741" stroke-width="0.7" y1="21.934" y2="9.333" fill="none" xmlns="http://www.w3.org/2000/svg" stroke="#000000"/>
<circle cy="21.934" stroke-width="0.7" fill="none" r="0.36" xmlns="http://www.w3.org/2000/svg" cx="4.741" stroke="#000000"/>
<circle cy="7.534" stroke-width="0.7" fill="none" r="0.36" xmlns="http://www.w3.org/2000/svg" cx="4.741" stroke="#000000"/>
<line x2="4.741" stroke-linecap="round" x1="4.741" stroke-width="0.7" y1="29.135" y2="21.934" fill="none" xmlns="http://www.w3.org/2000/svg" stroke="#555555" id="connector0pin"/>
<g y="29.134" x="4.74" height="0.001" fill="none" xmlns="http://www.w3.org/2000/svg" width="0.002" id="connector0terminal"/>
<line x2="4.741" stroke-linecap="round" x1="4.741" stroke-width="0.7" y1="0.333" y2="7.534" fill="none" xmlns="http://www.w3.org/2000/svg" stroke="#555555" id="connector1pin"/>
<g y="0.333" x="4.741" height="0.001" fill="none" xmlns="http://www.w3.org/2000/svg" width="0" id="connector1terminal"/>
</g>
</g></g></g><g partID='64880'><g transform='translate(75.6587,15.2182)' ><g transform='matrix(1,0,0,1,0,0)'  ><g xmlns="http://www.w3.org/2000/svg" id="schematic">
<line x2="4.741" stroke-linecap="round" x1="4.741" stroke-width="0.7" y1="9.333" y2="7.534" fill="none" xmlns="http://www.w3.org/2000/svg" stroke="#000000"/>
<line x2="1.142" stroke-linecap="round" x1="4.741" stroke-width="0.7" y1="21.934" y2="9.333" fill="none" xmlns="http://www.w3.org/2000/svg" stroke="#000000"/>
<circle cy="21.934" stroke-width="0.7" fill="none" r="0.36" xmlns="http://www.w3.org/2000/svg" cx="4.741" stroke="#000000"/>
<circle cy="7.534" stroke-width="0.7" fill="none" r="0.36" xmlns="http://www.w3.org/2000/svg" cx="4.741" stroke="#000000"/>
<line x2="4.741" stroke-linecap="round" x1="4.741" stroke-width="0.7" y1="29.135" y2="21.934" fill="none" xmlns="http://www.w3.org/2000/svg" stroke="#555555" id="connector0pin"/>
<g y="29.134" x="4.74" height="0.001" fill="none" xmlns="http://www.w3.org/2000/svg" width="0.002" id="connector0terminal"/>
<line x2="4.741" stroke-linecap="round" x1="4.741" stroke-width="0.7" y1="0.333" y2="7.534" fill="none" xmlns="http://www.w3.org/2000/svg" stroke="#555555" id="connector1pin"/>
<g y="0.333" x="4.741" height="0.001" fill="none" xmlns="http://www.w3.org/2000/svg" width="0" id="connector1terminal"/>
</g>
</g></g></g><g partID='60500'><g transform='translate(246.333,61.2108)' ><g transform='matrix(0,1,-1,0,0,0)'  ><g xmlns="http://www.w3.org/2000/svg" id="schematic">
<line x2="4.741" stroke-linecap="round" x1="4.741" stroke-width="0.7" y1="9.333" y2="7.534" fill="none" xmlns="http://www.w3.org/2000/svg" stroke="#000000"/>
<line x2="1.142" stroke-linecap="round" x1="4.741" stroke-width="0.7" y1="21.934" y2="9.333" fill="none" xmlns="http://www.w3.org/2000/svg" stroke="#000000"/>
<circle cy="21.934" stroke-width="0.7" fill="none" r="0.36" xmlns="http://www.w3.org/2000/svg" cx="4.741" stroke="#000000"/>
<circle cy="7.534" stroke-width="0.7" fill="none" r="0.36" xmlns="http://www.w3.org/2000/svg" cx="4.741" stroke="#000000"/>
<line x2="4.741" stroke-linecap="round" x1="4.741" stroke-width="0.7" y1="29.135" y2="21.934" fill="none" xmlns="http://www.w3.org/2000/svg" stroke="#555555" id="connector0pin"/>
<g y="29.134" x="4.74" height="0.001" fill="none" xmlns="http://www.w3.org/2000/svg" width="0.002" id="connector0terminal"/>
<line x2="4.741" stroke-linecap="round" x1="4.741" stroke-width="0.7" y1="0.333" y2="7.534" fill="none" xmlns="http://www.w3.org/2000/svg" stroke="#555555" id="connector1pin"/>
<g y="0.333" x="4.741" height="0.001" fill="none" xmlns="http://www.w3.org/2000/svg" width="0" id="connector1terminal"/>
</g>
</g></g></g><g partID='62240'><g transform='translate(36.7919,91.6136)' ><g xmlns="http://www.w3.org/2000/svg" id="schematic">
<line x2="8.63003" x1="7.55002" stroke-linecap="round" stroke-width="0.432002" y1="3.096" y2="0.216" xmlns="http://www.w3.org/2000/svg" class="other" stroke="#000000"/>
<line x2="10.43" x1="8.63003" stroke-linecap="round" stroke-width="0.432002" y1="0.216" y2="5.976" xmlns="http://www.w3.org/2000/svg" class="other" stroke="#000000"/>
<line x2="12.23" x1="10.43" stroke-linecap="round" stroke-width="0.432002" y1="5.976" y2="0.216" xmlns="http://www.w3.org/2000/svg" class="other" stroke="#000000"/>
<line x2="14.03" x1="12.23" stroke-linecap="round" stroke-width="0.432002" y1="0.216" y2="5.976" xmlns="http://www.w3.org/2000/svg" class="other" stroke="#000000"/>
<line x2="15.8301" x1="14.03" stroke-linecap="round" stroke-width="0.432002" y1="5.976" y2="0.216" xmlns="http://www.w3.org/2000/svg" class="other" stroke="#000000"/>
<line x2="17.6301" x1="15.8301" stroke-linecap="round" stroke-width="0.432002" y1="0.216" y2="5.976" xmlns="http://www.w3.org/2000/svg" class="other" stroke="#000000"/>
<line x2="19.4301" x1="17.6301" stroke-linecap="round" stroke-width="0.432002" y1="5.976" y2="0.216" xmlns="http://www.w3.org/2000/svg" class="other" stroke="#000000"/>
<line x2="21.2301" x1="19.4301" stroke-linecap="round" stroke-width="0.432002" y1="0.216" y2="5.976" xmlns="http://www.w3.org/2000/svg" class="other" stroke="#000000"/>
<line x2="21.9501" x1="21.2301" stroke-linecap="round" stroke-width="0.432002" y1="5.976" y2="3.096" xmlns="http://www.w3.org/2000/svg" class="other" stroke="#000000"/>
<line x2="21.9501" x1="29.1502" stroke-linecap="round" stroke-width="0.700001" connectorname="2" y1="3.096" y2="3.096" xmlns="http://www.w3.org/2000/svg" class="pin" stroke="#787878" id="connector1pin"/>
<g y="3.096" x="29.1502" stroke-width="0" height="0.000283465" fill="none" xmlns="http://www.w3.org/2000/svg" class="terminal" width="0.000283466" stroke="none" id="connector1terminal"/>
<text font-size="2.50001" font-family="'Droid Sans'" y="2.046" x="25.5501" text-anchor="middle" stroke-width="0" fill="#8c8c8c" xmlns="http://www.w3.org/2000/svg" class="text" stroke="none">2</text>
<line x2="7.55002" x1="0.350001" stroke-linecap="round" stroke-width="0.700001" connectorname="1" y1="3.096" y2="3.096" xmlns="http://www.w3.org/2000/svg" class="pin" stroke="#787878" id="connector0pin"/>
<g y="3.096" x="0.350001" stroke-width="0" height="0.000283465" fill="none" xmlns="http://www.w3.org/2000/svg" class="terminal" width="0.000283466" stroke="none" id="connector0terminal"/>
<text font-size="2.50001" font-family="'Droid Sans'" y="2.046" x="3.95001" text-anchor="middle" stroke-width="0" fill="#8c8c8c" xmlns="http://www.w3.org/2000/svg" class="text" stroke="none">1</text>
</g>
</g></g><g partID='61990'><g transform='translate(36.7919,77.2136)' ><g xmlns="http://www.w3.org/2000/svg" id="schematic">
<line x2="8.63003" x1="7.55002" stroke-linecap="round" stroke-width="0.432002" y1="3.096" y2="0.216" xmlns="http://www.w3.org/2000/svg" class="other" stroke="#000000"/>
<line x2="10.43" x1="8.63003" stroke-linecap="round" stroke-width="0.432002" y1="0.216" y2="5.976" xmlns="http://www.w3.org/2000/svg" class="other" stroke="#000000"/>
<line x2="12.23" x1="10.43" stroke-linecap="round" stroke-width="0.432002" y1="5.976" y2="0.216" xmlns="http://www.w3.org/2000/svg" class="other" stroke="#000000"/>
<line x2="14.03" x1="12.23" stroke-linecap="round" stroke-width="0.432002" y1="0.216" y2="5.976" xmlns="http://www.w3.org/2000/svg" class="other" stroke="#000000"/>
<line x2="15.8301" x1="14.03" stroke-linecap="round" stroke-width="0.432002" y1="5.976" y2="0.216" xmlns="http://www.w3.org/2000/svg" class="other" stroke="#000000"/>
<line x2="17.6301" x1="15.8301" stroke-linecap="round" stroke-width="0.432002" y1="0.216" y2="5.976" xmlns="http://www.w3.org/2000/svg" class="other" stroke="#000000"/>
<line x2="19.4301" x1="17.6301" stroke-linecap="round" stroke-width="0.432002" y1="5.976" y2="0.216" xmlns="http://www.w3.org/2000/svg" class="other" stroke="#000000"/>
<line x2="21.2301" x1="19.4301" stroke-linecap="round" stroke-width="0.432002" y1="0.216" y2="5.976" xmlns="http://www.w3.org/2000/svg" class="other" stroke="#000000"/>
<line x2="21.9501" x1="21.2301" stroke-linecap="round" stroke-width="0.432002" y1="5.976" y2="3.096" xmlns="http://www.w3.org/2000/svg" class="other" stroke="#000000"/>
<line x2="21.9501" x1="29.1502" stroke-linecap="round" stroke-width="0.700001" connectorname="2" y1="3.096" y2="3.096" xmlns="http://www.w3.org/2000/svg" class="pin" stroke="#787878" id="connector1pin"/>
<g y="3.096" x="29.1502" stroke-width="0" height="0.000283465" fill="none" xmlns="http://www.w3.org/2000/svg" class="terminal" width="0.000283466" stroke="none" id="connector1terminal"/>
<text font-size="2.50001" font-family="'Droid Sans'" y="2.046" x="25.5501" text-anchor="middle" stroke-width="0" fill="#8c8c8c" xmlns="http://www.w3.org/2000/svg" class="text" stroke="none">2</text>
<line x2="7.55002" x1="0.350001" stroke-linecap="round" stroke-width="0.700001" connectorname="1" y1="3.096" y2="3.096" xmlns="http://www.w3.org/2000/svg" class="pin" stroke="#787878" id="connector0pin"/>
<g y="3.096" x="0.350001" stroke-width="0" height="0.000283465" fill="none" xmlns="http://www.w3.org/2000/svg" class="terminal" width="0.000283466" stroke="none" id="connector0terminal"/>
<text font-size="2.50001" font-family="'Droid Sans'" y="2.046" x="3.95001" text-anchor="middle" stroke-width="0" fill="#8c8c8c" xmlns="http://www.w3.org/2000/svg" class="text" stroke="none">1</text>
</g>
</g></g><g partID='61640'><g transform='translate(36.7919,62.8136)' ><g xmlns="http://www.w3.org/2000/svg" id="schematic">
<line x2="8.63003" x1="7.55002" stroke-linecap="round" stroke-width="0.432002" y1="3.096" y2="0.216" xmlns="http://www.w3.org/2000/svg" class="other" stroke="#000000"/>
<line x2="10.43" x1="8.63003" stroke-linecap="round" stroke-width="0.432002" y1="0.216" y2="5.976" xmlns="http://www.w3.org/2000/svg" class="other" stroke="#000000"/>
<line x2="12.23" x1="10.43" stroke-linecap="round" stroke-width="0.432002" y1="5.976" y2="0.216" xmlns="http://www.w3.org/2000/svg" class="other" stroke="#000000"/>
<line x2="14.03" x1="12.23" stroke-linecap="round" stroke-width="0.432002" y1="0.216" y2="5.976" xmlns="http://www.w3.org/2000/svg" class="other" stroke="#000000"/>
<line x2="15.8301" x1="14.03" stroke-linecap="round" stroke-width="0.432002" y1="5.976" y2="0.216" xmlns="http://www.w3.org/2000/svg" class="other" stroke="#000000"/>
<line x2="17.6301" x1="15.8301" stroke-linecap="round" stroke-width="0.432002" y1="0.216" y2="5.976" xmlns="http://www.w3.org/2000/svg" class="other" stroke="#000000"/>
<line x2="19.4301" x1="17.6301" stroke-linecap="round" stroke-width="0.432002" y1="5.976" y2="0.216" xmlns="http://www.w3.org/2000/svg" class="other" stroke="#000000"/>
<line x2="21.2301" x1="19.4301" stroke-linecap="round" stroke-width="0.432002" y1="0.216" y2="5.976" xmlns="http://www.w3.org/2000/svg" class="other" stroke="#000000"/>
<line x2="21.9501" x1="21.2301" stroke-linecap="round" stroke-width="0.432002" y1="5.976" y2="3.096" xmlns="http://www.w3.org/2000/svg" class="other" stroke="#000000"/>
<line x2="21.9501" x1="29.1502" stroke-linecap="round" stroke-width="0.700001" connectorname="2" y1="3.096" y2="3.096" xmlns="http://www.w3.org/2000/svg" class="pin" stroke="#787878" id="connector1pin"/>
<g y="3.096" x="29.1502" stroke-width="0" height="0.000283465" fill="none" xmlns="http://www.w3.org/2000/svg" class="terminal" width="0.000283466" stroke="none" id="connector1terminal"/>
<text font-size="2.50001" font-family="'Droid Sans'" y="2.046" x="25.5501" text-anchor="middle" stroke-width="0" fill="#8c8c8c" xmlns="http://www.w3.org/2000/svg" class="text" stroke="none">2</text>
<line x2="7.55002" x1="0.350001" stroke-linecap="round" stroke-width="0.700001" connectorname="1" y1="3.096" y2="3.096" xmlns="http://www.w3.org/2000/svg" class="pin" stroke="#787878" id="connector0pin"/>
<g y="3.096" x="0.350001" stroke-width="0" height="0.000283465" fill="none" xmlns="http://www.w3.org/2000/svg" class="terminal" width="0.000283466" stroke="none" id="connector0terminal"/>
<text font-size="2.50001" font-family="'Droid Sans'" y="2.046" x="3.95001" text-anchor="middle" stroke-width="0" fill="#8c8c8c" xmlns="http://www.w3.org/2000/svg" class="text" stroke="none">1</text>
</g>
</g></g><g partID='83340'><line stroke-linecap='round' stroke='#404040' x1='80.4971' y1='1.05387' x2='80.3997' y2='15.5517' stroke-width='0.699998' /></g><g partID='83190'><line stroke-linecap='round' stroke='#404040' x1='188.666' y1='1.61578' x2='80.4971' y2='1.05387' stroke-width='0.699998' /></g><g partID='83870'><line stroke-linecap='round' stroke='#404040' x1='260.31' y1='58.6505' x2='260.31' y2='87.5891' stroke-width='0.699998' /></g><g partID='83680'><line stroke-linecap='round' stroke='#404040' x1='260.31' y1='87.5892' x2='224.399' y2='87.5518' stroke-width='0.699998' /></g><g partID='83490'><line stroke-linecap='round' stroke='#404040' x1='181.199' y1='58.7519' x2='260.31' y2='58.6505' stroke-width='0.699998' /></g><circle  fill="black" cx="181.199" cy="58.7519" r="1.44" stroke-width="0" stroke="none" /><g partID='84520'><line stroke-linecap='round' stroke='#404040' x1='260.31' y1='58.6505' x2='260.31' y2='80.2843' stroke-width='0.699998' /></g><g partID='84290'><line stroke-linecap='round' stroke='#404040' x1='260.31' y1='80.2843' x2='231.599' y2='80.3517' stroke-width='0.699998' /></g><g partID='84060'><line stroke-linecap='round' stroke='#404040' x1='181.199' y1='58.7519' x2='260.31' y2='58.6505' stroke-width='0.699998' /></g><circle  fill="black" cx="181.199" cy="58.7519" r="1.44" stroke-width="0" stroke="none" /><g partID='85290'><line stroke-linecap='round' stroke='#404040' x1='260.31' y1='58.6505' x2='260.31' y2='73.2603' stroke-width='0.699998' /></g><g partID='85020'><line stroke-linecap='round' stroke='#404040' x1='260.31' y1='73.2603' x2='238.799' y2='73.1517' stroke-width='0.699998' /></g><g partID='84750'><line stroke-linecap='round' stroke='#404040' x1='181.199' y1='58.7519' x2='260.31' y2='58.6505' stroke-width='0.699998' /></g><circle  fill="black" cx="181.199" cy="58.7519" r="1.44" stroke-width="0" stroke="none" /><g partID='86180'><line stroke-linecap='round' stroke='#404040' x1='260.31' y1='58.6505' x2='260.31' y2='65.9554' stroke-width='0.699998' /></g><g partID='85870'><line stroke-linecap='round' stroke='#404040' x1='260.31' y1='65.9555' x2='245.999' y2='65.9518' stroke-width='0.699998' /></g><g partID='85560'><line stroke-linecap='round' stroke='#404040' x1='181.199' y1='58.7519' x2='260.31' y2='58.6505' stroke-width='0.699998' /></g><circle  fill="black" cx="181.199" cy="58.7519" r="1.44" stroke-width="0" stroke="none" /><g partID='78540'><line stroke-linecap='round' stroke='#404040' x1='87.5995' y1='65.9519' x2='80.3997' y2='44.3527' stroke-width='0.699998' /></g><g partID='71330'><line stroke-linecap='round' stroke='#404040' x1='188.4' y1='58.7518' x2='188.666' y2='1.6161' stroke-width='0.699998' /></g><g partID='71260'><line stroke-linecap='round' stroke='#404040' x1='188.666' y1='1.61578' x2='1.26513' y2='1.16586' stroke-width='0.699998' /></g><circle  fill="black" cx="188.666" cy="1.61578" r="1.44" stroke-width="0" stroke="none" /><g partID='71190'><line stroke-linecap='round' stroke='#404040' x1='1.26545' y1='1.16618' x2='1.19952' y2='80.3518' stroke-width='0.699998' /></g><g partID='71120'><line stroke-linecap='round' stroke='#404040' x1='181.199' y1='58.7519' x2='188.4' y2='58.7518' stroke-width='0.699998' /></g><circle  fill="black" cx="181.199" cy="58.7519" r="1.44" stroke-width="0" stroke="none" /><g partID='72190'><line stroke-linecap='round' stroke='#404040' x1='87.5995' y1='73.1519' x2='65.9422' y2='65.9098' stroke-width='0.699998' /></g><g partID='75500'><line stroke-linecap='round' stroke='#404040' x1='181.2' y1='87.5519' x2='195.598' y2='87.5517' stroke-width='0.699998' /></g><g partID='75570'><line stroke-linecap='round' stroke='#404040' x1='28.365' y1='65.8727' x2='37.1421' y2='65.9098' stroke-width='0.699998' /></g><g partID='75680'><line stroke-linecap='round' stroke='#404040' x1='37.1421' y1='80.3098' x2='28.365' y2='80.3098' stroke-width='0.699998' /></g><g partID='69400'><line stroke-linecap='round' stroke='#404040' x1='87.5995' y1='87.5519' x2='65.9422' y2='94.7098' stroke-width='0.699998' /></g><g partID='65620'><line stroke-linecap='round' stroke='#404040' x1='87.5995' y1='80.3519' x2='65.9422' y2='80.3098' stroke-width='0.699998' /></g><g partID='67350'><line stroke-linecap='round' stroke='#404040' x1='181.2' y1='80.3519' x2='202.798' y2='80.3517' stroke-width='0.699998' /></g><g partID='67420'><line stroke-linecap='round' stroke='#404040' x1='181.2' y1='73.1519' x2='209.998' y2='73.1517' stroke-width='0.699998' /></g><g partID='67490'><line stroke-linecap='round' stroke='#404040' x1='181.2' y1='65.9519' x2='217.198' y2='65.9518' stroke-width='0.699998' /></g><g partID='62260'><line stroke-linecap='round' stroke='#404040' x1='28.365' y1='94.8098' x2='37.1421' y2='94.7098' stroke-width='0.699998' /></g><g partID='58400' id='partLabel'><g transform='translate(181.2,31.5518)' ><g font-size='5' font-style='normal' font-weight='normal' fill='#000000' font-family="'DroidSans'" id='schematicLabel' fill-opacity='1' stroke='none' ><text x='0' y='3.75'>WeMos D1 Mini1</text></g></g></g><g partID='62550' id='partLabel'><g transform='translate(230.333,89.4267)' ><g transform='matrix(0,1,-1,0,0,0)'  ><g font-size='5' font-style='normal' font-weight='normal' fill='#000000' font-family="'DroidSans'" id='schematicLabel' fill-opacity='1' stroke='none' ><text x='0' y='3.75'>S1 - Red</text></g></g></g></g><g partID='64880' id='partLabel'><g transform='translate(82.2747,9.61818)' ><g transform='matrix(1,0,0,1,0,0)'  ><g font-size='5' font-style='normal' font-weight='normal' fill='#000000' font-family="'DroidSans'" id='schematicLabel' fill-opacity='1' stroke='none' ><text x='0' y='3.75'>S5 - 16mm Silver</text></g></g></g></g><g partID='62510' id='partLabel'><g transform='translate(244.732,75.0267)' ><g transform='matrix(0,1,-1,0,0,0)'  ><g font-size='5' font-style='normal' font-weight='normal' fill='#000000' font-family="'DroidSans'" id='schematicLabel' fill-opacity='1' stroke='none' ><text x='0' y='3.75'>S3 - Yellow</text></g></g></g></g><g partID='60500' id='partLabel'><g transform='translate(251.933,67.8268)' ><g transform='matrix(0,1,-1,0,0,0)'  ><g font-size='5' font-style='normal' font-weight='normal' fill='#000000' font-family="'DroidSans'" id='schematicLabel' fill-opacity='1' stroke='none' ><text x='0' y='3.75'>S4 - White</text></g></g></g></g><g partID='62530' id='partLabel'><g transform='translate(237.533,82.2267)' ><g transform='matrix(0,1,-1,0,0,0)'  ><g font-size='5' font-style='normal' font-weight='normal' fill='#000000' font-family="'DroidSans'" id='schematicLabel' fill-opacity='1' stroke='none' ><text x='0' y='3.75'>S2 - Green</text></g></g></g></g><g partID='61640' id='partLabel'><g transform='translate(66.2923,46.8136)' ><g font-size='5' font-style='normal' font-weight='normal' fill='#000000' font-family="'DroidSans'" id='schematicLabel' fill-opacity='1' stroke='none' ><text x='0' y='3.75'>R1</text><text x='0' y='8.75'>&#xb1;1%</text><text x='0' y='13.75'>470&#x3a9;</text></g></g></g><g partID='61990' id='partLabel'><g transform='translate(66.2923,61.2136)' ><g font-size='5' font-style='normal' font-weight='normal' fill='#000000' font-family="'DroidSans'" id='schematicLabel' fill-opacity='1' stroke='none' ><text x='0' y='3.75'>R2</text><text x='0' y='8.75'>&#xb1;1%</text><text x='0' y='13.75'>2k&#x3a9;</text></g></g></g><g partID='62240' id='partLabel'><g transform='translate(66.2923,75.6136)' ><g font-size='5' font-style='normal' font-weight='normal' fill='#000000' font-family="'DroidSans'" id='schematicLabel' fill-opacity='1' stroke='none' ><text x='0' y='3.75'>R3</text><text x='0' y='8.75'>&#xb1;1%</text><text x='0' y='13.75'>5.1k&#x3a9;</text></g></g></g><g partID='58780' id='partLabel'><g transform='translate(37.0415,63.7063)' ><g font-size='5' font-style='normal' font-weight='normal' fill='#000000' font-family="'DroidSans'" id='schematicLabel' fill-opacity='1' stroke='none' ><text x='0' y='3.75'>LED1</text></g></g></g></svg>