<?xml version='1.0' encoding='UTF-8' standalone='no'?>
<!-- Created with Fritzing (http://www.fritzing.org/) -->
<svg xmlns:svg='http://www.w3.org/2000/svg' xmlns='http://www.w3.org/2000/svg' version='1.2' baseProfile='tiny' x='0in' y='0in' width='6.08032in' height='1.92721in' viewBox='0 0 437.783 138.759' >
<g partID='72330'><g transform='translate(170.079,11.2)' ><g transform='matrix(-1,0,0,1,0,0)'  ><g transform="matrix(1, 0, 0, 1, 0, -714.331)">
<g id="schematic">
<g>
<rect y="735.73" style="stroke-miterlimit:4;stroke-dasharray:none" stroke-width="2.4" x="42.6605" fill="none" height="84.8985" width="106.299" stroke="#000000" stroke-opacity="1" id="rect6478"/>
<path style="color:#000000;fill-rule:nonzero;stroke-linecap:butt;stroke-linejoin:miter;stroke-miterlimit:4;stroke-dasharray:none;stroke-dashoffset:0;marker:none;visibility:visible;display:inline;overflow:visible;enable-background:accumulate" stroke-width="2.4" fill="#c2c2c2" stroke="#000000" d="m42.5197,778.109,-21.2598,0" stroke-opacity="1" fill-opacity="1" id="path6484"/>
<g style="font-style:normal;font-variant:normal;font-weight:normal;font-stretch:normal;text-align:start;line-height:125%;letter-spacing:0px;word-spacing:0px;text-anchor:start;font-family:Droid Sans;-inkscape-font-specification:Droid Sans" xmlns:xml="http://www.w3.org/XML/1998/namespace" fill="#000000" xml:space="preserve" stroke="none" font-size="0" fill-opacity="1" id="text6518">
<text y="780.944" style="font-style:normal;font-variant:normal;font-weight:normal;font-stretch:normal;text-align:start;text-anchor:start;font-family:Droid Sans;-inkscape-font-specification:Droid Sans" x="46.7717" font-size="0" id="tspan6520">DQ</text>
</g>
<g style="font-style:normal;font-variant:normal;font-weight:normal;font-stretch:normal;text-align:center;line-height:125%;letter-spacing:0px;word-spacing:0px;text-anchor:middle;font-family:Droid Sans;-inkscape-font-specification:Droid Sans" xmlns:xml="http://www.w3.org/XML/1998/namespace" fill="#000000" xml:space="preserve" stroke="none" font-size="0" fill-opacity="1" id="text6578">
<text y="783.213" x="104.315" id="tspan6580">DS18B20</text>
</g>
<path style="color:#000000;fill-rule:nonzero;stroke-miterlimit:4;stroke-dasharray:none;marker:none;visibility:visible;display:inline;overflow:visible;enable-background:accumulate" stroke-width="2.4" fill="#c2c2c2" stroke="#000000" d="m42.5197,799.37,-21.2598,0" stroke-opacity="1" fill-opacity="1" id="path6480"/>
<g style="font-style:normal;font-variant:normal;font-weight:normal;font-stretch:normal;text-align:center;line-height:125%;letter-spacing:0px;word-spacing:0px;text-anchor:middle;font-family:Droid Sans;-inkscape-font-specification:Droid Sans" xmlns:xml="http://www.w3.org/XML/1998/namespace" fill="#000000" xml:space="preserve" stroke="none" font-size="0" fill-opacity="1" id="text6514">
<text y="802.205" style="font-style:normal;font-variant:normal;font-weight:normal;font-stretch:normal;font-family:Droid Sans;-inkscape-font-specification:Droid Sans" x="54.1418" font-size="0" id="tspan6516">GND</text>
</g>
<rect y="796.536" x="18.4252" fill="none" height="5.66929" width="5.66929" stroke="none" id="connector1pin"/>
<rect y="775.275" x="18.4252" fill="none" height="5.66929" width="5.66929" stroke="none" id="connector2pin"/>
<path style="color:#000000;fill-rule:nonzero;stroke-linecap:butt;stroke-linejoin:miter;stroke-miterlimit:4;stroke-dasharray:none;stroke-dashoffset:0;marker:none;visibility:visible;display:inline;overflow:visible;enable-background:accumulate" stroke-width="2.4" fill="#c2c2c2" stroke="#000000" d="m42.5197,756.849,-21.2598,0" stroke-opacity="1" fill-opacity="1" id="path6486"/>
<g style="font-style:normal;font-variant:normal;font-weight:normal;font-stretch:normal;text-align:center;line-height:125%;letter-spacing:0px;word-spacing:0px;text-anchor:middle;font-family:Droid Sans;-inkscape-font-specification:Droid Sans" xmlns:xml="http://www.w3.org/XML/1998/namespace" fill="#000000" xml:space="preserve" stroke="none" font-size="0" fill-opacity="1" id="text6522">
<text y="759.684" style="font-style:normal;font-variant:normal;font-weight:normal;font-stretch:normal;font-family:Droid Sans;-inkscape-font-specification:Droid Sans" x="54.1418" font-size="0" id="tspan6524">VDD</text>
</g>
<rect y="754.015" x="18.4252" fill="none" height="5.66929" width="5.66929" stroke="none" id="connector3pin"/>
</g>
</g>
</g>
</g></g></g><g partID='75190'><g transform='translate(184.469,35.544)' ><g xmlns="http://www.w3.org/2000/svg" id="schematic">
<line xmlns="http://www.w3.org/2000/svg" stroke-width="0.432002" y1="3.096" x1="7.55002" class="other" x2="8.63003" y2="0.216" stroke="#000000" stroke-linecap="round"/>
<line xmlns="http://www.w3.org/2000/svg" stroke-width="0.432002" y1="0.216" x1="8.63003" class="other" x2="10.43" y2="5.976" stroke="#000000" stroke-linecap="round"/>
<line xmlns="http://www.w3.org/2000/svg" stroke-width="0.432002" y1="5.976" x1="10.43" class="other" x2="12.23" y2="0.216" stroke="#000000" stroke-linecap="round"/>
<line xmlns="http://www.w3.org/2000/svg" stroke-width="0.432002" y1="0.216" x1="12.23" class="other" x2="14.03" y2="5.976" stroke="#000000" stroke-linecap="round"/>
<line xmlns="http://www.w3.org/2000/svg" stroke-width="0.432002" y1="5.976" x1="14.03" class="other" x2="15.8301" y2="0.216" stroke="#000000" stroke-linecap="round"/>
<line xmlns="http://www.w3.org/2000/svg" stroke-width="0.432002" y1="0.216" x1="15.8301" class="other" x2="17.6301" y2="5.976" stroke="#000000" stroke-linecap="round"/>
<line xmlns="http://www.w3.org/2000/svg" stroke-width="0.432002" y1="5.976" x1="17.6301" class="other" x2="19.4301" y2="0.216" stroke="#000000" stroke-linecap="round"/>
<line xmlns="http://www.w3.org/2000/svg" stroke-width="0.432002" y1="0.216" x1="19.4301" class="other" x2="21.2301" y2="5.976" stroke="#000000" stroke-linecap="round"/>
<line xmlns="http://www.w3.org/2000/svg" stroke-width="0.432002" y1="5.976" x1="21.2301" class="other" x2="21.9501" y2="3.096" stroke="#000000" stroke-linecap="round"/>
<line xmlns="http://www.w3.org/2000/svg" stroke-width="0.700001" y1="3.096" connectorname="2" x1="29.1502" class="pin" x2="21.9501" y2="3.096" stroke="#787878" stroke-linecap="round" id="connector1pin"/>
<g xmlns="http://www.w3.org/2000/svg" y="3.096" stroke-width="0" x="29.1502" class="terminal" fill="none" height="0.000283465" width="0.000283466" stroke="none" id="connector1terminal"/>
<text xmlns="http://www.w3.org/2000/svg" y="2.046" stroke-width="0" font-family="'Droid Sans'" x="25.5501" class="text" fill="#8c8c8c" text-anchor="middle" stroke="none" font-size="2.50001">2</text>
<line xmlns="http://www.w3.org/2000/svg" stroke-width="0.700001" y1="3.096" connectorname="1" x1="0.350001" class="pin" x2="7.55002" y2="3.096" stroke="#787878" stroke-linecap="round" id="connector0pin"/>
<g xmlns="http://www.w3.org/2000/svg" y="3.096" stroke-width="0" x="0.350001" class="terminal" fill="none" height="0.000283465" width="0.000283466" stroke="none" id="connector0terminal"/>
<text xmlns="http://www.w3.org/2000/svg" y="2.046" stroke-width="0" font-family="'Droid Sans'" x="3.95001" class="text" fill="#8c8c8c" text-anchor="middle" stroke="none" font-size="2.50001">1</text>
</g>
</g></g><g partID='58400'><g transform='translate(264.02,132.24)' ><g transform='matrix(1,0,0,-1,0,0)'  ><g xmlns="http://www.w3.org/2000/svg" id="schematic">
<rect xmlns="http://www.w3.org/2000/svg" y="0.45" stroke-width="0.9" x="14.85" class="interior rect" fill="#FFFFFF" height="78.3" width="63.9" stroke="#000000" stroke-linecap="round"/>
<g xmlns="http://www.w3.org/2000/svg" stroke-width="0" font-family="'Droid Sans'" stroke="none" stroke-linecap="round">
<g xmlns="http://www.w3.org/2000/svg" fill="none" font-size="3.49999" id="pins">
<g xmlns="http://www.w3.org/2000/svg" text-anchor="start" id="pins-left">
<line xmlns="http://www.w3.org/2000/svg" stroke-width="0.699999" y1="14.4" x1="0.349999" x2="14.75" y2="14.4" stroke="#787878" id="connector0pin"/>
<text xmlns="http://www.w3.org/2000/svg" y="15.0999" x="16.15" fill="#8c8c8c">RST</text>
<g xmlns="http://www.w3.org/2000/svg" y="14.0499" x="-0.349999" height="0.699999" width="0.699999" id="connector0terminal"/>
<line xmlns="http://www.w3.org/2000/svg" stroke-width="0.699999" y1="21.6" x1="0.349999" x2="14.75" y2="21.6" stroke="#787878" id="connector1pin"/>
<text xmlns="http://www.w3.org/2000/svg" y="22.2999" x="16.15" fill="#8c8c8c">A0</text>
<g xmlns="http://www.w3.org/2000/svg" y="21.2499" x="-0.349999" height="0.699999" width="0.699999" id="connector1terminal"/>
<line xmlns="http://www.w3.org/2000/svg" stroke-width="0.699999" y1="28.8" x1="0.349999" x2="14.75" y2="28.8" stroke="#787878" id="connector2pin"/>
<text xmlns="http://www.w3.org/2000/svg" y="29.4999" x="16.15" fill="#8c8c8c">D0</text>
<g xmlns="http://www.w3.org/2000/svg" y="28.4499" x="-0.349999" height="0.699999" width="0.699999" id="connector2terminal"/>
<line xmlns="http://www.w3.org/2000/svg" stroke-width="0.699999" y1="36" x1="0.349999" x2="14.75" y2="36" stroke="#787878" id="connector3pin"/>
<text xmlns="http://www.w3.org/2000/svg" y="36.6999" x="16.15" fill="#8c8c8c">D5</text>
<g xmlns="http://www.w3.org/2000/svg" y="35.6499" x="-0.349999" height="0.699999" width="0.699999" id="connector3terminal"/>
<line xmlns="http://www.w3.org/2000/svg" stroke-width="0.699999" y1="43.2" x1="0.349999" x2="14.75" y2="43.2" stroke="#787878" id="connector4pin"/>
<text xmlns="http://www.w3.org/2000/svg" y="43.8999" x="16.15" fill="#8c8c8c">D6</text>
<g xmlns="http://www.w3.org/2000/svg" y="42.8499" x="-0.349999" height="0.699999" width="0.699999" id="connector4terminal"/>
<line xmlns="http://www.w3.org/2000/svg" stroke-width="0.699999" y1="50.4" x1="0.349999" x2="14.75" y2="50.4" stroke="#787878" id="connector5pin"/>
<text xmlns="http://www.w3.org/2000/svg" y="51.0999" x="16.15" fill="#8c8c8c">D7</text>
<g xmlns="http://www.w3.org/2000/svg" y="50.0499" x="-0.349999" height="0.699999" width="0.699999" id="connector5terminal"/>
<line xmlns="http://www.w3.org/2000/svg" stroke-width="0.699999" y1="57.6" x1="0.349999" x2="14.75" y2="57.6" stroke="#787878" id="connector6pin"/>
<text xmlns="http://www.w3.org/2000/svg" y="58.2999" x="16.15" fill="#8c8c8c">D8</text>
<g xmlns="http://www.w3.org/2000/svg" y="57.2499" x="-0.349999" height="0.699999" width="0.699999" id="connector6terminal"/>
<line xmlns="http://www.w3.org/2000/svg" stroke-width="0.699999" y1="64.8" x1="0.349999" x2="14.75" y2="64.8" stroke="#787878" id="connector7pin"/>
<text xmlns="http://www.w3.org/2000/svg" y="65.4999" x="16.15" fill="#8c8c8c">3V3</text>
<g xmlns="http://www.w3.org/2000/svg" y="64.4499" x="-0.349999" height="0.699999" width="0.699999" id="connector7terminal"/>
</g>
<g xmlns="http://www.w3.org/2000/svg" text-anchor="end" id="right">
<line xmlns="http://www.w3.org/2000/svg" stroke-width="0.699999" y1="64.8" x1="78.8499" x2="93.2499" y2="64.8" stroke="#787878" id="connector8pin"/>
<text xmlns="http://www.w3.org/2000/svg" y="65.4999" x="77.4499" fill="#8c8c8c">5V</text>
<g xmlns="http://www.w3.org/2000/svg" y="64.4499" x="93.2499" height="0.699999" width="0.699999" id="connector8terminal"/>
<line xmlns="http://www.w3.org/2000/svg" stroke-width="0.699999" y1="57.6" x1="78.8499" x2="93.2499" y2="57.6" stroke="#787878" id="connector9pin"/>
<text xmlns="http://www.w3.org/2000/svg" y="58.2999" x="77.4499" fill="#8c8c8c">G</text>
<g xmlns="http://www.w3.org/2000/svg" y="57.2499" x="93.2499" height="0.699999" width="0.699999" id="connector9terminal"/>
<line xmlns="http://www.w3.org/2000/svg" stroke-width="0.699999" y1="50.4" x1="78.8499" x2="93.2499" y2="50.4" stroke="#787878" id="connector10pin"/>
<text xmlns="http://www.w3.org/2000/svg" y="51.0999" x="77.4499" fill="#8c8c8c">D4</text>
<g xmlns="http://www.w3.org/2000/svg" y="50.0499" x="93.2499" height="0.699999" width="0.699999" id="connector10terminal"/>
<line xmlns="http://www.w3.org/2000/svg" stroke-width="0.699999" y1="43.2" x1="78.8499" x2="93.2499" y2="43.2" stroke="#787878" id="connector11pin"/>
<text xmlns="http://www.w3.org/2000/svg" y="43.8999" x="77.4499" fill="#8c8c8c">D3</text>
<g xmlns="http://www.w3.org/2000/svg" y="42.8499" x="93.2499" height="0.699999" width="0.699999" id="connector11terminal"/>
<line xmlns="http://www.w3.org/2000/svg" stroke-width="0.699999" y1="36" x1="78.8499" x2="93.2499" y2="36" stroke="#787878" id="connector12pin"/>
<text xmlns="http://www.w3.org/2000/svg" y="36.6999" x="77.4499" fill="#8c8c8c">D2</text>
<g xmlns="http://www.w3.org/2000/svg" y="35.6499" x="93.2499" height="0.699999" width="0.699999" id="connector12terminal"/>
<line xmlns="http://www.w3.org/2000/svg" stroke-width="0.699999" y1="28.8" x1="78.8499" x2="93.2499" y2="28.8" stroke="#787878" id="connector13pin"/>
<text xmlns="http://www.w3.org/2000/svg" y="29.4999" x="77.4499" fill="#8c8c8c">D1</text>
<g xmlns="http://www.w3.org/2000/svg" y="28.4499" x="93.2499" height="0.699999" width="0.699999" id="connector13terminal"/>
<line xmlns="http://www.w3.org/2000/svg" stroke-width="0.699999" y1="21.6" x1="78.8499" x2="93.2499" y2="21.6" stroke="#787878" id="connector14pin"/>
<text xmlns="http://www.w3.org/2000/svg" y="22.2999" x="77.4499" fill="#8c8c8c">RX</text>
<g xmlns="http://www.w3.org/2000/svg" y="21.2499" x="93.2499" height="0.699999" width="0.699999" id="connector14terminal"/>
<line xmlns="http://www.w3.org/2000/svg" stroke-width="0.699999" y1="14.4" x1="78.8499" x2="93.2499" y2="14.4" stroke="#787878" id="connector15pin"/>
<text xmlns="http://www.w3.org/2000/svg" y="15.0999" x="77.4499" fill="#8c8c8c">TX</text>
<g xmlns="http://www.w3.org/2000/svg" y="14.0499" x="93.2499" height="0.699999" width="0.699999" id="connector15terminal"/>
</g>
</g>
<text xmlns="http://www.w3.org/2000/svg" y="39.685" x="46.8283" fill="#000000" text-anchor="middle" font-size="4.25001" id="label">WeMos D1 mini</text>
</g>
</g>
</g></g></g><g partID='58780'><g transform='translate(176.42,77.66)' ><g transform='matrix(0,1,1,0,0,0)'  ><g xmlns="http://www.w3.org/2000/svg" id="schematic">
<path xmlns="http://www.w3.org/2000/svg" d="M18.565,15.1c-0.193,0,-0.35,-0.157,-0.35,-0.35l0,-7.2c0,-0.193,0.157,-0.35,0.35,-0.35s0.35,0.157,0.35,0.35l0,7.2C18.916,14.943,18.758,15.1,18.565,15.1z"/>
<path xmlns="http://www.w3.org/2000/svg" fill="none" d="M18.565,7.55L18.565,7.55L18.565,7.55z"/>
<path xmlns="http://www.w3.org/2000/svg" d="M32.963,15.1c-0.192,0,-0.351,-0.157,-0.351,-0.35L32.612,7.9L4.515,7.9l0,6.85c0,0.193,-0.157,0.35,-0.35,0.35s-0.35,-0.157,-0.35,-0.35L3.815,7.2l29.499,0l0,7.55C33.313,14.943,33.155,15.1,32.963,15.1z"/>
<path xmlns="http://www.w3.org/2000/svg" d="M36.563,15.1l-3.603,0c-0.192,0,-0.351,-0.157,-0.351,-0.35s0.156,-0.35,0.351,-0.35l3.603,0c0.192,0,0.352,0.157,0.352,0.35S36.758,15.1,36.563,15.1z"/>
<path xmlns="http://www.w3.org/2000/svg" d="M32.963,15.1l-3.598,0c-0.193,0,-0.351,-0.157,-0.351,-0.35s0.154,-0.35,0.351,-0.35l3.598,0c0.192,0,0.351,0.157,0.351,0.35S33.155,15.1,32.963,15.1z"/>
<polygon xmlns="http://www.w3.org/2000/svg" fill="#FFFFFF" points="36.563,21.951,32.963,21.951,29.365,21.951,32.963,14.75"/>
<path xmlns="http://www.w3.org/2000/svg" d="M37.131,22.3l-8.332,0l4.164,-8.333L37.131,22.3zM29.933,21.599l6.065,0l-3.035,-6.066L29.933,21.599z"/>
<path xmlns="http://www.w3.org/2000/svg" d="M32.963,22.175c-0.124,0,-0.226,-0.103,-0.226,-0.225L32.737,14.75c0,-0.124,0.102,-0.225,0.226,-0.225s0.226,0.101,0.226,0.225l0,7.201C33.188,22.074,33.087,22.175,32.963,22.175z"/>
<path xmlns="http://www.w3.org/2000/svg" d="M37.582,16.414c-0.06,0,-0.115,-0.021,-0.159,-0.063c-0.088,-0.088,-0.088,-0.229,0,-0.316l2.34,-2.341c0.088,-0.088,0.229,-0.088,0.318,0c0.088,0.088,0.088,0.23,0,0.318L37.74,16.35C37.696,16.392,37.64,16.414,37.582,16.414z"/>
<path xmlns="http://www.w3.org/2000/svg" d="M37.224,13.176c-0.059,0,-0.115,-0.022,-0.158,-0.066c-0.09,-0.088,-0.09,-0.23,0,-0.318l2.341,-2.34c0.088,-0.088,0.229,-0.088,0.315,0c0.088,0.088,0.088,0.23,0,0.318l-2.34,2.34C37.338,13.154,37.278,13.176,37.224,13.176z"/>
<path xmlns="http://www.w3.org/2000/svg" d="M41.542,12.231l-1.08,2.52l-1.438,-1.439L41.542,12.231z"/>
<path xmlns="http://www.w3.org/2000/svg" d="M41.183,8.991l-1.078,2.52l-1.438,-1.438L41.183,8.991z"/>
<path xmlns="http://www.w3.org/2000/svg" d="M22.165,15.1l-3.599,0c-0.193,0,-0.35,-0.157,-0.35,-0.35s0.157,-0.35,0.35,-0.35l3.599,0c0.193,0,0.35,0.157,0.35,0.35S22.358,15.1,22.165,15.1z"/>
<path xmlns="http://www.w3.org/2000/svg" d="M18.565,15.1l-3.601,0c-0.193,0,-0.35,-0.157,-0.35,-0.35s0.157,-0.35,0.35,-0.35l3.601,0c0.193,0,0.35,0.157,0.35,0.35S18.758,15.1,18.565,15.1z"/>
<polygon xmlns="http://www.w3.org/2000/svg" fill="#FFFFFF" points="22.165,21.951,18.565,21.951,14.964,21.951,18.565,14.75"/>
<path xmlns="http://www.w3.org/2000/svg" d="M22.731,22.3l-8.333,0l4.167,-8.333L22.731,22.3zM15.53,21.599l6.067,0l-3.033,-6.066L15.53,21.599z"/>
<path xmlns="http://www.w3.org/2000/svg" d="M18.565,22.175c-0.124,0,-0.225,-0.103,-0.225,-0.225L18.34,14.75c0,-0.124,0.101,-0.225,0.225,-0.225s0.225,0.101,0.225,0.225l0,7.201C18.791,22.074,18.689,22.175,18.565,22.175z"/>
<path xmlns="http://www.w3.org/2000/svg" d="M23.183,16.414c-0.058,0,-0.113,-0.021,-0.158,-0.063c-0.088,-0.088,-0.088,-0.229,0,-0.316l2.343,-2.341c0.088,-0.088,0.229,-0.088,0.315,0c0.09,0.088,0.09,0.23,0,0.318l-2.341,2.339C23.298,16.392,23.24,16.414,23.183,16.414z"/>
<path xmlns="http://www.w3.org/2000/svg" d="M22.821,13.176c-0.057,0,-0.114,-0.022,-0.159,-0.066c-0.088,-0.088,-0.088,-0.23,0,-0.318l2.34,-2.34c0.088,-0.088,0.229,-0.088,0.317,0c0.088,0.088,0.088,0.23,0,0.318l-2.34,2.34C22.938,13.154,22.88,13.176,22.821,13.176z"/>
<path xmlns="http://www.w3.org/2000/svg" d="M27.144,12.231l-1.08,2.52l-1.438,-1.439L27.144,12.231z"/>
<path xmlns="http://www.w3.org/2000/svg" d="M26.783,8.991l-1.08,2.52l-1.438,-1.438L26.783,8.991z"/>
<path xmlns="http://www.w3.org/2000/svg" d="M7.766,15.1L4.165,15.1c-0.193,0,-0.35,-0.157,-0.35,-0.35s0.157,-0.35,0.35,-0.35l3.601,0c0.193,0,0.35,0.157,0.35,0.35S7.959,15.1,7.766,15.1z"/>
<path xmlns="http://www.w3.org/2000/svg" d="M4.165,15.1L0.566,15.1c-0.193,0,-0.35,-0.157,-0.35,-0.35s0.157,-0.35,0.35,-0.35l3.599,0c0.193,0,0.35,0.157,0.35,0.35S4.359,15.1,4.165,15.1z"/>
<polygon xmlns="http://www.w3.org/2000/svg" fill="#FFFFFF" points="7.766,21.951,4.165,21.951,0.566,21.951,4.165,14.75"/>
<path xmlns="http://www.w3.org/2000/svg" d="M8.332,22.3L0,22.3l4.166,-8.333L8.332,22.3zM1.133,21.599L7.2,21.599l-3.034,-6.066L1.133,21.599z"/>
<path xmlns="http://www.w3.org/2000/svg" d="M4.165,22.175c-0.124,0,-0.225,-0.103,-0.225,-0.225L3.94,14.75c0,-0.124,0.101,-0.225,0.225,-0.225S4.39,14.626,4.39,14.75l0,7.201C4.39,22.074,4.289,22.175,4.165,22.175z"/>
<path xmlns="http://www.w3.org/2000/svg" d="M8.783,16.414c-0.058,0,-0.115,-0.021,-0.159,-0.063c-0.088,-0.088,-0.088,-0.229,0,-0.316l2.339,-2.341c0.088,-0.088,0.23,-0.088,0.318,0c0.088,0.088,0.088,0.23,0,0.318L8.942,16.35C8.898,16.392,8.841,16.414,8.783,16.414z"/>
<path xmlns="http://www.w3.org/2000/svg" d="M8.422,13.176c-0.058,0,-0.115,-0.022,-0.159,-0.066c-0.087,-0.088,-0.087,-0.23,0,-0.318l2.341,-2.34c0.088,-0.088,0.23,-0.088,0.318,0c0.088,0.088,0.088,0.23,0,0.318l-2.341,2.34C8.537,13.154,8.48,13.176,8.422,13.176z"/>
<path xmlns="http://www.w3.org/2000/svg" d="M12.743,12.231l-1.08,2.52l-1.439,-1.439L12.743,12.231z"/>
<path xmlns="http://www.w3.org/2000/svg" d="M12.382,8.991l-1.08,2.52l-1.438,-1.438L12.382,8.991z"/>
<g xmlns="http://www.w3.org/2000/svg">
<path xmlns="http://www.w3.org/2000/svg" fill="#787878" d="M32.964,29.5c-0.193,0,-0.35,-0.155,-0.35,-0.35l0,-7.199c0,-0.193,0.156,-0.352,0.35,-0.352c0.194,0,0.35,0.156,0.35,0.352l0,7.199C33.313,29.343,33.157,29.5,32.964,29.5z" id="connector2pin"/>
<g xmlns="http://www.w3.org/2000/svg" y="27.167" x="32.663" fill="none" height="2.396" width="0.75" id="connector2terminal"/>
<path xmlns="http://www.w3.org/2000/svg" fill="#787878" d="M18.567,7.9c-0.193,0,-0.35,-0.157,-0.35,-0.35l0,-7.2c0,-0.193,0.157,-0.35,0.35,-0.35s0.35,0.157,0.35,0.35l0,7.2C18.917,7.744,18.76,7.9,18.567,7.9z" id="connector1pin"/>
<g xmlns="http://www.w3.org/2000/svg" x="18.205" fill="none" height="2.399" width="0.75" id="connector1terminal"/>
<path xmlns="http://www.w3.org/2000/svg" fill="#787878" d="M18.566,29.5c-0.193,0,-0.35,-0.155,-0.35,-0.35l0,-7.199c0,-0.193,0.157,-0.352,0.35,-0.352s0.35,0.156,0.35,0.352l0,7.199C18.916,29.343,18.759,29.5,18.566,29.5z" id="connector3pin"/>
<g xmlns="http://www.w3.org/2000/svg" y="27.167" x="18.163" fill="none" height="2.396" width="0.75" id="connector3terminal"/>
<path xmlns="http://www.w3.org/2000/svg" fill="#787878" d="M4.165,29.5c-0.193,0,-0.35,-0.155,-0.35,-0.35l0,-7.199c0,-0.193,0.157,-0.352,0.35,-0.352s0.35,0.156,0.35,0.352l0,7.199C4.515,29.343,4.359,29.5,4.165,29.5z" id="connector0pin"/>
<g xmlns="http://www.w3.org/2000/svg" y="27.167" x="3.726" fill="none" height="2.396" width="0.75" id="connector0terminal"/>
</g>
</g>
</g></g></g><g partID='62550'><g transform='translate(401.153,98.699)' ><g transform='matrix(0,1,-1,0,0,0)'  ><g xmlns="http://www.w3.org/2000/svg" id="schematic">
<line xmlns="http://www.w3.org/2000/svg" stroke-width="0.7" y1="9.333" x1="4.741" fill="none" x2="4.741" y2="7.534" stroke="#000000" stroke-linecap="round"/>
<line xmlns="http://www.w3.org/2000/svg" stroke-width="0.7" y1="21.934" x1="4.741" fill="none" x2="1.142" y2="9.333" stroke="#000000" stroke-linecap="round"/>
<circle xmlns="http://www.w3.org/2000/svg" cy="21.934" stroke-width="0.7" fill="none" cx="4.741" stroke="#000000" r="0.36"/>
<circle xmlns="http://www.w3.org/2000/svg" cy="7.534" stroke-width="0.7" fill="none" cx="4.741" stroke="#000000" r="0.36"/>
<line xmlns="http://www.w3.org/2000/svg" stroke-width="0.7" y1="29.135" x1="4.741" fill="none" x2="4.741" y2="21.934" stroke="#555555" stroke-linecap="round" id="connector0pin"/>
<g xmlns="http://www.w3.org/2000/svg" y="29.134" x="4.74" fill="none" height="0.001" width="0.002" id="connector0terminal"/>
<line xmlns="http://www.w3.org/2000/svg" stroke-width="0.7" y1="0.333" x1="4.741" fill="none" x2="4.741" y2="7.534" stroke="#555555" stroke-linecap="round" id="connector1pin"/>
<g xmlns="http://www.w3.org/2000/svg" y="0.333" x="4.741" fill="none" height="0.001" width="0" id="connector1terminal"/>
</g>
</g></g></g><g partID='62530'><g transform='translate(408.353,91.499)' ><g transform='matrix(0,1,-1,0,0,0)'  ><g xmlns="http://www.w3.org/2000/svg" id="schematic">
<line xmlns="http://www.w3.org/2000/svg" stroke-width="0.7" y1="9.333" x1="4.741" fill="none" x2="4.741" y2="7.534" stroke="#000000" stroke-linecap="round"/>
<line xmlns="http://www.w3.org/2000/svg" stroke-width="0.7" y1="21.934" x1="4.741" fill="none" x2="1.142" y2="9.333" stroke="#000000" stroke-linecap="round"/>
<circle xmlns="http://www.w3.org/2000/svg" cy="21.934" stroke-width="0.7" fill="none" cx="4.741" stroke="#000000" r="0.36"/>
<circle xmlns="http://www.w3.org/2000/svg" cy="7.534" stroke-width="0.7" fill="none" cx="4.741" stroke="#000000" r="0.36"/>
<line xmlns="http://www.w3.org/2000/svg" stroke-width="0.7" y1="29.135" x1="4.741" fill="none" x2="4.741" y2="21.934" stroke="#555555" stroke-linecap="round" id="connector0pin"/>
<g xmlns="http://www.w3.org/2000/svg" y="29.134" x="4.74" fill="none" height="0.001" width="0.002" id="connector0terminal"/>
<line xmlns="http://www.w3.org/2000/svg" stroke-width="0.7" y1="0.333" x1="4.741" fill="none" x2="4.741" y2="7.534" stroke="#555555" stroke-linecap="round" id="connector1pin"/>
<g xmlns="http://www.w3.org/2000/svg" y="0.333" x="4.741" fill="none" height="0.001" width="0" id="connector1terminal"/>
</g>
</g></g></g><g partID='62510'><g transform='translate(415.553,84.299)' ><g transform='matrix(0,1,-1,0,0,0)'  ><g xmlns="http://www.w3.org/2000/svg" id="schematic">
<line xmlns="http://www.w3.org/2000/svg" stroke-width="0.7" y1="9.333" x1="4.741" fill="none" x2="4.741" y2="7.534" stroke="#000000" stroke-linecap="round"/>
<line xmlns="http://www.w3.org/2000/svg" stroke-width="0.7" y1="21.934" x1="4.741" fill="none" x2="1.142" y2="9.333" stroke="#000000" stroke-linecap="round"/>
<circle xmlns="http://www.w3.org/2000/svg" cy="21.934" stroke-width="0.7" fill="none" cx="4.741" stroke="#000000" r="0.36"/>
<circle xmlns="http://www.w3.org/2000/svg" cy="7.534" stroke-width="0.7" fill="none" cx="4.741" stroke="#000000" r="0.36"/>
<line xmlns="http://www.w3.org/2000/svg" stroke-width="0.7" y1="29.135" x1="4.741" fill="none" x2="4.741" y2="21.934" stroke="#555555" stroke-linecap="round" id="connector0pin"/>
<g xmlns="http://www.w3.org/2000/svg" y="29.134" x="4.74" fill="none" height="0.001" width="0.002" id="connector0terminal"/>
<line xmlns="http://www.w3.org/2000/svg" stroke-width="0.7" y1="0.333" x1="4.741" fill="none" x2="4.741" y2="7.534" stroke="#555555" stroke-linecap="round" id="connector1pin"/>
<g xmlns="http://www.w3.org/2000/svg" y="0.333" x="4.741" fill="none" height="0.001" width="0" id="connector1terminal"/>
</g>
</g></g></g><g partID='64880'><g transform='translate(252.079,31.1064)' ><g transform='matrix(1,0,0,1,0,0)'  ><g xmlns="http://www.w3.org/2000/svg" id="schematic">
<line xmlns="http://www.w3.org/2000/svg" stroke-width="0.7" y1="9.333" x1="4.741" fill="none" x2="4.741" y2="7.534" stroke="#000000" stroke-linecap="round"/>
<line xmlns="http://www.w3.org/2000/svg" stroke-width="0.7" y1="21.934" x1="4.741" fill="none" x2="1.142" y2="9.333" stroke="#000000" stroke-linecap="round"/>
<circle xmlns="http://www.w3.org/2000/svg" cy="21.934" stroke-width="0.7" fill="none" cx="4.741" stroke="#000000" r="0.36"/>
<circle xmlns="http://www.w3.org/2000/svg" cy="7.534" stroke-width="0.7" fill="none" cx="4.741" stroke="#000000" r="0.36"/>
<line xmlns="http://www.w3.org/2000/svg" stroke-width="0.7" y1="29.135" x1="4.741" fill="none" x2="4.741" y2="21.934" stroke="#555555" stroke-linecap="round" id="connector0pin"/>
<g xmlns="http://www.w3.org/2000/svg" y="29.134" x="4.74" fill="none" height="0.001" width="0.002" id="connector0terminal"/>
<line xmlns="http://www.w3.org/2000/svg" stroke-width="0.7" y1="0.333" x1="4.741" fill="none" x2="4.741" y2="7.534" stroke="#555555" stroke-linecap="round" id="connector1pin"/>
<g xmlns="http://www.w3.org/2000/svg" y="0.333" x="4.741" fill="none" height="0.001" width="0" id="connector1terminal"/>
</g>
</g></g></g><g partID='60500'><g transform='translate(422.753,77.099)' ><g transform='matrix(0,1,-1,0,0,0)'  ><g xmlns="http://www.w3.org/2000/svg" id="schematic">
<line xmlns="http://www.w3.org/2000/svg" stroke-width="0.7" y1="9.333" x1="4.741" fill="none" x2="4.741" y2="7.534" stroke="#000000" stroke-linecap="round"/>
<line xmlns="http://www.w3.org/2000/svg" stroke-width="0.7" y1="21.934" x1="4.741" fill="none" x2="1.142" y2="9.333" stroke="#000000" stroke-linecap="round"/>
<circle xmlns="http://www.w3.org/2000/svg" cy="21.934" stroke-width="0.7" fill="none" cx="4.741" stroke="#000000" r="0.36"/>
<circle xmlns="http://www.w3.org/2000/svg" cy="7.534" stroke-width="0.7" fill="none" cx="4.741" stroke="#000000" r="0.36"/>
<line xmlns="http://www.w3.org/2000/svg" stroke-width="0.7" y1="29.135" x1="4.741" fill="none" x2="4.741" y2="21.934" stroke="#555555" stroke-linecap="round" id="connector0pin"/>
<g xmlns="http://www.w3.org/2000/svg" y="29.134" x="4.74" fill="none" height="0.001" width="0.002" id="connector0terminal"/>
<line xmlns="http://www.w3.org/2000/svg" stroke-width="0.7" y1="0.333" x1="4.741" fill="none" x2="4.741" y2="7.534" stroke="#555555" stroke-linecap="round" id="connector1pin"/>
<g xmlns="http://www.w3.org/2000/svg" y="0.333" x="4.741" fill="none" height="0.001" width="0" id="connector1terminal"/>
</g>
</g></g></g><g partID='62240'><g transform='translate(213.212,107.502)' ><g xmlns="http://www.w3.org/2000/svg" id="schematic">
<line xmlns="http://www.w3.org/2000/svg" stroke-width="0.432002" y1="3.096" x1="7.55002" class="other" x2="8.63003" y2="0.216" stroke="#000000" stroke-linecap="round"/>
<line xmlns="http://www.w3.org/2000/svg" stroke-width="0.432002" y1="0.216" x1="8.63003" class="other" x2="10.43" y2="5.976" stroke="#000000" stroke-linecap="round"/>
<line xmlns="http://www.w3.org/2000/svg" stroke-width="0.432002" y1="5.976" x1="10.43" class="other" x2="12.23" y2="0.216" stroke="#000000" stroke-linecap="round"/>
<line xmlns="http://www.w3.org/2000/svg" stroke-width="0.432002" y1="0.216" x1="12.23" class="other" x2="14.03" y2="5.976" stroke="#000000" stroke-linecap="round"/>
<line xmlns="http://www.w3.org/2000/svg" stroke-width="0.432002" y1="5.976" x1="14.03" class="other" x2="15.8301" y2="0.216" stroke="#000000" stroke-linecap="round"/>
<line xmlns="http://www.w3.org/2000/svg" stroke-width="0.432002" y1="0.216" x1="15.8301" class="other" x2="17.6301" y2="5.976" stroke="#000000" stroke-linecap="round"/>
<line xmlns="http://www.w3.org/2000/svg" stroke-width="0.432002" y1="5.976" x1="17.6301" class="other" x2="19.4301" y2="0.216" stroke="#000000" stroke-linecap="round"/>
<line xmlns="http://www.w3.org/2000/svg" stroke-width="0.432002" y1="0.216" x1="19.4301" class="other" x2="21.2301" y2="5.976" stroke="#000000" stroke-linecap="round"/>
<line xmlns="http://www.w3.org/2000/svg" stroke-width="0.432002" y1="5.976" x1="21.2301" class="other" x2="21.9501" y2="3.096" stroke="#000000" stroke-linecap="round"/>
<line xmlns="http://www.w3.org/2000/svg" stroke-width="0.700001" y1="3.096" connectorname="2" x1="29.1502" class="pin" x2="21.9501" y2="3.096" stroke="#787878" stroke-linecap="round" id="connector1pin"/>
<g xmlns="http://www.w3.org/2000/svg" y="3.096" stroke-width="0" x="29.1502" class="terminal" fill="none" height="0.000283465" width="0.000283466" stroke="none" id="connector1terminal"/>
<text xmlns="http://www.w3.org/2000/svg" y="2.046" stroke-width="0" font-family="'Droid Sans'" x="25.5501" class="text" fill="#8c8c8c" text-anchor="middle" stroke="none" font-size="2.50001">2</text>
<line xmlns="http://www.w3.org/2000/svg" stroke-width="0.700001" y1="3.096" connectorname="1" x1="0.350001" class="pin" x2="7.55002" y2="3.096" stroke="#787878" stroke-linecap="round" id="connector0pin"/>
<g xmlns="http://www.w3.org/2000/svg" y="3.096" stroke-width="0" x="0.350001" class="terminal" fill="none" height="0.000283465" width="0.000283466" stroke="none" id="connector0terminal"/>
<text xmlns="http://www.w3.org/2000/svg" y="2.046" stroke-width="0" font-family="'Droid Sans'" x="3.95001" class="text" fill="#8c8c8c" text-anchor="middle" stroke="none" font-size="2.50001">1</text>
</g>
</g></g><g partID='61990'><g transform='translate(213.212,93.1018)' ><g xmlns="http://www.w3.org/2000/svg" id="schematic">
<line xmlns="http://www.w3.org/2000/svg" stroke-width="0.432002" y1="3.096" x1="7.55002" class="other" x2="8.63003" y2="0.216" stroke="#000000" stroke-linecap="round"/>
<line xmlns="http://www.w3.org/2000/svg" stroke-width="0.432002" y1="0.216" x1="8.63003" class="other" x2="10.43" y2="5.976" stroke="#000000" stroke-linecap="round"/>
<line xmlns="http://www.w3.org/2000/svg" stroke-width="0.432002" y1="5.976" x1="10.43" class="other" x2="12.23" y2="0.216" stroke="#000000" stroke-linecap="round"/>
<line xmlns="http://www.w3.org/2000/svg" stroke-width="0.432002" y1="0.216" x1="12.23" class="other" x2="14.03" y2="5.976" stroke="#000000" stroke-linecap="round"/>
<line xmlns="http://www.w3.org/2000/svg" stroke-width="0.432002" y1="5.976" x1="14.03" class="other" x2="15.8301" y2="0.216" stroke="#000000" stroke-linecap="round"/>
<line xmlns="http://www.w3.org/2000/svg" stroke-width="0.432002" y1="0.216" x1="15.8301" class="other" x2="17.6301" y2="5.976" stroke="#000000" stroke-linecap="round"/>
<line xmlns="http://www.w3.org/2000/svg" stroke-width="0.432002" y1="5.976" x1="17.6301" class="other" x2="19.4301" y2="0.216" stroke="#000000" stroke-linecap="round"/>
<line xmlns="http://www.w3.org/2000/svg" stroke-width="0.432002" y1="0.216" x1="19.4301" class="other" x2="21.2301" y2="5.976" stroke="#000000" stroke-linecap="round"/>
<line xmlns="http://www.w3.org/2000/svg" stroke-width="0.432002" y1="5.976" x1="21.2301" class="other" x2="21.9501" y2="3.096" stroke="#000000" stroke-linecap="round"/>
<line xmlns="http://www.w3.org/2000/svg" stroke-width="0.700001" y1="3.096" connectorname="2" x1="29.1502" class="pin" x2="21.9501" y2="3.096" stroke="#787878" stroke-linecap="round" id="connector1pin"/>
<g xmlns="http://www.w3.org/2000/svg" y="3.096" stroke-width="0" x="29.1502" class="terminal" fill="none" height="0.000283465" width="0.000283466" stroke="none" id="connector1terminal"/>
<text xmlns="http://www.w3.org/2000/svg" y="2.046" stroke-width="0" font-family="'Droid Sans'" x="25.5501" class="text" fill="#8c8c8c" text-anchor="middle" stroke="none" font-size="2.50001">2</text>
<line xmlns="http://www.w3.org/2000/svg" stroke-width="0.700001" y1="3.096" connectorname="1" x1="0.350001" class="pin" x2="7.55002" y2="3.096" stroke="#787878" stroke-linecap="round" id="connector0pin"/>
<g xmlns="http://www.w3.org/2000/svg" y="3.096" stroke-width="0" x="0.350001" class="terminal" fill="none" height="0.000283465" width="0.000283466" stroke="none" id="connector0terminal"/>
<text xmlns="http://www.w3.org/2000/svg" y="2.046" stroke-width="0" font-family="'Droid Sans'" x="3.95001" class="text" fill="#8c8c8c" text-anchor="middle" stroke="none" font-size="2.50001">1</text>
</g>
</g></g><g partID='61640'><g transform='translate(213.212,78.7018)' ><g xmlns="http://www.w3.org/2000/svg" id="schematic">
<line xmlns="http://www.w3.org/2000/svg" stroke-width="0.432002" y1="3.096" x1="7.55002" class="other" x2="8.63003" y2="0.216" stroke="#000000" stroke-linecap="round"/>
<line xmlns="http://www.w3.org/2000/svg" stroke-width="0.432002" y1="0.216" x1="8.63003" class="other" x2="10.43" y2="5.976" stroke="#000000" stroke-linecap="round"/>
<line xmlns="http://www.w3.org/2000/svg" stroke-width="0.432002" y1="5.976" x1="10.43" class="other" x2="12.23" y2="0.216" stroke="#000000" stroke-linecap="round"/>
<line xmlns="http://www.w3.org/2000/svg" stroke-width="0.432002" y1="0.216" x1="12.23" class="other" x2="14.03" y2="5.976" stroke="#000000" stroke-linecap="round"/>
<line xmlns="http://www.w3.org/2000/svg" stroke-width="0.432002" y1="5.976" x1="14.03" class="other" x2="15.8301" y2="0.216" stroke="#000000" stroke-linecap="round"/>
<line xmlns="http://www.w3.org/2000/svg" stroke-width="0.432002" y1="0.216" x1="15.8301" class="other" x2="17.6301" y2="5.976" stroke="#000000" stroke-linecap="round"/>
<line xmlns="http://www.w3.org/2000/svg" stroke-width="0.432002" y1="5.976" x1="17.6301" class="other" x2="19.4301" y2="0.216" stroke="#000000" stroke-linecap="round"/>
<line xmlns="http://www.w3.org/2000/svg" stroke-width="0.432002" y1="0.216" x1="19.4301" class="other" x2="21.2301" y2="5.976" stroke="#000000" stroke-linecap="round"/>
<line xmlns="http://www.w3.org/2000/svg" stroke-width="0.432002" y1="5.976" x1="21.2301" class="other" x2="21.9501" y2="3.096" stroke="#000000" stroke-linecap="round"/>
<line xmlns="http://www.w3.org/2000/svg" stroke-width="0.700001" y1="3.096" connectorname="2" x1="29.1502" class="pin" x2="21.9501" y2="3.096" stroke="#787878" stroke-linecap="round" id="connector1pin"/>
<g xmlns="http://www.w3.org/2000/svg" y="3.096" stroke-width="0" x="29.1502" class="terminal" fill="none" height="0.000283465" width="0.000283466" stroke="none" id="connector1terminal"/>
<text xmlns="http://www.w3.org/2000/svg" y="2.046" stroke-width="0" font-family="'Droid Sans'" x="25.5501" class="text" fill="#8c8c8c" text-anchor="middle" stroke="none" font-size="2.50001">2</text>
<line xmlns="http://www.w3.org/2000/svg" stroke-width="0.700001" y1="3.096" connectorname="1" x1="0.350001" class="pin" x2="7.55002" y2="3.096" stroke="#787878" stroke-linecap="round" id="connector0pin"/>
<g xmlns="http://www.w3.org/2000/svg" y="3.096" stroke-width="0" x="0.350001" class="terminal" fill="none" height="0.000283465" width="0.000283466" stroke="none" id="connector0terminal"/>
<text xmlns="http://www.w3.org/2000/svg" y="2.046" stroke-width="0" font-family="'Droid Sans'" x="3.95001" class="text" fill="#8c8c8c" text-anchor="middle" stroke="none" font-size="2.50001">1</text>
</g>
</g></g><g partID='78540'><line stroke-linecap='round' stroke='#404040' x1='264.02' y1='81.8401' x2='256.82' y2='60.2409' stroke-width='0.699998' /></g><g partID='71330'><line stroke-linecap='round' stroke='#404040' x1='364.82' y1='74.64' x2='365.086' y2='17.5043' stroke-width='0.699998' /></g><g partID='71260'><line stroke-linecap='round' stroke='#404040' x1='365.086' y1='17.5043' x2='177.685' y2='17.0544' stroke-width='0.699998' /></g><circle  fill="black" cx="365.086" cy="17.5043" r="1.44" stroke-width="0" stroke="none" /><g partID='71190'><line stroke-linecap='round' stroke='#404040' x1='177.685' y1='17.0544' x2='177.62' y2='96.24' stroke-width='0.699998' /></g><g partID='71120'><line stroke-linecap='round' stroke='#404040' x1='357.619' y1='74.6401' x2='364.82' y2='74.64' stroke-width='0.699998' /></g><circle  fill="black" cx="357.619" cy="74.6401" r="1.44" stroke-width="0" stroke="none" /><g partID='72190'><line stroke-linecap='round' stroke='#404040' x1='264.02' y1='89.0401' x2='242.362' y2='81.798' stroke-width='0.699998' /></g><g partID='72360'><line stroke-linecap='round' stroke='#404040' x1='177.62' y1='96.24' x2='148.819' y2='96.2397' stroke-width='0.699998' /></g><circle  fill="black" cx="148.819" cy="96.2397" r="1.44" stroke-width="0" stroke="none" /><g partID='72580'><line stroke-linecap='round' stroke='#404040' x1='235.258' y1='74.6273' x2='148.819' y2='74.9786' stroke-width='0.699998' /></g><circle  fill="black" cx="148.819" cy="74.9786" r="1.44" stroke-width="0" stroke="none" /><g partID='72510'><line stroke-linecap='round' stroke='#404040' x1='264.02' y1='74.6401' x2='235.258' y2='74.6273' stroke-width='0.699998' /></g><g partID='75120'><line stroke-linecap='round' stroke='#404040' x1='264.02' y1='67.4401' x2='148.819' y2='53.7187' stroke-width='0.699998' /></g><circle  fill="black" cx="264.02" cy="67.4401" r="1.44" stroke-width="0" stroke="none" /><g partID='75240'><line stroke-linecap='round' stroke='#404040' x1='264.02' y1='67.4401' x2='213.62' y2='38.6401' stroke-width='0.699998' /></g><circle  fill="black" cx="264.02" cy="67.4401" r="1.44" stroke-width="0" stroke="none" /><g partID='75350'><line stroke-linecap='round' stroke='#404040' x1='148.819' y1='74.9786' x2='184.819' y2='38.6401' stroke-width='0.699998' /></g><circle  fill="black" cx="148.819" cy="74.9786" r="1.44" stroke-width="0" stroke="none" /><g partID='75500'><line stroke-linecap='round' stroke='#404040' x1='357.619' y1='103.44' x2='372.018' y2='103.44' stroke-width='0.699998' /></g><g partID='75570'><line stroke-linecap='round' stroke='#404040' x1='204.785' y1='81.761' x2='213.562' y2='81.798' stroke-width='0.699998' /></g><g partID='75680'><line stroke-linecap='round' stroke='#404040' x1='213.562' y1='96.198' x2='204.785' y2='96.198' stroke-width='0.699998' /></g><g partID='69400'><line stroke-linecap='round' stroke='#404040' x1='264.02' y1='103.44' x2='242.362' y2='110.598' stroke-width='0.699998' /></g><g partID='65620'><line stroke-linecap='round' stroke='#404040' x1='264.02' y1='96.2401' x2='242.362' y2='96.198' stroke-width='0.699998' /></g><g partID='67350'><line stroke-linecap='round' stroke='#404040' x1='357.619' y1='96.2401' x2='379.218' y2='96.24' stroke-width='0.699998' /></g><g partID='67420'><line stroke-linecap='round' stroke='#404040' x1='357.619' y1='89.0401' x2='386.418' y2='89.04' stroke-width='0.699998' /></g><g partID='67490'><line stroke-linecap='round' stroke='#404040' x1='357.619' y1='81.8401' x2='393.618' y2='81.84' stroke-width='0.699998' /></g><g partID='62260'><line stroke-linecap='round' stroke='#404040' x1='204.785' y1='110.698' x2='213.562' y2='110.598' stroke-width='0.699998' /></g><g partID='83340'><line stroke-linecap='round' stroke='#404040' x1='256.917' y1='16.9424' x2='256.82' y2='31.4399' stroke-width='0.699998' /></g><circle  fill="black" cx="256.82" cy="31.4399" r="1.44" stroke-width="0" stroke="none" /><g partID='83190'><line stroke-linecap='round' stroke='#404040' x1='365.086' y1='17.5043' x2='256.917' y2='16.9424' stroke-width='0.699998' /></g><g partID='83870'><line stroke-linecap='round' stroke='#404040' x1='436.73' y1='74.5388' x2='436.73' y2='103.477' stroke-width='0.699998' /></g><g partID='83680'><line stroke-linecap='round' stroke='#404040' x1='436.73' y1='103.477' x2='400.819' y2='103.44' stroke-width='0.699998' /></g><g partID='83490'><line stroke-linecap='round' stroke='#404040' x1='357.619' y1='74.6401' x2='436.73' y2='74.5388' stroke-width='0.699998' /></g><circle  fill="black" cx="357.619" cy="74.6401" r="1.44" stroke-width="0" stroke="none" /><g partID='84290'><line stroke-linecap='round' stroke='#404040' x1='436.73' y1='96.1725' x2='408.019' y2='96.24' stroke-width='0.699998' /></g><g partID='84060'><line stroke-linecap='round' stroke='#404040' x1='357.619' y1='74.6401' x2='436.73' y2='74.5388' stroke-width='0.699998' /></g><circle  fill="black" cx="357.619" cy="74.6401" r="1.44" stroke-width="0" stroke="none" /><g partID='84520'><line stroke-linecap='round' stroke='#404040' x1='436.73' y1='74.5388' x2='436.73' y2='96.1725' stroke-width='0.699998' /></g><g partID='85020'><line stroke-linecap='round' stroke='#404040' x1='436.73' y1='89.1486' x2='415.219' y2='89.04' stroke-width='0.699998' /></g><g partID='85290'><line stroke-linecap='round' stroke='#404040' x1='436.73' y1='74.5388' x2='436.73' y2='89.1486' stroke-width='0.699998' /></g><g partID='84750'><line stroke-linecap='round' stroke='#404040' x1='357.619' y1='74.6401' x2='436.73' y2='74.5388' stroke-width='0.699998' /></g><circle  fill="black" cx="357.619" cy="74.6401" r="1.44" stroke-width="0" stroke="none" /><g partID='85870'><line stroke-linecap='round' stroke='#404040' x1='436.73' y1='81.8437' x2='422.419' y2='81.84' stroke-width='0.699998' /></g><g partID='85560'><line stroke-linecap='round' stroke='#404040' x1='357.619' y1='74.6401' x2='436.73' y2='74.5388' stroke-width='0.699998' /></g><circle  fill="black" cx="357.619" cy="74.6401" r="1.44" stroke-width="0" stroke="none" /><g partID='86180'><line stroke-linecap='round' stroke='#404040' x1='436.73' y1='74.5388' x2='436.73' y2='81.8437' stroke-width='0.699998' /></g><g partID='120630'><line stroke-linecap='round' stroke='#404040' x1='177.687' y1='96.1725' x2='177.687' y2='16.9424' stroke-width='0.699998' /></g><g partID='121060'><line stroke-linecap='round' stroke='#404040' x1='256.917' y1='16.9424' x2='256.82' y2='31.4399' stroke-width='0.699998' /></g><circle  fill="black" cx="256.82" cy="31.4399" r="1.44" stroke-width="0" stroke="none" /><g partID='120850'><line stroke-linecap='round' stroke='#404040' x1='177.687' y1='16.9424' x2='256.917' y2='16.9424' stroke-width='0.699998' /></g><g partID='120640'><line stroke-linecap='round' stroke='#404040' x1='148.819' y1='96.2397' x2='177.687' y2='96.1725' stroke-width='0.699998' /></g><circle  fill="black" cx="148.819" cy="96.2397" r="1.44" stroke-width="0" stroke="none" /><g partID='58400' id='partLabel'><g transform='translate(357.62,47.44)' ><g font-size='5' font-style='normal' font-weight='normal' fill='#000000' font-family="'DroidSans'" id='schematicLabel' fill-opacity='1' stroke='none' ><text x='0' y='3.75'>WeMos D1 Mini1</text></g></g></g><g partID='62550' id='partLabel'><g transform='translate(406.753,105.315)' ><g transform='matrix(0,1,-1,0,0,0)'  ><g font-size='5' font-style='normal' font-weight='normal' fill='#000000' font-family="'DroidSans'" id='schematicLabel' fill-opacity='1' stroke='none' ><text x='0' y='3.75'>S1 - Red</text></g></g></g></g><g partID='64880' id='partLabel'><g transform='translate(258.695,25.5064)' ><g transform='matrix(1,0,0,1,0,0)'  ><g font-size='5' font-style='normal' font-weight='normal' fill='#000000' font-family="'DroidSans'" id='schematicLabel' fill-opacity='1' stroke='none' ><text x='0' y='3.75'>S5 - 16mm Silver</text></g></g></g></g><g partID='60500' id='partLabel'><g transform='translate(428.353,83.715)' ><g transform='matrix(0,1,-1,0,0,0)'  ><g font-size='5' font-style='normal' font-weight='normal' fill='#000000' font-family="'DroidSans'" id='schematicLabel' fill-opacity='1' stroke='none' ><text x='0' y='3.75'>S4 - White</text></g></g></g></g><g partID='62530' id='partLabel'><g transform='translate(413.953,98.115)' ><g transform='matrix(0,1,-1,0,0,0)'  ><g font-size='5' font-style='normal' font-weight='normal' fill='#000000' font-family="'DroidSans'" id='schematicLabel' fill-opacity='1' stroke='none' ><text x='0' y='3.75'>S2 - Green</text></g></g></g></g><g partID='62510' id='partLabel'><g transform='translate(421.153,90.915)' ><g transform='matrix(0,1,-1,0,0,0)'  ><g font-size='5' font-style='normal' font-weight='normal' fill='#000000' font-family="'DroidSans'" id='schematicLabel' fill-opacity='1' stroke='none' ><text x='0' y='3.75'>S3 - Yellow</text></g></g></g></g><g partID='62240' id='partLabel'><g transform='translate(242.712,91.5018)' ><g font-size='5' font-style='normal' font-weight='normal' fill='#000000' font-family="'DroidSans'" id='schematicLabel' fill-opacity='1' stroke='none' ><text x='0' y='3.75'>R3</text><text x='0' y='8.75'>&#xb1;1%</text><text x='0' y='13.75'>5.1k&#x3a9;</text></g></g></g><g partID='61990' id='partLabel'><g transform='translate(242.712,77.1018)' ><g font-size='5' font-style='normal' font-weight='normal' fill='#000000' font-family="'DroidSans'" id='schematicLabel' fill-opacity='1' stroke='none' ><text x='0' y='3.75'>R2</text><text x='0' y='8.75'>&#xb1;1%</text><text x='0' y='13.75'>2k&#x3a9;</text></g></g></g><g partID='61640' id='partLabel'><g transform='translate(242.712,62.7018)' ><g font-size='5' font-style='normal' font-weight='normal' fill='#000000' font-family="'DroidSans'" id='schematicLabel' fill-opacity='1' stroke='none' ><text x='0' y='3.75'>R1</text><text x='0' y='8.75'>&#xb1;1%</text><text x='0' y='13.75'>470&#x3a9;</text></g></g></g><g partID='72330' id='partLabel'><g transform='translate(170.079,0)' ><g font-size='5' font-style='normal' font-weight='normal' fill='#000000' font-family="'DroidSans'" id='schematicLabel' fill-opacity='1' stroke='none' ><text x='0' y='3.75'>DS1</text><text x='0' y='8.75'>DS18B20</text></g></g></g><g partID='75190' id='partLabel'><g transform='translate(213.969,24.344)' ><g font-size='5' font-style='normal' font-weight='normal' fill='#000000' font-family="'DroidSans'" id='schematicLabel' fill-opacity='1' stroke='none' ><text x='0' y='3.75'>R4</text><text x='0' y='8.75'>4.7k&#x3a9;</text></g></g></g><g partID='58780' id='partLabel'><g transform='translate(213.462,79.5945)' ><g font-size='5' font-style='normal' font-weight='normal' fill='#000000' font-family="'DroidSans'" id='schematicLabel' fill-opacity='1' stroke='none' ><text x='0' y='3.75'>LED1</text></g></g></g></svg>