<?xml version='1.0' encoding='UTF-8' standalone='no'?>
<!-- Created with Fritzing (http://www.fritzing.org/) -->
<svg xmlns:svg='http://www.w3.org/2000/svg' xmlns='http://www.w3.org/2000/svg' version='1.2' baseProfile='tiny' x='0in' y='0in' width='3.73116in' height='2.0069in' viewBox='0 0 268.643 144.496' >
<g partID='58400'><g transform='translate(87.5995,101.821)' ><g transform='matrix(1,0,0,-1,0,0)'  ><g id="schematic" xmlns="http://www.w3.org/2000/svg">
<rect class="interior rect" width="63.9" fill="#FFFFFF" y="0.45" stroke-width="0.9" stroke-linecap="round" xmlns="http://www.w3.org/2000/svg" x="14.85" stroke="#000000" height="78.3"/>
<g font-family="'Droid Sans'" stroke-width="0" stroke-linecap="round" xmlns="http://www.w3.org/2000/svg" stroke="none">
<g font-size="3.49999" fill="none" id="pins" xmlns="http://www.w3.org/2000/svg">
<g text-anchor="start" id="pins-left" xmlns="http://www.w3.org/2000/svg">
<line y1="14.4" x2="14.75" y2="14.4" x1="0.349999" stroke-width="0.699999" id="connector0pin" xmlns="http://www.w3.org/2000/svg" stroke="#787878"/>
<text fill="#8c8c8c" y="15.0999" xmlns="http://www.w3.org/2000/svg" x="16.15">RST</text>
<g width="0.699999" y="14.0499" id="connector0terminal" xmlns="http://www.w3.org/2000/svg" x="-0.349999" height="0.699999"/>
<line y1="21.6" x2="14.75" y2="21.6" x1="0.349999" stroke-width="0.699999" id="connector1pin" xmlns="http://www.w3.org/2000/svg" stroke="#787878"/>
<text fill="#8c8c8c" y="22.2999" xmlns="http://www.w3.org/2000/svg" x="16.15">A0</text>
<g width="0.699999" y="21.2499" id="connector1terminal" xmlns="http://www.w3.org/2000/svg" x="-0.349999" height="0.699999"/>
<line y1="28.8" x2="14.75" y2="28.8" x1="0.349999" stroke-width="0.699999" id="connector2pin" xmlns="http://www.w3.org/2000/svg" stroke="#787878"/>
<text fill="#8c8c8c" y="29.4999" xmlns="http://www.w3.org/2000/svg" x="16.15">D0</text>
<g width="0.699999" y="28.4499" id="connector2terminal" xmlns="http://www.w3.org/2000/svg" x="-0.349999" height="0.699999"/>
<line y1="36" x2="14.75" y2="36" x1="0.349999" stroke-width="0.699999" id="connector3pin" xmlns="http://www.w3.org/2000/svg" stroke="#787878"/>
<text fill="#8c8c8c" y="36.6999" xmlns="http://www.w3.org/2000/svg" x="16.15">D5</text>
<g width="0.699999" y="35.6499" id="connector3terminal" xmlns="http://www.w3.org/2000/svg" x="-0.349999" height="0.699999"/>
<line y1="43.2" x2="14.75" y2="43.2" x1="0.349999" stroke-width="0.699999" id="connector4pin" xmlns="http://www.w3.org/2000/svg" stroke="#787878"/>
<text fill="#8c8c8c" y="43.8999" xmlns="http://www.w3.org/2000/svg" x="16.15">D6</text>
<g width="0.699999" y="42.8499" id="connector4terminal" xmlns="http://www.w3.org/2000/svg" x="-0.349999" height="0.699999"/>
<line y1="50.4" x2="14.75" y2="50.4" x1="0.349999" stroke-width="0.699999" id="connector5pin" xmlns="http://www.w3.org/2000/svg" stroke="#787878"/>
<text fill="#8c8c8c" y="51.0999" xmlns="http://www.w3.org/2000/svg" x="16.15">D7</text>
<g width="0.699999" y="50.0499" id="connector5terminal" xmlns="http://www.w3.org/2000/svg" x="-0.349999" height="0.699999"/>
<line y1="57.6" x2="14.75" y2="57.6" x1="0.349999" stroke-width="0.699999" id="connector6pin" xmlns="http://www.w3.org/2000/svg" stroke="#787878"/>
<text fill="#8c8c8c" y="58.2999" xmlns="http://www.w3.org/2000/svg" x="16.15">D8</text>
<g width="0.699999" y="57.2499" id="connector6terminal" xmlns="http://www.w3.org/2000/svg" x="-0.349999" height="0.699999"/>
<line y1="64.8" x2="14.75" y2="64.8" x1="0.349999" stroke-width="0.699999" id="connector7pin" xmlns="http://www.w3.org/2000/svg" stroke="#787878"/>
<text fill="#8c8c8c" y="65.4999" xmlns="http://www.w3.org/2000/svg" x="16.15">3V3</text>
<g width="0.699999" y="64.4499" id="connector7terminal" xmlns="http://www.w3.org/2000/svg" x="-0.349999" height="0.699999"/>
</g>
<g text-anchor="end" id="right" xmlns="http://www.w3.org/2000/svg">
<line y1="64.8" x2="93.2499" y2="64.8" x1="78.8499" stroke-width="0.699999" id="connector8pin" xmlns="http://www.w3.org/2000/svg" stroke="#787878"/>
<text fill="#8c8c8c" y="65.4999" xmlns="http://www.w3.org/2000/svg" x="77.4499">5V</text>
<g width="0.699999" y="64.4499" id="connector8terminal" xmlns="http://www.w3.org/2000/svg" x="93.2499" height="0.699999"/>
<line y1="57.6" x2="93.2499" y2="57.6" x1="78.8499" stroke-width="0.699999" id="connector9pin" xmlns="http://www.w3.org/2000/svg" stroke="#787878"/>
<text fill="#8c8c8c" y="58.2999" xmlns="http://www.w3.org/2000/svg" x="77.4499">G</text>
<g width="0.699999" y="57.2499" id="connector9terminal" xmlns="http://www.w3.org/2000/svg" x="93.2499" height="0.699999"/>
<line y1="50.4" x2="93.2499" y2="50.4" x1="78.8499" stroke-width="0.699999" id="connector10pin" xmlns="http://www.w3.org/2000/svg" stroke="#787878"/>
<text fill="#8c8c8c" y="51.0999" xmlns="http://www.w3.org/2000/svg" x="77.4499">D4</text>
<g width="0.699999" y="50.0499" id="connector10terminal" xmlns="http://www.w3.org/2000/svg" x="93.2499" height="0.699999"/>
<line y1="43.2" x2="93.2499" y2="43.2" x1="78.8499" stroke-width="0.699999" id="connector11pin" xmlns="http://www.w3.org/2000/svg" stroke="#787878"/>
<text fill="#8c8c8c" y="43.8999" xmlns="http://www.w3.org/2000/svg" x="77.4499">D3</text>
<g width="0.699999" y="42.8499" id="connector11terminal" xmlns="http://www.w3.org/2000/svg" x="93.2499" height="0.699999"/>
<line y1="36" x2="93.2499" y2="36" x1="78.8499" stroke-width="0.699999" id="connector12pin" xmlns="http://www.w3.org/2000/svg" stroke="#787878"/>
<text fill="#8c8c8c" y="36.6999" xmlns="http://www.w3.org/2000/svg" x="77.4499">D2</text>
<g width="0.699999" y="35.6499" id="connector12terminal" xmlns="http://www.w3.org/2000/svg" x="93.2499" height="0.699999"/>
<line y1="28.8" x2="93.2499" y2="28.8" x1="78.8499" stroke-width="0.699999" id="connector13pin" xmlns="http://www.w3.org/2000/svg" stroke="#787878"/>
<text fill="#8c8c8c" y="29.4999" xmlns="http://www.w3.org/2000/svg" x="77.4499">D1</text>
<g width="0.699999" y="28.4499" id="connector13terminal" xmlns="http://www.w3.org/2000/svg" x="93.2499" height="0.699999"/>
<line y1="21.6" x2="93.2499" y2="21.6" x1="78.8499" stroke-width="0.699999" id="connector14pin" xmlns="http://www.w3.org/2000/svg" stroke="#787878"/>
<text fill="#8c8c8c" y="22.2999" xmlns="http://www.w3.org/2000/svg" x="77.4499">RX</text>
<g width="0.699999" y="21.2499" id="connector14terminal" xmlns="http://www.w3.org/2000/svg" x="93.2499" height="0.699999"/>
<line y1="14.4" x2="93.2499" y2="14.4" x1="78.8499" stroke-width="0.699999" id="connector15pin" xmlns="http://www.w3.org/2000/svg" stroke="#787878"/>
<text fill="#8c8c8c" y="15.0999" xmlns="http://www.w3.org/2000/svg" x="77.4499">TX</text>
<g width="0.699999" y="14.0499" id="connector15terminal" xmlns="http://www.w3.org/2000/svg" x="93.2499" height="0.699999"/>
</g>
</g>
<text text-anchor="middle" fill="#000000" font-size="4.25001" y="39.685" id="label" xmlns="http://www.w3.org/2000/svg" x="46.8283">WeMos D1 mini</text>
</g>
</g>
</g></g></g><g partID='58780'><g transform='translate(0,47.2415)' ><g transform='matrix(0,1,1,0,0,0)'  ><g id="schematic" xmlns="http://www.w3.org/2000/svg">
<path d="M18.565,15.1c-0.193,0,-0.35,-0.157,-0.35,-0.35l0,-7.2c0,-0.193,0.157,-0.35,0.35,-0.35s0.35,0.157,0.35,0.35l0,7.2C18.916,14.943,18.758,15.1,18.565,15.1z" xmlns="http://www.w3.org/2000/svg"/>
<path d="M18.565,7.55L18.565,7.55L18.565,7.55z" fill="none" xmlns="http://www.w3.org/2000/svg"/>
<path d="M32.963,15.1c-0.192,0,-0.351,-0.157,-0.351,-0.35L32.612,7.9L4.515,7.9l0,6.85c0,0.193,-0.157,0.35,-0.35,0.35s-0.35,-0.157,-0.35,-0.35L3.815,7.2l29.499,0l0,7.55C33.313,14.943,33.155,15.1,32.963,15.1z" xmlns="http://www.w3.org/2000/svg"/>
<path d="M36.563,15.1l-3.603,0c-0.192,0,-0.351,-0.157,-0.351,-0.35s0.156,-0.35,0.351,-0.35l3.603,0c0.192,0,0.352,0.157,0.352,0.35S36.758,15.1,36.563,15.1z" xmlns="http://www.w3.org/2000/svg"/>
<path d="M32.963,15.1l-3.598,0c-0.193,0,-0.351,-0.157,-0.351,-0.35s0.154,-0.35,0.351,-0.35l3.598,0c0.192,0,0.351,0.157,0.351,0.35S33.155,15.1,32.963,15.1z" xmlns="http://www.w3.org/2000/svg"/>
<polygon fill="#FFFFFF" points="36.563,21.951,32.963,21.951,29.365,21.951,32.963,14.75" xmlns="http://www.w3.org/2000/svg"/>
<path d="M37.131,22.3l-8.332,0l4.164,-8.333L37.131,22.3zM29.933,21.599l6.065,0l-3.035,-6.066L29.933,21.599z" xmlns="http://www.w3.org/2000/svg"/>
<path d="M32.963,22.175c-0.124,0,-0.226,-0.103,-0.226,-0.225L32.737,14.75c0,-0.124,0.102,-0.225,0.226,-0.225s0.226,0.101,0.226,0.225l0,7.201C33.188,22.074,33.087,22.175,32.963,22.175z" xmlns="http://www.w3.org/2000/svg"/>
<path d="M37.582,16.414c-0.06,0,-0.115,-0.021,-0.159,-0.063c-0.088,-0.088,-0.088,-0.229,0,-0.316l2.34,-2.341c0.088,-0.088,0.229,-0.088,0.318,0c0.088,0.088,0.088,0.23,0,0.318L37.74,16.35C37.696,16.392,37.64,16.414,37.582,16.414z" xmlns="http://www.w3.org/2000/svg"/>
<path d="M37.224,13.176c-0.059,0,-0.115,-0.022,-0.158,-0.066c-0.09,-0.088,-0.09,-0.23,0,-0.318l2.341,-2.34c0.088,-0.088,0.229,-0.088,0.315,0c0.088,0.088,0.088,0.23,0,0.318l-2.34,2.34C37.338,13.154,37.278,13.176,37.224,13.176z" xmlns="http://www.w3.org/2000/svg"/>
<path d="M41.542,12.231l-1.08,2.52l-1.438,-1.439L41.542,12.231z" xmlns="http://www.w3.org/2000/svg"/>
<path d="M41.183,8.991l-1.078,2.52l-1.438,-1.438L41.183,8.991z" xmlns="http://www.w3.org/2000/svg"/>
<path d="M22.165,15.1l-3.599,0c-0.193,0,-0.35,-0.157,-0.35,-0.35s0.157,-0.35,0.35,-0.35l3.599,0c0.193,0,0.35,0.157,0.35,0.35S22.358,15.1,22.165,15.1z" xmlns="http://www.w3.org/2000/svg"/>
<path d="M18.565,15.1l-3.601,0c-0.193,0,-0.35,-0.157,-0.35,-0.35s0.157,-0.35,0.35,-0.35l3.601,0c0.193,0,0.35,0.157,0.35,0.35S18.758,15.1,18.565,15.1z" xmlns="http://www.w3.org/2000/svg"/>
<polygon fill="#FFFFFF" points="22.165,21.951,18.565,21.951,14.964,21.951,18.565,14.75" xmlns="http://www.w3.org/2000/svg"/>
<path d="M22.731,22.3l-8.333,0l4.167,-8.333L22.731,22.3zM15.53,21.599l6.067,0l-3.033,-6.066L15.53,21.599z" xmlns="http://www.w3.org/2000/svg"/>
<path d="M18.565,22.175c-0.124,0,-0.225,-0.103,-0.225,-0.225L18.34,14.75c0,-0.124,0.101,-0.225,0.225,-0.225s0.225,0.101,0.225,0.225l0,7.201C18.791,22.074,18.689,22.175,18.565,22.175z" xmlns="http://www.w3.org/2000/svg"/>
<path d="M23.183,16.414c-0.058,0,-0.113,-0.021,-0.158,-0.063c-0.088,-0.088,-0.088,-0.229,0,-0.316l2.343,-2.341c0.088,-0.088,0.229,-0.088,0.315,0c0.09,0.088,0.09,0.23,0,0.318l-2.341,2.339C23.298,16.392,23.24,16.414,23.183,16.414z" xmlns="http://www.w3.org/2000/svg"/>
<path d="M22.821,13.176c-0.057,0,-0.114,-0.022,-0.159,-0.066c-0.088,-0.088,-0.088,-0.23,0,-0.318l2.34,-2.34c0.088,-0.088,0.229,-0.088,0.317,0c0.088,0.088,0.088,0.23,0,0.318l-2.34,2.34C22.938,13.154,22.88,13.176,22.821,13.176z" xmlns="http://www.w3.org/2000/svg"/>
<path d="M27.144,12.231l-1.08,2.52l-1.438,-1.439L27.144,12.231z" xmlns="http://www.w3.org/2000/svg"/>
<path d="M26.783,8.991l-1.08,2.52l-1.438,-1.438L26.783,8.991z" xmlns="http://www.w3.org/2000/svg"/>
<path d="M7.766,15.1L4.165,15.1c-0.193,0,-0.35,-0.157,-0.35,-0.35s0.157,-0.35,0.35,-0.35l3.601,0c0.193,0,0.35,0.157,0.35,0.35S7.959,15.1,7.766,15.1z" xmlns="http://www.w3.org/2000/svg"/>
<path d="M4.165,15.1L0.566,15.1c-0.193,0,-0.35,-0.157,-0.35,-0.35s0.157,-0.35,0.35,-0.35l3.599,0c0.193,0,0.35,0.157,0.35,0.35S4.359,15.1,4.165,15.1z" xmlns="http://www.w3.org/2000/svg"/>
<polygon fill="#FFFFFF" points="7.766,21.951,4.165,21.951,0.566,21.951,4.165,14.75" xmlns="http://www.w3.org/2000/svg"/>
<path d="M8.332,22.3L0,22.3l4.166,-8.333L8.332,22.3zM1.133,21.599L7.2,21.599l-3.034,-6.066L1.133,21.599z" xmlns="http://www.w3.org/2000/svg"/>
<path d="M4.165,22.175c-0.124,0,-0.225,-0.103,-0.225,-0.225L3.94,14.75c0,-0.124,0.101,-0.225,0.225,-0.225S4.39,14.626,4.39,14.75l0,7.201C4.39,22.074,4.289,22.175,4.165,22.175z" xmlns="http://www.w3.org/2000/svg"/>
<path d="M8.783,16.414c-0.058,0,-0.115,-0.021,-0.159,-0.063c-0.088,-0.088,-0.088,-0.229,0,-0.316l2.339,-2.341c0.088,-0.088,0.23,-0.088,0.318,0c0.088,0.088,0.088,0.23,0,0.318L8.942,16.35C8.898,16.392,8.841,16.414,8.783,16.414z" xmlns="http://www.w3.org/2000/svg"/>
<path d="M8.422,13.176c-0.058,0,-0.115,-0.022,-0.159,-0.066c-0.087,-0.088,-0.087,-0.23,0,-0.318l2.341,-2.34c0.088,-0.088,0.23,-0.088,0.318,0c0.088,0.088,0.088,0.23,0,0.318l-2.341,2.34C8.537,13.154,8.48,13.176,8.422,13.176z" xmlns="http://www.w3.org/2000/svg"/>
<path d="M12.743,12.231l-1.08,2.52l-1.439,-1.439L12.743,12.231z" xmlns="http://www.w3.org/2000/svg"/>
<path d="M12.382,8.991l-1.08,2.52l-1.438,-1.438L12.382,8.991z" xmlns="http://www.w3.org/2000/svg"/>
<g xmlns="http://www.w3.org/2000/svg">
<path d="M32.964,29.5c-0.193,0,-0.35,-0.155,-0.35,-0.35l0,-7.199c0,-0.193,0.156,-0.352,0.35,-0.352c0.194,0,0.35,0.156,0.35,0.352l0,7.199C33.313,29.343,33.157,29.5,32.964,29.5z" fill="#787878" id="connector2pin" xmlns="http://www.w3.org/2000/svg"/>
<g width="0.75" fill="none" y="27.167" id="connector2terminal" xmlns="http://www.w3.org/2000/svg" x="32.663" height="2.396"/>
<path d="M18.567,7.9c-0.193,0,-0.35,-0.157,-0.35,-0.35l0,-7.2c0,-0.193,0.157,-0.35,0.35,-0.35s0.35,0.157,0.35,0.35l0,7.2C18.917,7.744,18.76,7.9,18.567,7.9z" fill="#787878" id="connector1pin" xmlns="http://www.w3.org/2000/svg"/>
<g width="0.75" fill="none" id="connector1terminal" xmlns="http://www.w3.org/2000/svg" x="18.205" height="2.399"/>
<path d="M18.566,29.5c-0.193,0,-0.35,-0.155,-0.35,-0.35l0,-7.199c0,-0.193,0.157,-0.352,0.35,-0.352s0.35,0.156,0.35,0.352l0,7.199C18.916,29.343,18.759,29.5,18.566,29.5z" fill="#787878" id="connector3pin" xmlns="http://www.w3.org/2000/svg"/>
<g width="0.75" fill="none" y="27.167" id="connector3terminal" xmlns="http://www.w3.org/2000/svg" x="18.163" height="2.396"/>
<path d="M4.165,29.5c-0.193,0,-0.35,-0.155,-0.35,-0.35l0,-7.199c0,-0.193,0.157,-0.352,0.35,-0.352s0.35,0.156,0.35,0.352l0,7.199C4.515,29.343,4.359,29.5,4.165,29.5z" fill="#787878" id="connector0pin" xmlns="http://www.w3.org/2000/svg"/>
<g width="0.75" fill="none" y="27.167" id="connector0terminal" xmlns="http://www.w3.org/2000/svg" x="3.726" height="2.396"/>
</g>
</g>
</g></g></g><g partID='62550'><g transform='translate(224.733,68.2805)' ><g transform='matrix(0,1,-1,0,0,0)'  ><g id="schematic" xmlns="http://www.w3.org/2000/svg">
<line y1="9.333" x2="4.741" y2="7.534" fill="none" x1="4.741" stroke-width="0.7" stroke-linecap="round" xmlns="http://www.w3.org/2000/svg" stroke="#000000"/>
<line y1="21.934" x2="1.142" y2="9.333" fill="none" x1="4.741" stroke-width="0.7" stroke-linecap="round" xmlns="http://www.w3.org/2000/svg" stroke="#000000"/>
<circle cy="21.934" fill="none" cx="4.741" stroke-width="0.7" r="0.36" xmlns="http://www.w3.org/2000/svg" stroke="#000000"/>
<circle cy="7.534" fill="none" cx="4.741" stroke-width="0.7" r="0.36" xmlns="http://www.w3.org/2000/svg" stroke="#000000"/>
<line y1="29.135" x2="4.741" y2="21.934" fill="none" x1="4.741" stroke-width="0.7" stroke-linecap="round" id="connector0pin" xmlns="http://www.w3.org/2000/svg" stroke="#555555"/>
<g width="0.002" fill="none" y="29.134" id="connector0terminal" xmlns="http://www.w3.org/2000/svg" x="4.74" height="0.001"/>
<line y1="0.333" x2="4.741" y2="7.534" fill="none" x1="4.741" stroke-width="0.7" stroke-linecap="round" id="connector1pin" xmlns="http://www.w3.org/2000/svg" stroke="#555555"/>
<g width="0" fill="none" y="0.333" id="connector1terminal" xmlns="http://www.w3.org/2000/svg" x="4.741" height="0.001"/>
</g>
</g></g></g><g partID='62530'><g transform='translate(231.933,61.0805)' ><g transform='matrix(0,1,-1,0,0,0)'  ><g id="schematic" xmlns="http://www.w3.org/2000/svg">
<line y1="9.333" x2="4.741" y2="7.534" fill="none" x1="4.741" stroke-width="0.7" stroke-linecap="round" xmlns="http://www.w3.org/2000/svg" stroke="#000000"/>
<line y1="21.934" x2="1.142" y2="9.333" fill="none" x1="4.741" stroke-width="0.7" stroke-linecap="round" xmlns="http://www.w3.org/2000/svg" stroke="#000000"/>
<circle cy="21.934" fill="none" cx="4.741" stroke-width="0.7" r="0.36" xmlns="http://www.w3.org/2000/svg" stroke="#000000"/>
<circle cy="7.534" fill="none" cx="4.741" stroke-width="0.7" r="0.36" xmlns="http://www.w3.org/2000/svg" stroke="#000000"/>
<line y1="29.135" x2="4.741" y2="21.934" fill="none" x1="4.741" stroke-width="0.7" stroke-linecap="round" id="connector0pin" xmlns="http://www.w3.org/2000/svg" stroke="#555555"/>
<g width="0.002" fill="none" y="29.134" id="connector0terminal" xmlns="http://www.w3.org/2000/svg" x="4.74" height="0.001"/>
<line y1="0.333" x2="4.741" y2="7.534" fill="none" x1="4.741" stroke-width="0.7" stroke-linecap="round" id="connector1pin" xmlns="http://www.w3.org/2000/svg" stroke="#555555"/>
<g width="0" fill="none" y="0.333" id="connector1terminal" xmlns="http://www.w3.org/2000/svg" x="4.741" height="0.001"/>
</g>
</g></g></g><g partID='62510'><g transform='translate(239.133,53.8805)' ><g transform='matrix(0,1,-1,0,0,0)'  ><g id="schematic" xmlns="http://www.w3.org/2000/svg">
<line y1="9.333" x2="4.741" y2="7.534" fill="none" x1="4.741" stroke-width="0.7" stroke-linecap="round" xmlns="http://www.w3.org/2000/svg" stroke="#000000"/>
<line y1="21.934" x2="1.142" y2="9.333" fill="none" x1="4.741" stroke-width="0.7" stroke-linecap="round" xmlns="http://www.w3.org/2000/svg" stroke="#000000"/>
<circle cy="21.934" fill="none" cx="4.741" stroke-width="0.7" r="0.36" xmlns="http://www.w3.org/2000/svg" stroke="#000000"/>
<circle cy="7.534" fill="none" cx="4.741" stroke-width="0.7" r="0.36" xmlns="http://www.w3.org/2000/svg" stroke="#000000"/>
<line y1="29.135" x2="4.741" y2="21.934" fill="none" x1="4.741" stroke-width="0.7" stroke-linecap="round" id="connector0pin" xmlns="http://www.w3.org/2000/svg" stroke="#555555"/>
<g width="0.002" fill="none" y="29.134" id="connector0terminal" xmlns="http://www.w3.org/2000/svg" x="4.74" height="0.001"/>
<line y1="0.333" x2="4.741" y2="7.534" fill="none" x1="4.741" stroke-width="0.7" stroke-linecap="round" id="connector1pin" xmlns="http://www.w3.org/2000/svg" stroke="#555555"/>
<g width="0" fill="none" y="0.333" id="connector1terminal" xmlns="http://www.w3.org/2000/svg" x="4.741" height="0.001"/>
</g>
</g></g></g><g partID='65920'><g transform='translate(51.933,104.28)' ><g transform='matrix(0,1,-1,0,0,0)'  ><g id="schematic" xmlns="http://www.w3.org/2000/svg">
<line y1="9.333" x2="4.741" y2="7.534" fill="none" x1="4.741" stroke-width="0.7" stroke-linecap="round" xmlns="http://www.w3.org/2000/svg" stroke="#000000"/>
<line y1="21.934" x2="1.142" y2="9.333" fill="none" x1="4.741" stroke-width="0.7" stroke-linecap="round" xmlns="http://www.w3.org/2000/svg" stroke="#000000"/>
<circle cy="21.934" fill="none" cx="4.741" stroke-width="0.7" r="0.36" xmlns="http://www.w3.org/2000/svg" stroke="#000000"/>
<circle cy="7.534" fill="none" cx="4.741" stroke-width="0.7" r="0.36" xmlns="http://www.w3.org/2000/svg" stroke="#000000"/>
<line y1="29.135" x2="4.741" y2="21.934" fill="none" x1="4.741" stroke-width="0.7" stroke-linecap="round" id="connector0pin" xmlns="http://www.w3.org/2000/svg" stroke="#555555"/>
<g width="0.002" fill="none" y="29.134" id="connector0terminal" xmlns="http://www.w3.org/2000/svg" x="4.74" height="0.001"/>
<line y1="0.333" x2="4.741" y2="7.534" fill="none" x1="4.741" stroke-width="0.7" stroke-linecap="round" id="connector1pin" xmlns="http://www.w3.org/2000/svg" stroke="#555555"/>
<g width="0" fill="none" y="0.333" id="connector1terminal" xmlns="http://www.w3.org/2000/svg" x="4.741" height="0.001"/>
</g>
</g></g></g><g partID='64880'><g transform='translate(44.733,3.48021)' ><g transform='matrix(0,1,-1,0,0,0)'  ><g id="schematic" xmlns="http://www.w3.org/2000/svg">
<line y1="9.333" x2="4.741" y2="7.534" fill="none" x1="4.741" stroke-width="0.7" stroke-linecap="round" xmlns="http://www.w3.org/2000/svg" stroke="#000000"/>
<line y1="21.934" x2="1.142" y2="9.333" fill="none" x1="4.741" stroke-width="0.7" stroke-linecap="round" xmlns="http://www.w3.org/2000/svg" stroke="#000000"/>
<circle cy="21.934" fill="none" cx="4.741" stroke-width="0.7" r="0.36" xmlns="http://www.w3.org/2000/svg" stroke="#000000"/>
<circle cy="7.534" fill="none" cx="4.741" stroke-width="0.7" r="0.36" xmlns="http://www.w3.org/2000/svg" stroke="#000000"/>
<line y1="29.135" x2="4.741" y2="21.934" fill="none" x1="4.741" stroke-width="0.7" stroke-linecap="round" id="connector0pin" xmlns="http://www.w3.org/2000/svg" stroke="#555555"/>
<g width="0.002" fill="none" y="29.134" id="connector0terminal" xmlns="http://www.w3.org/2000/svg" x="4.74" height="0.001"/>
<line y1="0.333" x2="4.741" y2="7.534" fill="none" x1="4.741" stroke-width="0.7" stroke-linecap="round" id="connector1pin" xmlns="http://www.w3.org/2000/svg" stroke="#555555"/>
<g width="0" fill="none" y="0.333" id="connector1terminal" xmlns="http://www.w3.org/2000/svg" x="4.741" height="0.001"/>
</g>
</g></g></g><g partID='60500'><g transform='translate(246.333,46.6805)' ><g transform='matrix(0,1,-1,0,0,0)'  ><g id="schematic" xmlns="http://www.w3.org/2000/svg">
<line y1="9.333" x2="4.741" y2="7.534" fill="none" x1="4.741" stroke-width="0.7" stroke-linecap="round" xmlns="http://www.w3.org/2000/svg" stroke="#000000"/>
<line y1="21.934" x2="1.142" y2="9.333" fill="none" x1="4.741" stroke-width="0.7" stroke-linecap="round" xmlns="http://www.w3.org/2000/svg" stroke="#000000"/>
<circle cy="21.934" fill="none" cx="4.741" stroke-width="0.7" r="0.36" xmlns="http://www.w3.org/2000/svg" stroke="#000000"/>
<circle cy="7.534" fill="none" cx="4.741" stroke-width="0.7" r="0.36" xmlns="http://www.w3.org/2000/svg" stroke="#000000"/>
<line y1="29.135" x2="4.741" y2="21.934" fill="none" x1="4.741" stroke-width="0.7" stroke-linecap="round" id="connector0pin" xmlns="http://www.w3.org/2000/svg" stroke="#555555"/>
<g width="0.002" fill="none" y="29.134" id="connector0terminal" xmlns="http://www.w3.org/2000/svg" x="4.74" height="0.001"/>
<line y1="0.333" x2="4.741" y2="7.534" fill="none" x1="4.741" stroke-width="0.7" stroke-linecap="round" id="connector1pin" xmlns="http://www.w3.org/2000/svg" stroke="#555555"/>
<g width="0" fill="none" y="0.333" id="connector1terminal" xmlns="http://www.w3.org/2000/svg" x="4.741" height="0.001"/>
</g>
</g></g></g><g partID='62240'><g transform='translate(36.7919,77.0833)' ><g id="schematic" xmlns="http://www.w3.org/2000/svg">
<line y1="3.096" x2="8.63003" class="other" y2="0.216" x1="7.55002" stroke-width="0.432002" stroke-linecap="round" xmlns="http://www.w3.org/2000/svg" stroke="#000000"/>
<line y1="0.216" x2="10.43" class="other" y2="5.976" x1="8.63003" stroke-width="0.432002" stroke-linecap="round" xmlns="http://www.w3.org/2000/svg" stroke="#000000"/>
<line y1="5.976" x2="12.23" class="other" y2="0.216" x1="10.43" stroke-width="0.432002" stroke-linecap="round" xmlns="http://www.w3.org/2000/svg" stroke="#000000"/>
<line y1="0.216" x2="14.03" class="other" y2="5.976" x1="12.23" stroke-width="0.432002" stroke-linecap="round" xmlns="http://www.w3.org/2000/svg" stroke="#000000"/>
<line y1="5.976" x2="15.8301" class="other" y2="0.216" x1="14.03" stroke-width="0.432002" stroke-linecap="round" xmlns="http://www.w3.org/2000/svg" stroke="#000000"/>
<line y1="0.216" x2="17.6301" class="other" y2="5.976" x1="15.8301" stroke-width="0.432002" stroke-linecap="round" xmlns="http://www.w3.org/2000/svg" stroke="#000000"/>
<line y1="5.976" x2="19.4301" class="other" y2="0.216" x1="17.6301" stroke-width="0.432002" stroke-linecap="round" xmlns="http://www.w3.org/2000/svg" stroke="#000000"/>
<line y1="0.216" x2="21.2301" class="other" y2="5.976" x1="19.4301" stroke-width="0.432002" stroke-linecap="round" xmlns="http://www.w3.org/2000/svg" stroke="#000000"/>
<line y1="5.976" x2="21.9501" class="other" y2="3.096" x1="21.2301" stroke-width="0.432002" stroke-linecap="round" xmlns="http://www.w3.org/2000/svg" stroke="#000000"/>
<line y1="3.096" x2="21.9501" class="pin" y2="3.096" connectorname="2" x1="29.1502" stroke-width="0.700001" stroke-linecap="round" id="connector1pin" xmlns="http://www.w3.org/2000/svg" stroke="#787878"/>
<g class="terminal" width="0.000283466" fill="none" y="3.096" stroke-width="0" id="connector1terminal" xmlns="http://www.w3.org/2000/svg" x="29.1502" stroke="none" height="0.000283465"/>
<text class="text" font-family="'Droid Sans'" text-anchor="middle" fill="#8c8c8c" font-size="2.50001" y="2.046" stroke-width="0" xmlns="http://www.w3.org/2000/svg" stroke="none" x="25.5501">2</text>
<line y1="3.096" x2="7.55002" class="pin" y2="3.096" connectorname="1" x1="0.350001" stroke-width="0.700001" stroke-linecap="round" id="connector0pin" xmlns="http://www.w3.org/2000/svg" stroke="#787878"/>
<g class="terminal" width="0.000283466" fill="none" y="3.096" stroke-width="0" id="connector0terminal" xmlns="http://www.w3.org/2000/svg" x="0.350001" stroke="none" height="0.000283465"/>
<text class="text" font-family="'Droid Sans'" text-anchor="middle" fill="#8c8c8c" font-size="2.50001" y="2.046" stroke-width="0" xmlns="http://www.w3.org/2000/svg" stroke="none" x="3.95001">1</text>
</g>
</g></g><g partID='61990'><g transform='translate(36.7919,62.6833)' ><g id="schematic" xmlns="http://www.w3.org/2000/svg">
<line y1="3.096" x2="8.63003" class="other" y2="0.216" x1="7.55002" stroke-width="0.432002" stroke-linecap="round" xmlns="http://www.w3.org/2000/svg" stroke="#000000"/>
<line y1="0.216" x2="10.43" class="other" y2="5.976" x1="8.63003" stroke-width="0.432002" stroke-linecap="round" xmlns="http://www.w3.org/2000/svg" stroke="#000000"/>
<line y1="5.976" x2="12.23" class="other" y2="0.216" x1="10.43" stroke-width="0.432002" stroke-linecap="round" xmlns="http://www.w3.org/2000/svg" stroke="#000000"/>
<line y1="0.216" x2="14.03" class="other" y2="5.976" x1="12.23" stroke-width="0.432002" stroke-linecap="round" xmlns="http://www.w3.org/2000/svg" stroke="#000000"/>
<line y1="5.976" x2="15.8301" class="other" y2="0.216" x1="14.03" stroke-width="0.432002" stroke-linecap="round" xmlns="http://www.w3.org/2000/svg" stroke="#000000"/>
<line y1="0.216" x2="17.6301" class="other" y2="5.976" x1="15.8301" stroke-width="0.432002" stroke-linecap="round" xmlns="http://www.w3.org/2000/svg" stroke="#000000"/>
<line y1="5.976" x2="19.4301" class="other" y2="0.216" x1="17.6301" stroke-width="0.432002" stroke-linecap="round" xmlns="http://www.w3.org/2000/svg" stroke="#000000"/>
<line y1="0.216" x2="21.2301" class="other" y2="5.976" x1="19.4301" stroke-width="0.432002" stroke-linecap="round" xmlns="http://www.w3.org/2000/svg" stroke="#000000"/>
<line y1="5.976" x2="21.9501" class="other" y2="3.096" x1="21.2301" stroke-width="0.432002" stroke-linecap="round" xmlns="http://www.w3.org/2000/svg" stroke="#000000"/>
<line y1="3.096" x2="21.9501" class="pin" y2="3.096" connectorname="2" x1="29.1502" stroke-width="0.700001" stroke-linecap="round" id="connector1pin" xmlns="http://www.w3.org/2000/svg" stroke="#787878"/>
<g class="terminal" width="0.000283466" fill="none" y="3.096" stroke-width="0" id="connector1terminal" xmlns="http://www.w3.org/2000/svg" x="29.1502" stroke="none" height="0.000283465"/>
<text class="text" font-family="'Droid Sans'" text-anchor="middle" fill="#8c8c8c" font-size="2.50001" y="2.046" stroke-width="0" xmlns="http://www.w3.org/2000/svg" stroke="none" x="25.5501">2</text>
<line y1="3.096" x2="7.55002" class="pin" y2="3.096" connectorname="1" x1="0.350001" stroke-width="0.700001" stroke-linecap="round" id="connector0pin" xmlns="http://www.w3.org/2000/svg" stroke="#787878"/>
<g class="terminal" width="0.000283466" fill="none" y="3.096" stroke-width="0" id="connector0terminal" xmlns="http://www.w3.org/2000/svg" x="0.350001" stroke="none" height="0.000283465"/>
<text class="text" font-family="'Droid Sans'" text-anchor="middle" fill="#8c8c8c" font-size="2.50001" y="2.046" stroke-width="0" xmlns="http://www.w3.org/2000/svg" stroke="none" x="3.95001">1</text>
</g>
</g></g><g partID='61640'><g transform='translate(36.7919,48.2833)' ><g id="schematic" xmlns="http://www.w3.org/2000/svg">
<line y1="3.096" x2="8.63003" class="other" y2="0.216" x1="7.55002" stroke-width="0.432002" stroke-linecap="round" xmlns="http://www.w3.org/2000/svg" stroke="#000000"/>
<line y1="0.216" x2="10.43" class="other" y2="5.976" x1="8.63003" stroke-width="0.432002" stroke-linecap="round" xmlns="http://www.w3.org/2000/svg" stroke="#000000"/>
<line y1="5.976" x2="12.23" class="other" y2="0.216" x1="10.43" stroke-width="0.432002" stroke-linecap="round" xmlns="http://www.w3.org/2000/svg" stroke="#000000"/>
<line y1="0.216" x2="14.03" class="other" y2="5.976" x1="12.23" stroke-width="0.432002" stroke-linecap="round" xmlns="http://www.w3.org/2000/svg" stroke="#000000"/>
<line y1="5.976" x2="15.8301" class="other" y2="0.216" x1="14.03" stroke-width="0.432002" stroke-linecap="round" xmlns="http://www.w3.org/2000/svg" stroke="#000000"/>
<line y1="0.216" x2="17.6301" class="other" y2="5.976" x1="15.8301" stroke-width="0.432002" stroke-linecap="round" xmlns="http://www.w3.org/2000/svg" stroke="#000000"/>
<line y1="5.976" x2="19.4301" class="other" y2="0.216" x1="17.6301" stroke-width="0.432002" stroke-linecap="round" xmlns="http://www.w3.org/2000/svg" stroke="#000000"/>
<line y1="0.216" x2="21.2301" class="other" y2="5.976" x1="19.4301" stroke-width="0.432002" stroke-linecap="round" xmlns="http://www.w3.org/2000/svg" stroke="#000000"/>
<line y1="5.976" x2="21.9501" class="other" y2="3.096" x1="21.2301" stroke-width="0.432002" stroke-linecap="round" xmlns="http://www.w3.org/2000/svg" stroke="#000000"/>
<line y1="3.096" x2="21.9501" class="pin" y2="3.096" connectorname="2" x1="29.1502" stroke-width="0.700001" stroke-linecap="round" id="connector1pin" xmlns="http://www.w3.org/2000/svg" stroke="#787878"/>
<g class="terminal" width="0.000283466" fill="none" y="3.096" stroke-width="0" id="connector1terminal" xmlns="http://www.w3.org/2000/svg" x="29.1502" stroke="none" height="0.000283465"/>
<text class="text" font-family="'Droid Sans'" text-anchor="middle" fill="#8c8c8c" font-size="2.50001" y="2.046" stroke-width="0" xmlns="http://www.w3.org/2000/svg" stroke="none" x="25.5501">2</text>
<line y1="3.096" x2="7.55002" class="pin" y2="3.096" connectorname="1" x1="0.350001" stroke-width="0.700001" stroke-linecap="round" id="connector0pin" xmlns="http://www.w3.org/2000/svg" stroke="#787878"/>
<g class="terminal" width="0.000283466" fill="none" y="3.096" stroke-width="0" id="connector0terminal" xmlns="http://www.w3.org/2000/svg" x="0.350001" stroke="none" height="0.000283465"/>
<text class="text" font-family="'Droid Sans'" text-anchor="middle" fill="#8c8c8c" font-size="2.50001" y="2.046" stroke-width="0" xmlns="http://www.w3.org/2000/svg" stroke="none" x="3.95001">1</text>
</g>
</g></g><g partID='65370'><line stroke-linecap='round' stroke='#404040' x1='87.5995' y1='44.2216' x2='44.3995' y2='8.22149' stroke-width='0.699998' /></g><g partID='65620'><line stroke-linecap='round' stroke='#404040' x1='87.5995' y1='58.6216' x2='65.9422' y2='65.7795' stroke-width='0.699998' /></g><circle  fill="black" cx="65.9422" cy="65.7795" r="1.44" stroke-width="0" stroke="none" /><g partID='65940'><line stroke-linecap='round' stroke='#404040' x1='87.5995' y1='65.8216' x2='51.5995' y2='109.021' stroke-width='0.699998' /></g><g partID='66280'><line stroke-linecap='round' stroke='#404040' x1='1.11809' y1='109.021' x2='22.7985' y2='109.021' stroke-width='0.699998' /></g><g partID='66030'><line stroke-linecap='round' stroke='#404040' x1='1.19953' y1='65.8215' x2='1.11812' y2='109.021' stroke-width='0.699998' /></g><circle  fill="black" cx="1.19953" cy="65.8215" r="1.44" stroke-width="0" stroke="none" /><g partID='66390'><line stroke-linecap='round' stroke='#404040' x1='1.11809' y1='8.29669' x2='15.5985' y2='8.22172' stroke-width='0.699998' /></g><circle  fill="black" cx="15.5985" cy="8.22172" r="1.44" stroke-width="0" stroke="none" /><g partID='66100'><line stroke-linecap='round' stroke='#404040' x1='1.19953' y1='65.8215' x2='1.11812' y2='8.29645' stroke-width='0.699998' /></g><circle  fill="black" cx="1.19953" cy="65.8215" r="1.44" stroke-width="0" stroke="none" /><g partID='66720'><line stroke-linecap='round' stroke='#404040' x1='188.425' y1='44.1711' x2='181.199' y2='44.2215' stroke-width='0.699998' /></g><g partID='66610'><line stroke-linecap='round' stroke='#404040' x1='189.288' y1='1.39749' x2='188.425' y2='44.1712' stroke-width='0.699998' /></g><circle  fill="black" cx="189.288" cy="1.39749" r="1.44" stroke-width="0" stroke="none" /><g partID='66500'><line stroke-linecap='round' stroke='#404040' x1='15.606' y1='1.05269' x2='189.288' y2='1.39764' stroke-width='0.699998' /></g><g partID='66170'><line stroke-linecap='round' stroke='#404040' x1='15.5985' y1='8.22149' x2='15.6059' y2='1.05253' stroke-width='0.699998' /></g><circle  fill="black" cx="15.5985" cy="8.22149" r="1.44" stroke-width="0" stroke="none" /><g partID='67130'><line stroke-linecap='round' stroke='#404040' x1='267.591' y1='1.05269' x2='267.591' y2='72.9745' stroke-width='0.699998' /></g><circle  fill="black" cx="267.591" cy="72.9745" r="1.44" stroke-width="0" stroke="none" /><g partID='66980'><line stroke-linecap='round' stroke='#404040' x1='267.591' y1='72.9744' x2='224.399' y2='73.0215' stroke-width='0.699998' /></g><circle  fill="black" cx="267.591" cy="72.9744" r="1.44" stroke-width="0" stroke="none" /><g partID='66830'><line stroke-linecap='round' stroke='#404040' x1='189.288' y1='1.39749' x2='267.591' y2='1.05254' stroke-width='0.699998' /></g><g partID='67350'><line stroke-linecap='round' stroke='#404040' x1='181.2' y1='65.8216' x2='202.799' y2='65.8215' stroke-width='0.699998' /></g><g partID='67420'><line stroke-linecap='round' stroke='#404040' x1='181.2' y1='58.6216' x2='209.999' y2='58.6215' stroke-width='0.699998' /></g><g partID='67490'><line stroke-linecap='round' stroke='#404040' x1='181.199' y1='73.0216' x2='217.198' y2='51.4215' stroke-width='0.699998' /></g><g partID='67750'><line stroke-linecap='round' stroke='#404040' x1='267.591' y1='65.9029' x2='231.599' y2='65.8215' stroke-width='0.699998' /></g><g partID='67560'><line stroke-linecap='round' stroke='#404040' x1='267.591' y1='72.9744' x2='267.591' y2='65.9029' stroke-width='0.699998' /></g><circle  fill="black" cx="267.591" cy="72.9744" r="1.44" stroke-width="0" stroke="none" /><g partID='68170'><line stroke-linecap='round' stroke='#404040' x1='267.591' y1='58.659' x2='238.799' y2='58.6215' stroke-width='0.699998' /></g><g partID='67940'><line stroke-linecap='round' stroke='#404040' x1='267.591' y1='72.9744' x2='267.591' y2='58.659' stroke-width='0.699998' /></g><g partID='68670'><line stroke-linecap='round' stroke='#404040' x1='267.591' y1='51.415' x2='245.999' y2='51.4215' stroke-width='0.699998' /></g><g partID='68400'><line stroke-linecap='round' stroke='#404040' x1='267.591' y1='72.9744' x2='267.591' y2='51.4151' stroke-width='0.699998' /></g><g partID='65550'><line stroke-linecap='round' stroke='#404040' x1='94.7715' y1='51.415' x2='65.9421' y2='51.3795' stroke-width='0.699998' /></g><g partID='61780'><line stroke-linecap='round' stroke='#404040' x1='28.365' y1='51.3425' x2='94.7717' y2='51.4151' stroke-width='0.699998' /></g><g partID='62010'><line stroke-linecap='round' stroke='#404040' x1='28.365' y1='65.7795' x2='65.9422' y2='65.7795' stroke-width='0.699998' /></g><circle  fill="black" cx="65.9422" cy="65.7795" r="1.44" stroke-width="0" stroke="none" /><g partID='62260'><line stroke-linecap='round' stroke='#404040' x1='28.365' y1='80.2795' x2='37.1421' y2='80.1795' stroke-width='0.699998' /></g><g partID='69400'><line stroke-linecap='round' stroke='#404040' x1='87.5995' y1='73.0216' x2='65.9423' y2='80.1795' stroke-width='0.699998' /></g><g partID='69510'><line stroke-linecap='round' stroke='#404040' x1='181.199' y1='51.4216' x2='195.598' y2='73.0215' stroke-width='0.699998' /></g><g partID='58400' id='partLabel'><g transform='translate(181.2,17.0215)' ><g font-size='5' font-style='normal' font-weight='normal' fill='#000000' font-family="'DroidSans'" id='schematicLabel' fill-opacity='1' stroke='none' ><text x='0' y='3.75'>WeMos D1 Mini1</text></g></g></g><g partID='58780' id='partLabel'><g transform='translate(35.107,91.8174)' ><g transform='matrix(0,1,-1,0,0,0)'  ><g font-size='5' font-style='normal' font-weight='normal' fill='#000000' font-family="'DroidSans'" id='schematicLabel' fill-opacity='1' stroke='none' ><text x='0' y='3.75'>LED1</text></g></g></g></g><g partID='64880' id='partLabel'><g transform='translate(50.3331,10.0967)' ><g transform='matrix(0,1,-1,0,0,0)'  ><g font-size='5' font-style='normal' font-weight='normal' fill='#000000' font-family="'DroidSans'" id='schematicLabel' fill-opacity='1' stroke='none' ><text x='0' y='3.75'>S1 - White</text></g></g></g></g><g partID='62510' id='partLabel'><g transform='translate(244.733,60.4965)' ><g transform='matrix(0,1,-1,0,0,0)'  ><g font-size='5' font-style='normal' font-weight='normal' fill='#000000' font-family="'DroidSans'" id='schematicLabel' fill-opacity='1' stroke='none' ><text x='0' y='3.75'>S4 - Yellow</text></g></g></g></g><g partID='62550' id='partLabel'><g transform='translate(230.333,74.8965)' ><g transform='matrix(0,1,-1,0,0,0)'  ><g font-size='5' font-style='normal' font-weight='normal' fill='#000000' font-family="'DroidSans'" id='schematicLabel' fill-opacity='1' stroke='none' ><text x='0' y='3.75'>S6 - Red</text></g></g></g></g><g partID='62530' id='partLabel'><g transform='translate(237.533,67.6965)' ><g transform='matrix(0,1,-1,0,0,0)'  ><g font-size='5' font-style='normal' font-weight='normal' fill='#000000' font-family="'DroidSans'" id='schematicLabel' fill-opacity='1' stroke='none' ><text x='0' y='3.75'>S5 - Green</text></g></g></g></g><g partID='60500' id='partLabel'><g transform='translate(251.933,53.2965)' ><g transform='matrix(0,1,-1,0,0,0)'  ><g font-size='5' font-style='normal' font-weight='normal' fill='#000000' font-family="'DroidSans'" id='schematicLabel' fill-opacity='1' stroke='none' ><text x='0' y='3.75'>S3 - Black</text></g></g></g></g><g partID='65920' id='partLabel'><g transform='translate(57.5331,110.896)' ><g transform='matrix(0,1,-1,0,0,0)'  ><g font-size='5' font-style='normal' font-weight='normal' fill='#000000' font-family="'DroidSans'" id='schematicLabel' fill-opacity='1' stroke='none' ><text x='0' y='3.75'>S2 - Blue</text></g></g></g></g><g partID='62240' id='partLabel'><g transform='translate(66.2923,61.0833)' ><g font-size='5' font-style='normal' font-weight='normal' fill='#000000' font-family="'DroidSans'" id='schematicLabel' fill-opacity='1' stroke='none' ><text x='0' y='3.75'>R3</text><text x='0' y='8.75'>&#xb1;1%</text><text x='0' y='13.75'>5.1k&#x3a9;</text></g></g></g><g partID='61640' id='partLabel'><g transform='translate(66.2923,32.2833)' ><g font-size='5' font-style='normal' font-weight='normal' fill='#000000' font-family="'DroidSans'" id='schematicLabel' fill-opacity='1' stroke='none' ><text x='0' y='3.75'>R1</text><text x='0' y='8.75'>&#xb1;1%</text><text x='0' y='13.75'>470&#x3a9;</text></g></g></g><g partID='61990' id='partLabel'><g transform='translate(66.2923,46.6833)' ><g font-size='5' font-style='normal' font-weight='normal' fill='#000000' font-family="'DroidSans'" id='schematicLabel' fill-opacity='1' stroke='none' ><text x='0' y='3.75'>R2</text><text x='0' y='8.75'>&#xb1;1%</text><text x='0' y='13.75'>2k&#x3a9;</text></g></g></g></svg>