<?xml version='1.0' encoding='UTF-8' standalone='no'?>
<!-- Created with Fritzing (http://www.fritzing.org/) -->
<svg xmlns:svg='http://www.w3.org/2000/svg' xmlns='http://www.w3.org/2000/svg' version='1.2' baseProfile='tiny' x='0in' y='0in' width='3.73753in' height='4.13584in' viewBox='0 0 269.102 297.781' >
<g partID='72220'><g transform='translate(103.262,195.679)' ><g transform='matrix(0,-1,1,0,0,0)'  ><g transform="matrix(1, 0, 0, 1, 0, -714.331)">
<g id="schematic">
<g>
<rect stroke-width="2.4" fill="none" stroke-opacity="1" x="42.6605" stroke="#000000" width="106.299" y="735.73" height="84.8985" style="stroke-miterlimit:4;stroke-dasharray:none" id="rect6478"/>
<path stroke-width="2.4" fill="#c2c2c2" stroke-opacity="1" stroke="#000000" fill-opacity="1" d="m42.5197,778.109,-21.2598,0" style="color:#000000;fill-rule:nonzero;stroke-linecap:butt;stroke-linejoin:miter;stroke-miterlimit:4;stroke-dasharray:none;stroke-dashoffset:0;marker:none;visibility:visible;display:inline;overflow:visible;enable-background:accumulate" id="path6484"/>
<g fill="#000000" stroke="none" xmlns:xml="http://www.w3.org/XML/1998/namespace" fill-opacity="1" font-size="0" style="font-style:normal;font-variant:normal;font-weight:normal;font-stretch:normal;text-align:start;line-height:125%;letter-spacing:0px;word-spacing:0px;text-anchor:start;font-family:Droid Sans;-inkscape-font-specification:Droid Sans" xml:space="preserve" id="text6518">
<text x="46.7717" font-size="0" y="780.944" style="font-style:normal;font-variant:normal;font-weight:normal;font-stretch:normal;text-align:start;text-anchor:start;font-family:Droid Sans;-inkscape-font-specification:Droid Sans" id="tspan6520">DQ</text>
</g>
<g fill="#000000" stroke="none" xmlns:xml="http://www.w3.org/XML/1998/namespace" fill-opacity="1" font-size="0" style="font-style:normal;font-variant:normal;font-weight:normal;font-stretch:normal;text-align:center;line-height:125%;letter-spacing:0px;word-spacing:0px;text-anchor:middle;font-family:Droid Sans;-inkscape-font-specification:Droid Sans" xml:space="preserve" id="text6578">
<text x="104.315" y="783.213" id="tspan6580">DS18B20</text>
</g>
<path stroke-width="2.4" fill="#c2c2c2" stroke-opacity="1" stroke="#000000" fill-opacity="1" d="m42.5197,799.37,-21.2598,0" style="color:#000000;fill-rule:nonzero;stroke-miterlimit:4;stroke-dasharray:none;marker:none;visibility:visible;display:inline;overflow:visible;enable-background:accumulate" id="path6480"/>
<g fill="#000000" stroke="none" xmlns:xml="http://www.w3.org/XML/1998/namespace" fill-opacity="1" font-size="0" style="font-style:normal;font-variant:normal;font-weight:normal;font-stretch:normal;text-align:center;line-height:125%;letter-spacing:0px;word-spacing:0px;text-anchor:middle;font-family:Droid Sans;-inkscape-font-specification:Droid Sans" xml:space="preserve" id="text6514">
<text x="54.1418" font-size="0" y="802.205" style="font-style:normal;font-variant:normal;font-weight:normal;font-stretch:normal;font-family:Droid Sans;-inkscape-font-specification:Droid Sans" id="tspan6516">GND</text>
</g>
<rect fill="none" x="18.4252" stroke="none" width="5.66929" y="796.536" height="5.66929" id="connector1pin"/>
<rect fill="none" x="18.4252" stroke="none" width="5.66929" y="775.275" height="5.66929" id="connector2pin"/>
<path stroke-width="2.4" fill="#c2c2c2" stroke-opacity="1" stroke="#000000" fill-opacity="1" d="m42.5197,756.849,-21.2598,0" style="color:#000000;fill-rule:nonzero;stroke-linecap:butt;stroke-linejoin:miter;stroke-miterlimit:4;stroke-dasharray:none;stroke-dashoffset:0;marker:none;visibility:visible;display:inline;overflow:visible;enable-background:accumulate" id="path6486"/>
<g fill="#000000" stroke="none" xmlns:xml="http://www.w3.org/XML/1998/namespace" fill-opacity="1" font-size="0" style="font-style:normal;font-variant:normal;font-weight:normal;font-stretch:normal;text-align:center;line-height:125%;letter-spacing:0px;word-spacing:0px;text-anchor:middle;font-family:Droid Sans;-inkscape-font-specification:Droid Sans" xml:space="preserve" id="text6522">
<text x="54.1418" font-size="0" y="759.684" style="font-style:normal;font-variant:normal;font-weight:normal;font-stretch:normal;font-family:Droid Sans;-inkscape-font-specification:Droid Sans" id="tspan6524">VDD</text>
</g>
<rect fill="none" x="18.4252" stroke="none" width="5.66929" y="754.015" height="5.66929" id="connector3pin"/>
</g>
</g>
</g>
</g></g></g><g partID='58400'><g transform='translate(217.102,275.219)' ><g transform='matrix(-1,0,0,-1,0,0)'  ><g xmlns="http://www.w3.org/2000/svg" id="schematic">
<rect xmlns="http://www.w3.org/2000/svg" fill="#FFFFFF" stroke-width="0.9" class="interior rect" x="14.85" stroke="#000000" width="63.9" y="0.45" stroke-linecap="round" height="78.3"/>
<g xmlns="http://www.w3.org/2000/svg" stroke-width="0" stroke="none" font-family="'Droid Sans'" stroke-linecap="round">
<g xmlns="http://www.w3.org/2000/svg" fill="none" font-size="3.49999" id="pins">
<g xmlns="http://www.w3.org/2000/svg" text-anchor="start" id="pins-left">
<line xmlns="http://www.w3.org/2000/svg" stroke-width="0.699999" x2="14.75" y1="14.4" stroke="#787878" x1="0.349999" y2="14.4" id="connector0pin"/>
<text xmlns="http://www.w3.org/2000/svg" fill="#8c8c8c" x="16.15" y="15.0999">RST</text>
<g xmlns="http://www.w3.org/2000/svg" x="-0.349999" width="0.699999" y="14.0499" height="0.699999" id="connector0terminal"/>
<line xmlns="http://www.w3.org/2000/svg" stroke-width="0.699999" x2="14.75" y1="21.6" stroke="#787878" x1="0.349999" y2="21.6" id="connector1pin"/>
<text xmlns="http://www.w3.org/2000/svg" fill="#8c8c8c" x="16.15" y="22.2999">A0</text>
<g xmlns="http://www.w3.org/2000/svg" x="-0.349999" width="0.699999" y="21.2499" height="0.699999" id="connector1terminal"/>
<line xmlns="http://www.w3.org/2000/svg" stroke-width="0.699999" x2="14.75" y1="28.8" stroke="#787878" x1="0.349999" y2="28.8" id="connector2pin"/>
<text xmlns="http://www.w3.org/2000/svg" fill="#8c8c8c" x="16.15" y="29.4999">D0</text>
<g xmlns="http://www.w3.org/2000/svg" x="-0.349999" width="0.699999" y="28.4499" height="0.699999" id="connector2terminal"/>
<line xmlns="http://www.w3.org/2000/svg" stroke-width="0.699999" x2="14.75" y1="36" stroke="#787878" x1="0.349999" y2="36" id="connector3pin"/>
<text xmlns="http://www.w3.org/2000/svg" fill="#8c8c8c" x="16.15" y="36.6999">D5</text>
<g xmlns="http://www.w3.org/2000/svg" x="-0.349999" width="0.699999" y="35.6499" height="0.699999" id="connector3terminal"/>
<line xmlns="http://www.w3.org/2000/svg" stroke-width="0.699999" x2="14.75" y1="43.2" stroke="#787878" x1="0.349999" y2="43.2" id="connector4pin"/>
<text xmlns="http://www.w3.org/2000/svg" fill="#8c8c8c" x="16.15" y="43.8999">D6</text>
<g xmlns="http://www.w3.org/2000/svg" x="-0.349999" width="0.699999" y="42.8499" height="0.699999" id="connector4terminal"/>
<line xmlns="http://www.w3.org/2000/svg" stroke-width="0.699999" x2="14.75" y1="50.4" stroke="#787878" x1="0.349999" y2="50.4" id="connector5pin"/>
<text xmlns="http://www.w3.org/2000/svg" fill="#8c8c8c" x="16.15" y="51.0999">D7</text>
<g xmlns="http://www.w3.org/2000/svg" x="-0.349999" width="0.699999" y="50.0499" height="0.699999" id="connector5terminal"/>
<line xmlns="http://www.w3.org/2000/svg" stroke-width="0.699999" x2="14.75" y1="57.6" stroke="#787878" x1="0.349999" y2="57.6" id="connector6pin"/>
<text xmlns="http://www.w3.org/2000/svg" fill="#8c8c8c" x="16.15" y="58.2999">D8</text>
<g xmlns="http://www.w3.org/2000/svg" x="-0.349999" width="0.699999" y="57.2499" height="0.699999" id="connector6terminal"/>
<line xmlns="http://www.w3.org/2000/svg" stroke-width="0.699999" x2="14.75" y1="64.8" stroke="#787878" x1="0.349999" y2="64.8" id="connector7pin"/>
<text xmlns="http://www.w3.org/2000/svg" fill="#8c8c8c" x="16.15" y="65.4999">3V3</text>
<g xmlns="http://www.w3.org/2000/svg" x="-0.349999" width="0.699999" y="64.4499" height="0.699999" id="connector7terminal"/>
</g>
<g xmlns="http://www.w3.org/2000/svg" text-anchor="end" id="right">
<line xmlns="http://www.w3.org/2000/svg" stroke-width="0.699999" x2="93.2499" y1="64.8" stroke="#787878" x1="78.8499" y2="64.8" id="connector8pin"/>
<text xmlns="http://www.w3.org/2000/svg" fill="#8c8c8c" x="77.4499" y="65.4999">5V</text>
<g xmlns="http://www.w3.org/2000/svg" x="93.2499" width="0.699999" y="64.4499" height="0.699999" id="connector8terminal"/>
<line xmlns="http://www.w3.org/2000/svg" stroke-width="0.699999" x2="93.2499" y1="57.6" stroke="#787878" x1="78.8499" y2="57.6" id="connector9pin"/>
<text xmlns="http://www.w3.org/2000/svg" fill="#8c8c8c" x="77.4499" y="58.2999">G</text>
<g xmlns="http://www.w3.org/2000/svg" x="93.2499" width="0.699999" y="57.2499" height="0.699999" id="connector9terminal"/>
<line xmlns="http://www.w3.org/2000/svg" stroke-width="0.699999" x2="93.2499" y1="50.4" stroke="#787878" x1="78.8499" y2="50.4" id="connector10pin"/>
<text xmlns="http://www.w3.org/2000/svg" fill="#8c8c8c" x="77.4499" y="51.0999">D4</text>
<g xmlns="http://www.w3.org/2000/svg" x="93.2499" width="0.699999" y="50.0499" height="0.699999" id="connector10terminal"/>
<line xmlns="http://www.w3.org/2000/svg" stroke-width="0.699999" x2="93.2499" y1="43.2" stroke="#787878" x1="78.8499" y2="43.2" id="connector11pin"/>
<text xmlns="http://www.w3.org/2000/svg" fill="#8c8c8c" x="77.4499" y="43.8999">D3</text>
<g xmlns="http://www.w3.org/2000/svg" x="93.2499" width="0.699999" y="42.8499" height="0.699999" id="connector11terminal"/>
<line xmlns="http://www.w3.org/2000/svg" stroke-width="0.699999" x2="93.2499" y1="36" stroke="#787878" x1="78.8499" y2="36" id="connector12pin"/>
<text xmlns="http://www.w3.org/2000/svg" fill="#8c8c8c" x="77.4499" y="36.6999">D2</text>
<g xmlns="http://www.w3.org/2000/svg" x="93.2499" width="0.699999" y="35.6499" height="0.699999" id="connector12terminal"/>
<line xmlns="http://www.w3.org/2000/svg" stroke-width="0.699999" x2="93.2499" y1="28.8" stroke="#787878" x1="78.8499" y2="28.8" id="connector13pin"/>
<text xmlns="http://www.w3.org/2000/svg" fill="#8c8c8c" x="77.4499" y="29.4999">D1</text>
<g xmlns="http://www.w3.org/2000/svg" x="93.2499" width="0.699999" y="28.4499" height="0.699999" id="connector13terminal"/>
<line xmlns="http://www.w3.org/2000/svg" stroke-width="0.699999" x2="93.2499" y1="21.6" stroke="#787878" x1="78.8499" y2="21.6" id="connector14pin"/>
<text xmlns="http://www.w3.org/2000/svg" fill="#8c8c8c" x="77.4499" y="22.2999">RX</text>
<g xmlns="http://www.w3.org/2000/svg" x="93.2499" width="0.699999" y="21.2499" height="0.699999" id="connector14terminal"/>
<line xmlns="http://www.w3.org/2000/svg" stroke-width="0.699999" x2="93.2499" y1="14.4" stroke="#787878" x1="78.8499" y2="14.4" id="connector15pin"/>
<text xmlns="http://www.w3.org/2000/svg" fill="#8c8c8c" x="77.4499" y="15.0999">TX</text>
<g xmlns="http://www.w3.org/2000/svg" x="93.2499" width="0.699999" y="14.0499" height="0.699999" id="connector15terminal"/>
</g>
</g>
<text xmlns="http://www.w3.org/2000/svg" fill="#000000" x="46.8283" text-anchor="middle" font-size="4.25001" y="39.685" id="label">WeMos D1 mini</text>
</g>
</g>
</g></g></g><g partID='58780'><g transform='translate(7.10251,220.639)' ><g transform='matrix(0,1,1,0,0,0)'  ><g xmlns="http://www.w3.org/2000/svg" id="schematic">
<path xmlns="http://www.w3.org/2000/svg" d="M18.565,15.1c-0.193,0,-0.35,-0.157,-0.35,-0.35l0,-7.2c0,-0.193,0.157,-0.35,0.35,-0.35s0.35,0.157,0.35,0.35l0,7.2C18.916,14.943,18.758,15.1,18.565,15.1z"/>
<path xmlns="http://www.w3.org/2000/svg" fill="none" d="M18.565,7.55L18.565,7.55L18.565,7.55z"/>
<path xmlns="http://www.w3.org/2000/svg" d="M32.963,15.1c-0.192,0,-0.351,-0.157,-0.351,-0.35L32.612,7.9L4.515,7.9l0,6.85c0,0.193,-0.157,0.35,-0.35,0.35s-0.35,-0.157,-0.35,-0.35L3.815,7.2l29.499,0l0,7.55C33.313,14.943,33.155,15.1,32.963,15.1z"/>
<path xmlns="http://www.w3.org/2000/svg" d="M36.563,15.1l-3.603,0c-0.192,0,-0.351,-0.157,-0.351,-0.35s0.156,-0.35,0.351,-0.35l3.603,0c0.192,0,0.352,0.157,0.352,0.35S36.758,15.1,36.563,15.1z"/>
<path xmlns="http://www.w3.org/2000/svg" d="M32.963,15.1l-3.598,0c-0.193,0,-0.351,-0.157,-0.351,-0.35s0.154,-0.35,0.351,-0.35l3.598,0c0.192,0,0.351,0.157,0.351,0.35S33.155,15.1,32.963,15.1z"/>
<polygon xmlns="http://www.w3.org/2000/svg" fill="#FFFFFF" points="36.563,21.951,32.963,21.951,29.365,21.951,32.963,14.75"/>
<path xmlns="http://www.w3.org/2000/svg" d="M37.131,22.3l-8.332,0l4.164,-8.333L37.131,22.3zM29.933,21.599l6.065,0l-3.035,-6.066L29.933,21.599z"/>
<path xmlns="http://www.w3.org/2000/svg" d="M32.963,22.175c-0.124,0,-0.226,-0.103,-0.226,-0.225L32.737,14.75c0,-0.124,0.102,-0.225,0.226,-0.225s0.226,0.101,0.226,0.225l0,7.201C33.188,22.074,33.087,22.175,32.963,22.175z"/>
<path xmlns="http://www.w3.org/2000/svg" d="M37.582,16.414c-0.06,0,-0.115,-0.021,-0.159,-0.063c-0.088,-0.088,-0.088,-0.229,0,-0.316l2.34,-2.341c0.088,-0.088,0.229,-0.088,0.318,0c0.088,0.088,0.088,0.23,0,0.318L37.74,16.35C37.696,16.392,37.64,16.414,37.582,16.414z"/>
<path xmlns="http://www.w3.org/2000/svg" d="M37.224,13.176c-0.059,0,-0.115,-0.022,-0.158,-0.066c-0.09,-0.088,-0.09,-0.23,0,-0.318l2.341,-2.34c0.088,-0.088,0.229,-0.088,0.315,0c0.088,0.088,0.088,0.23,0,0.318l-2.34,2.34C37.338,13.154,37.278,13.176,37.224,13.176z"/>
<path xmlns="http://www.w3.org/2000/svg" d="M41.542,12.231l-1.08,2.52l-1.438,-1.439L41.542,12.231z"/>
<path xmlns="http://www.w3.org/2000/svg" d="M41.183,8.991l-1.078,2.52l-1.438,-1.438L41.183,8.991z"/>
<path xmlns="http://www.w3.org/2000/svg" d="M22.165,15.1l-3.599,0c-0.193,0,-0.35,-0.157,-0.35,-0.35s0.157,-0.35,0.35,-0.35l3.599,0c0.193,0,0.35,0.157,0.35,0.35S22.358,15.1,22.165,15.1z"/>
<path xmlns="http://www.w3.org/2000/svg" d="M18.565,15.1l-3.601,0c-0.193,0,-0.35,-0.157,-0.35,-0.35s0.157,-0.35,0.35,-0.35l3.601,0c0.193,0,0.35,0.157,0.35,0.35S18.758,15.1,18.565,15.1z"/>
<polygon xmlns="http://www.w3.org/2000/svg" fill="#FFFFFF" points="22.165,21.951,18.565,21.951,14.964,21.951,18.565,14.75"/>
<path xmlns="http://www.w3.org/2000/svg" d="M22.731,22.3l-8.333,0l4.167,-8.333L22.731,22.3zM15.53,21.599l6.067,0l-3.033,-6.066L15.53,21.599z"/>
<path xmlns="http://www.w3.org/2000/svg" d="M18.565,22.175c-0.124,0,-0.225,-0.103,-0.225,-0.225L18.34,14.75c0,-0.124,0.101,-0.225,0.225,-0.225s0.225,0.101,0.225,0.225l0,7.201C18.791,22.074,18.689,22.175,18.565,22.175z"/>
<path xmlns="http://www.w3.org/2000/svg" d="M23.183,16.414c-0.058,0,-0.113,-0.021,-0.158,-0.063c-0.088,-0.088,-0.088,-0.229,0,-0.316l2.343,-2.341c0.088,-0.088,0.229,-0.088,0.315,0c0.09,0.088,0.09,0.23,0,0.318l-2.341,2.339C23.298,16.392,23.24,16.414,23.183,16.414z"/>
<path xmlns="http://www.w3.org/2000/svg" d="M22.821,13.176c-0.057,0,-0.114,-0.022,-0.159,-0.066c-0.088,-0.088,-0.088,-0.23,0,-0.318l2.34,-2.34c0.088,-0.088,0.229,-0.088,0.317,0c0.088,0.088,0.088,0.23,0,0.318l-2.34,2.34C22.938,13.154,22.88,13.176,22.821,13.176z"/>
<path xmlns="http://www.w3.org/2000/svg" d="M27.144,12.231l-1.08,2.52l-1.438,-1.439L27.144,12.231z"/>
<path xmlns="http://www.w3.org/2000/svg" d="M26.783,8.991l-1.08,2.52l-1.438,-1.438L26.783,8.991z"/>
<path xmlns="http://www.w3.org/2000/svg" d="M7.766,15.1L4.165,15.1c-0.193,0,-0.35,-0.157,-0.35,-0.35s0.157,-0.35,0.35,-0.35l3.601,0c0.193,0,0.35,0.157,0.35,0.35S7.959,15.1,7.766,15.1z"/>
<path xmlns="http://www.w3.org/2000/svg" d="M4.165,15.1L0.566,15.1c-0.193,0,-0.35,-0.157,-0.35,-0.35s0.157,-0.35,0.35,-0.35l3.599,0c0.193,0,0.35,0.157,0.35,0.35S4.359,15.1,4.165,15.1z"/>
<polygon xmlns="http://www.w3.org/2000/svg" fill="#FFFFFF" points="7.766,21.951,4.165,21.951,0.566,21.951,4.165,14.75"/>
<path xmlns="http://www.w3.org/2000/svg" d="M8.332,22.3L0,22.3l4.166,-8.333L8.332,22.3zM1.133,21.599L7.2,21.599l-3.034,-6.066L1.133,21.599z"/>
<path xmlns="http://www.w3.org/2000/svg" d="M4.165,22.175c-0.124,0,-0.225,-0.103,-0.225,-0.225L3.94,14.75c0,-0.124,0.101,-0.225,0.225,-0.225S4.39,14.626,4.39,14.75l0,7.201C4.39,22.074,4.289,22.175,4.165,22.175z"/>
<path xmlns="http://www.w3.org/2000/svg" d="M8.783,16.414c-0.058,0,-0.115,-0.021,-0.159,-0.063c-0.088,-0.088,-0.088,-0.229,0,-0.316l2.339,-2.341c0.088,-0.088,0.23,-0.088,0.318,0c0.088,0.088,0.088,0.23,0,0.318L8.942,16.35C8.898,16.392,8.841,16.414,8.783,16.414z"/>
<path xmlns="http://www.w3.org/2000/svg" d="M8.422,13.176c-0.058,0,-0.115,-0.022,-0.159,-0.066c-0.087,-0.088,-0.087,-0.23,0,-0.318l2.341,-2.34c0.088,-0.088,0.23,-0.088,0.318,0c0.088,0.088,0.088,0.23,0,0.318l-2.341,2.34C8.537,13.154,8.48,13.176,8.422,13.176z"/>
<path xmlns="http://www.w3.org/2000/svg" d="M12.743,12.231l-1.08,2.52l-1.439,-1.439L12.743,12.231z"/>
<path xmlns="http://www.w3.org/2000/svg" d="M12.382,8.991l-1.08,2.52l-1.438,-1.438L12.382,8.991z"/>
<g xmlns="http://www.w3.org/2000/svg">
<path xmlns="http://www.w3.org/2000/svg" fill="#787878" d="M32.964,29.5c-0.193,0,-0.35,-0.155,-0.35,-0.35l0,-7.199c0,-0.193,0.156,-0.352,0.35,-0.352c0.194,0,0.35,0.156,0.35,0.352l0,7.199C33.313,29.343,33.157,29.5,32.964,29.5z" id="connector2pin"/>
<g xmlns="http://www.w3.org/2000/svg" fill="none" x="32.663" width="0.75" y="27.167" height="2.396" id="connector2terminal"/>
<path xmlns="http://www.w3.org/2000/svg" fill="#787878" d="M18.567,7.9c-0.193,0,-0.35,-0.157,-0.35,-0.35l0,-7.2c0,-0.193,0.157,-0.35,0.35,-0.35s0.35,0.157,0.35,0.35l0,7.2C18.917,7.744,18.76,7.9,18.567,7.9z" id="connector1pin"/>
<g xmlns="http://www.w3.org/2000/svg" fill="none" x="18.205" width="0.75" height="2.399" id="connector1terminal"/>
<path xmlns="http://www.w3.org/2000/svg" fill="#787878" d="M18.566,29.5c-0.193,0,-0.35,-0.155,-0.35,-0.35l0,-7.199c0,-0.193,0.157,-0.352,0.35,-0.352s0.35,0.156,0.35,0.352l0,7.199C18.916,29.343,18.759,29.5,18.566,29.5z" id="connector3pin"/>
<g xmlns="http://www.w3.org/2000/svg" fill="none" x="18.163" width="0.75" y="27.167" height="2.396" id="connector3terminal"/>
<path xmlns="http://www.w3.org/2000/svg" fill="#787878" d="M4.165,29.5c-0.193,0,-0.35,-0.155,-0.35,-0.35l0,-7.199c0,-0.193,0.157,-0.352,0.35,-0.352s0.35,0.156,0.35,0.352l0,7.199C4.515,29.343,4.359,29.5,4.165,29.5z" id="connector0pin"/>
<g xmlns="http://www.w3.org/2000/svg" fill="none" x="3.726" width="0.75" y="27.167" height="2.396" id="connector0terminal"/>
</g>
</g>
</g></g></g><g partID='62240'><g transform='translate(43.8944,250.481)' ><g xmlns="http://www.w3.org/2000/svg" id="schematic">
<line xmlns="http://www.w3.org/2000/svg" stroke-width="0.432002" x2="8.63003" class="other" y1="3.096" stroke="#000000" x1="7.55002" stroke-linecap="round" y2="0.216"/>
<line xmlns="http://www.w3.org/2000/svg" stroke-width="0.432002" x2="10.43" class="other" y1="0.216" stroke="#000000" x1="8.63003" stroke-linecap="round" y2="5.976"/>
<line xmlns="http://www.w3.org/2000/svg" stroke-width="0.432002" x2="12.23" class="other" y1="5.976" stroke="#000000" x1="10.43" stroke-linecap="round" y2="0.216"/>
<line xmlns="http://www.w3.org/2000/svg" stroke-width="0.432002" x2="14.03" class="other" y1="0.216" stroke="#000000" x1="12.23" stroke-linecap="round" y2="5.976"/>
<line xmlns="http://www.w3.org/2000/svg" stroke-width="0.432002" x2="15.8301" class="other" y1="5.976" stroke="#000000" x1="14.03" stroke-linecap="round" y2="0.216"/>
<line xmlns="http://www.w3.org/2000/svg" stroke-width="0.432002" x2="17.6301" class="other" y1="0.216" stroke="#000000" x1="15.8301" stroke-linecap="round" y2="5.976"/>
<line xmlns="http://www.w3.org/2000/svg" stroke-width="0.432002" x2="19.4301" class="other" y1="5.976" stroke="#000000" x1="17.6301" stroke-linecap="round" y2="0.216"/>
<line xmlns="http://www.w3.org/2000/svg" stroke-width="0.432002" x2="21.2301" class="other" y1="0.216" stroke="#000000" x1="19.4301" stroke-linecap="round" y2="5.976"/>
<line xmlns="http://www.w3.org/2000/svg" stroke-width="0.432002" x2="21.9501" class="other" y1="5.976" stroke="#000000" x1="21.2301" stroke-linecap="round" y2="3.096"/>
<line xmlns="http://www.w3.org/2000/svg" stroke-width="0.700001" x2="21.9501" class="pin" y1="3.096" stroke="#787878" connectorname="2" x1="29.1502" stroke-linecap="round" y2="3.096" id="connector1pin"/>
<g xmlns="http://www.w3.org/2000/svg" stroke-width="0" fill="none" class="terminal" x="29.1502" stroke="none" width="0.000283466" y="3.096" height="0.000283465" id="connector1terminal"/>
<text xmlns="http://www.w3.org/2000/svg" stroke-width="0" fill="#8c8c8c" class="text" stroke="none" x="25.5501" text-anchor="middle" font-size="2.50001" font-family="'Droid Sans'" y="2.046">2</text>
<line xmlns="http://www.w3.org/2000/svg" stroke-width="0.700001" x2="7.55002" class="pin" y1="3.096" stroke="#787878" connectorname="1" x1="0.350001" stroke-linecap="round" y2="3.096" id="connector0pin"/>
<g xmlns="http://www.w3.org/2000/svg" stroke-width="0" fill="none" class="terminal" x="0.350001" stroke="none" width="0.000283466" y="3.096" height="0.000283465" id="connector0terminal"/>
<text xmlns="http://www.w3.org/2000/svg" stroke-width="0" fill="#8c8c8c" class="text" stroke="none" x="3.95001" text-anchor="middle" font-size="2.50001" font-family="'Droid Sans'" y="2.046">1</text>
</g>
</g></g><g partID='61990'><g transform='translate(43.8944,236.081)' ><g xmlns="http://www.w3.org/2000/svg" id="schematic">
<line xmlns="http://www.w3.org/2000/svg" stroke-width="0.432002" x2="8.63003" class="other" y1="3.096" stroke="#000000" x1="7.55002" stroke-linecap="round" y2="0.216"/>
<line xmlns="http://www.w3.org/2000/svg" stroke-width="0.432002" x2="10.43" class="other" y1="0.216" stroke="#000000" x1="8.63003" stroke-linecap="round" y2="5.976"/>
<line xmlns="http://www.w3.org/2000/svg" stroke-width="0.432002" x2="12.23" class="other" y1="5.976" stroke="#000000" x1="10.43" stroke-linecap="round" y2="0.216"/>
<line xmlns="http://www.w3.org/2000/svg" stroke-width="0.432002" x2="14.03" class="other" y1="0.216" stroke="#000000" x1="12.23" stroke-linecap="round" y2="5.976"/>
<line xmlns="http://www.w3.org/2000/svg" stroke-width="0.432002" x2="15.8301" class="other" y1="5.976" stroke="#000000" x1="14.03" stroke-linecap="round" y2="0.216"/>
<line xmlns="http://www.w3.org/2000/svg" stroke-width="0.432002" x2="17.6301" class="other" y1="0.216" stroke="#000000" x1="15.8301" stroke-linecap="round" y2="5.976"/>
<line xmlns="http://www.w3.org/2000/svg" stroke-width="0.432002" x2="19.4301" class="other" y1="5.976" stroke="#000000" x1="17.6301" stroke-linecap="round" y2="0.216"/>
<line xmlns="http://www.w3.org/2000/svg" stroke-width="0.432002" x2="21.2301" class="other" y1="0.216" stroke="#000000" x1="19.4301" stroke-linecap="round" y2="5.976"/>
<line xmlns="http://www.w3.org/2000/svg" stroke-width="0.432002" x2="21.9501" class="other" y1="5.976" stroke="#000000" x1="21.2301" stroke-linecap="round" y2="3.096"/>
<line xmlns="http://www.w3.org/2000/svg" stroke-width="0.700001" x2="21.9501" class="pin" y1="3.096" stroke="#787878" connectorname="2" x1="29.1502" stroke-linecap="round" y2="3.096" id="connector1pin"/>
<g xmlns="http://www.w3.org/2000/svg" stroke-width="0" fill="none" class="terminal" x="29.1502" stroke="none" width="0.000283466" y="3.096" height="0.000283465" id="connector1terminal"/>
<text xmlns="http://www.w3.org/2000/svg" stroke-width="0" fill="#8c8c8c" class="text" stroke="none" x="25.5501" text-anchor="middle" font-size="2.50001" font-family="'Droid Sans'" y="2.046">2</text>
<line xmlns="http://www.w3.org/2000/svg" stroke-width="0.700001" x2="7.55002" class="pin" y1="3.096" stroke="#787878" connectorname="1" x1="0.350001" stroke-linecap="round" y2="3.096" id="connector0pin"/>
<g xmlns="http://www.w3.org/2000/svg" stroke-width="0" fill="none" class="terminal" x="0.350001" stroke="none" width="0.000283466" y="3.096" height="0.000283465" id="connector0terminal"/>
<text xmlns="http://www.w3.org/2000/svg" stroke-width="0" fill="#8c8c8c" class="text" stroke="none" x="3.95001" text-anchor="middle" font-size="2.50001" font-family="'Droid Sans'" y="2.046">1</text>
</g>
</g></g><g partID='61640'><g transform='translate(43.8944,221.681)' ><g xmlns="http://www.w3.org/2000/svg" id="schematic">
<line xmlns="http://www.w3.org/2000/svg" stroke-width="0.432002" x2="8.63003" class="other" y1="3.096" stroke="#000000" x1="7.55002" stroke-linecap="round" y2="0.216"/>
<line xmlns="http://www.w3.org/2000/svg" stroke-width="0.432002" x2="10.43" class="other" y1="0.216" stroke="#000000" x1="8.63003" stroke-linecap="round" y2="5.976"/>
<line xmlns="http://www.w3.org/2000/svg" stroke-width="0.432002" x2="12.23" class="other" y1="5.976" stroke="#000000" x1="10.43" stroke-linecap="round" y2="0.216"/>
<line xmlns="http://www.w3.org/2000/svg" stroke-width="0.432002" x2="14.03" class="other" y1="0.216" stroke="#000000" x1="12.23" stroke-linecap="round" y2="5.976"/>
<line xmlns="http://www.w3.org/2000/svg" stroke-width="0.432002" x2="15.8301" class="other" y1="5.976" stroke="#000000" x1="14.03" stroke-linecap="round" y2="0.216"/>
<line xmlns="http://www.w3.org/2000/svg" stroke-width="0.432002" x2="17.6301" class="other" y1="0.216" stroke="#000000" x1="15.8301" stroke-linecap="round" y2="5.976"/>
<line xmlns="http://www.w3.org/2000/svg" stroke-width="0.432002" x2="19.4301" class="other" y1="5.976" stroke="#000000" x1="17.6301" stroke-linecap="round" y2="0.216"/>
<line xmlns="http://www.w3.org/2000/svg" stroke-width="0.432002" x2="21.2301" class="other" y1="0.216" stroke="#000000" x1="19.4301" stroke-linecap="round" y2="5.976"/>
<line xmlns="http://www.w3.org/2000/svg" stroke-width="0.432002" x2="21.9501" class="other" y1="5.976" stroke="#000000" x1="21.2301" stroke-linecap="round" y2="3.096"/>
<line xmlns="http://www.w3.org/2000/svg" stroke-width="0.700001" x2="21.9501" class="pin" y1="3.096" stroke="#787878" connectorname="2" x1="29.1502" stroke-linecap="round" y2="3.096" id="connector1pin"/>
<g xmlns="http://www.w3.org/2000/svg" stroke-width="0" fill="none" class="terminal" x="29.1502" stroke="none" width="0.000283466" y="3.096" height="0.000283465" id="connector1terminal"/>
<text xmlns="http://www.w3.org/2000/svg" stroke-width="0" fill="#8c8c8c" class="text" stroke="none" x="25.5501" text-anchor="middle" font-size="2.50001" font-family="'Droid Sans'" y="2.046">2</text>
<line xmlns="http://www.w3.org/2000/svg" stroke-width="0.700001" x2="7.55002" class="pin" y1="3.096" stroke="#787878" connectorname="1" x1="0.350001" stroke-linecap="round" y2="3.096" id="connector0pin"/>
<g xmlns="http://www.w3.org/2000/svg" stroke-width="0" fill="none" class="terminal" x="0.350001" stroke="none" width="0.000283466" y="3.096" height="0.000283465" id="connector0terminal"/>
<text xmlns="http://www.w3.org/2000/svg" stroke-width="0" fill="#8c8c8c" class="text" stroke="none" x="3.95001" text-anchor="middle" font-size="2.50001" font-family="'Droid Sans'" y="2.046">1</text>
</g>
</g></g><g partID='73240'><g transform='translate(126.598,181.269)' ><g transform='matrix(0,1,-1,0,0,0)'  ><g xmlns="http://www.w3.org/2000/svg" id="schematic">
<line xmlns="http://www.w3.org/2000/svg" stroke-width="0.432002" x2="8.63003" class="other" y1="3.096" stroke="#000000" x1="7.55002" stroke-linecap="round" y2="0.216"/>
<line xmlns="http://www.w3.org/2000/svg" stroke-width="0.432002" x2="10.43" class="other" y1="0.216" stroke="#000000" x1="8.63003" stroke-linecap="round" y2="5.976"/>
<line xmlns="http://www.w3.org/2000/svg" stroke-width="0.432002" x2="12.23" class="other" y1="5.976" stroke="#000000" x1="10.43" stroke-linecap="round" y2="0.216"/>
<line xmlns="http://www.w3.org/2000/svg" stroke-width="0.432002" x2="14.03" class="other" y1="0.216" stroke="#000000" x1="12.23" stroke-linecap="round" y2="5.976"/>
<line xmlns="http://www.w3.org/2000/svg" stroke-width="0.432002" x2="15.8301" class="other" y1="5.976" stroke="#000000" x1="14.03" stroke-linecap="round" y2="0.216"/>
<line xmlns="http://www.w3.org/2000/svg" stroke-width="0.432002" x2="17.6301" class="other" y1="0.216" stroke="#000000" x1="15.8301" stroke-linecap="round" y2="5.976"/>
<line xmlns="http://www.w3.org/2000/svg" stroke-width="0.432002" x2="19.4301" class="other" y1="5.976" stroke="#000000" x1="17.6301" stroke-linecap="round" y2="0.216"/>
<line xmlns="http://www.w3.org/2000/svg" stroke-width="0.432002" x2="21.2301" class="other" y1="0.216" stroke="#000000" x1="19.4301" stroke-linecap="round" y2="5.976"/>
<line xmlns="http://www.w3.org/2000/svg" stroke-width="0.432002" x2="21.9501" class="other" y1="5.976" stroke="#000000" x1="21.2301" stroke-linecap="round" y2="3.096"/>
<line xmlns="http://www.w3.org/2000/svg" stroke-width="0.700001" x2="21.9501" class="pin" y1="3.096" stroke="#787878" connectorname="2" x1="29.1502" stroke-linecap="round" y2="3.096" id="connector1pin"/>
<g xmlns="http://www.w3.org/2000/svg" stroke-width="0" fill="none" class="terminal" x="29.1502" stroke="none" width="0.000283466" y="3.096" height="0.000283465" id="connector1terminal"/>
<text xmlns="http://www.w3.org/2000/svg" stroke-width="0" fill="#8c8c8c" class="text" stroke="none" x="25.5501" text-anchor="middle" font-size="2.50001" font-family="'Droid Sans'" y="2.046">2</text>
<line xmlns="http://www.w3.org/2000/svg" stroke-width="0.700001" x2="7.55002" class="pin" y1="3.096" stroke="#787878" connectorname="1" x1="0.350001" stroke-linecap="round" y2="3.096" id="connector0pin"/>
<g xmlns="http://www.w3.org/2000/svg" stroke-width="0" fill="none" class="terminal" x="0.350001" stroke="none" width="0.000283466" y="3.096" height="0.000283465" id="connector0terminal"/>
<text xmlns="http://www.w3.org/2000/svg" stroke-width="0" fill="#8c8c8c" class="text" stroke="none" x="3.95001" text-anchor="middle" font-size="2.50001" font-family="'Droid Sans'" y="2.046">1</text>
</g>
</g></g></g><g partID='70890'><line stroke-linecap='round' stroke='#404040' x1='35.4675' y1='239.177' x2='44.2446' y2='239.177' stroke-width='0.699998' /></g><g partID='62260'><line stroke-linecap='round' stroke='#404040' x1='35.4675' y1='253.677' x2='44.2446' y2='253.577' stroke-width='0.699998' /></g><g partID='73270'><line stroke-linecap='round' stroke='#404040' x1='44.2446' y1='224.777' x2='35.4675' y2='224.74' stroke-width='0.699998' /></g><g partID='73450'><line stroke-linecap='round' stroke='#404040' x1='217.102' y1='210.419' x2='123.502' y2='210.419' stroke-width='0.699998' /></g><circle  fill="black" cx="217.102" cy="210.419" r="1.44" stroke-width="0" stroke="none" /><g partID='73520'><line stroke-linecap='round' stroke='#404040' x1='167.041' y1='174.419' x2='123.502' y2='181.619' stroke-width='0.699998' /></g><circle  fill="black" cx="167.041" cy="174.419" r="1.44" stroke-width="0" stroke="none" /><g partID='73630'><line stroke-linecap='round' stroke='#404040' x1='217.102' y1='210.419' x2='145.781' y2='174.419' stroke-width='0.699998' /></g><circle  fill="black" cx="217.102" cy="210.419" r="1.44" stroke-width="0" stroke="none" /><g partID='73780'><line stroke-linecap='round' stroke='#404040' x1='123.502' y1='246.419' x2='167.041' y2='174.419' stroke-width='0.699998' /></g><circle  fill="black" cx="167.041" cy="174.419" r="1.44" stroke-width="0" stroke="none" /><g partID='73890'><line stroke-linecap='round' stroke='#404040' x1='123.502' y1='224.819' x2='73.0447' y2='239.177' stroke-width='0.699998' /></g><g partID='73960'><line stroke-linecap='round' stroke='#404040' x1='123.502' y1='232.019' x2='73.0447' y2='253.577' stroke-width='0.699998' /></g><g partID='74030'><line stroke-linecap='round' stroke='#404040' x1='123.502' y1='239.219' x2='73.0447' y2='224.777' stroke-width='0.699998' /></g><g partID='74380'><line stroke-linecap='round' stroke='#404040' x1='1.66934' y1='181.853' x2='1.05613' y2='296.727' stroke-width='0.699998' /></g><g partID='74240'><line stroke-linecap='round' stroke='#404040' x1='238.777' y1='296.727' x2='238.777' y2='174.494' stroke-width='0.699998' /></g><g partID='74450'><line stroke-linecap='round' stroke='#404040' x1='73.0061' y1='181.648' x2='1.66934' y2='181.853' stroke-width='0.699998' /></g><circle  fill="black" cx="1.66934" cy="181.853" r="1.44" stroke-width="0" stroke="none" /><g partID='74310'><line stroke-linecap='round' stroke='#404040' x1='1.05613' y1='296.727' x2='238.777' y2='296.727' stroke-width='0.699998' /></g><g partID='74170'><line stroke-linecap='round' stroke='#404040' x1='238.777' y1='174.494' x2='188.302' y2='174.419' stroke-width='0.699998' /></g><g partID='74100'><line stroke-linecap='round' stroke='#404040' x1='123.502' y1='217.619' x2='73.0061' y2='181.648' stroke-width='0.699998' /></g><g partID='74520'><line stroke-linecap='round' stroke='#404040' x1='1.66934' y1='181.853' x2='1.05613' y2='239.29' stroke-width='0.699998' /></g><g partID='74630'><line stroke-linecap='round' stroke='#404040' x1='1.05613' y1='239.29' x2='8.30201' y2='239.219' stroke-width='0.699998' /></g><g partID='58400' id='partLabel'><g transform='translate(217.102,190.419)' ><g font-size='5' font-style='normal' font-weight='normal' fill='#000000' font-family="'DroidSans'" id='schematicLabel' fill-opacity='1' stroke='none' ><text x='0' y='3.75'>WeMos D1 Mini1</text></g></g></g><g partID='58780' id='partLabel'><g transform='translate(42.2096,265.215)' ><g transform='matrix(0,1,-1,0,0,0)'  ><g font-size='5' font-style='normal' font-weight='normal' fill='#000000' font-family="'DroidSans'" id='schematicLabel' fill-opacity='1' stroke='none' ><text x='0' y='3.75'>LED1</text></g></g></g></g><g partID='62240' id='partLabel'><g transform='translate(73.3944,234.481)' ><g font-size='5' font-style='normal' font-weight='normal' fill='#000000' font-family="'DroidSans'" id='schematicLabel' fill-opacity='1' stroke='none' ><text x='0' y='3.75'>R3</text><text x='0' y='8.75'>&#xb1;1%</text><text x='0' y='13.75'>5.1k&#x3a9;</text></g></g></g><g partID='61990' id='partLabel'><g transform='translate(73.3944,220.081)' ><g font-size='5' font-style='normal' font-weight='normal' fill='#000000' font-family="'DroidSans'" id='schematicLabel' fill-opacity='1' stroke='none' ><text x='0' y='3.75'>R2</text><text x='0' y='8.75'>&#xb1;1%</text><text x='0' y='13.75'>2k&#x3a9;</text></g></g></g><g partID='61640' id='partLabel'><g transform='translate(73.3944,205.681)' ><g font-size='5' font-style='normal' font-weight='normal' fill='#000000' font-family="'DroidSans'" id='schematicLabel' fill-opacity='1' stroke='none' ><text x='0' y='3.75'>R1</text><text x='0' y='8.75'>&#xb1;1%</text><text x='0' y='13.75'>470&#x3a9;</text></g></g></g><g partID='73240' id='partLabel'><g transform='translate(137.798,210.769)' ><g transform='matrix(0,1,-1,0,0,0)'  ><g font-size='5' font-style='normal' font-weight='normal' fill='#000000' font-family="'DroidSans'" id='schematicLabel' fill-opacity='1' stroke='none' ><text x='0' y='3.75'>R4</text><text x='0' y='8.75'>4.7k&#x3a9;</text></g></g></g></g><g partID='72220' id='partLabel'><g transform='translate(92.0623,25.6)' ><g transform='matrix(0,-1,1,0,0,0)'  ><g font-size='5' font-style='normal' font-weight='normal' fill='#000000' font-family="'DroidSans'" id='schematicLabel' fill-opacity='1' stroke='none' ><text x='0' y='3.75'>DS1</text><text x='0' y='8.75'>DS18B20</text></g></g></g></g></svg>